STARTFONT 2.1
FONT -addy-sundae-Medium-R-Normal--12-90-100-100-M-60-ISO10646-1
SIZE 9 100 100
FONTBOUNDINGBOX 6 13 0 -3
COMMENT "(c) 2018 Addy"
COMMENT "Based on Tewi"
STARTPROPERTIES 32
FOUNDRY "addy"
FAMILY_NAME "sundae"
WEIGHT_NAME "Medium"
SLANT "R"
SETWIDTH_NAME "Normal"
ADD_STYLE_NAME ""
PIXEL_SIZE 12
POINT_SIZE 90
RESOLUTION_X 100
RESOLUTION_Y 100
SPACING "M"
AVERAGE_WIDTH 60
CHARSET_REGISTRY "ISO10646"
CHARSET_ENCODING "1"
FONTNAME_REGISTRY ""
CHARSET_COLLECTIONS "ASCII ISOLatin1Encoding ISO8859-2 ISO8859-5 ISO8859-7 ISO8859-9 ISO8859-8 ISO8859-4 ISO10646-1"
FONT_NAME "sundaemedium"
FACE_NAME "sundae medium"
COPYRIGHT "(c) 2018 Addy"
FONT_VERSION "001.000"
FONT_ASCENT 10
FONT_DESCENT 2
UNDERLINE_POSITION 0
UNDERLINE_THICKNESS 1
X_HEIGHT 4
CAP_HEIGHT 6
RAW_ASCENT 1000
RAW_DESCENT 200
NORM_SPACE 6
FIGURE_WIDTH 6
AVG_LOWERCASE_WIDTH 60
AVG_UPPERCASE_WIDTH 60
ENDPROPERTIES
CHARS 3404
STARTCHAR SPACE
ENCODING 32
SWIDTH 360 0
DWIDTH 6 0
BBX 0 0 0 0
BITMAP
ENDCHAR
STARTCHAR $0x0021
ENCODING 33
SWIDTH 360 0
DWIDTH 6 0
BBX 1 7 2 0
BITMAP
80
80
80
80
80
00
80
ENDCHAR
STARTCHAR $0x0022
ENCODING 34
SWIDTH 360 0
DWIDTH 6 0
BBX 3 2 1 5
BITMAP
A0
A0
ENDCHAR
STARTCHAR $0x0023
ENCODING 35
SWIDTH 360 0
DWIDTH 6 0
BBX 5 5 0 1
BITMAP
50
F8
50
F8
50
ENDCHAR
STARTCHAR $0x0024
ENCODING 36
SWIDTH 360 0
DWIDTH 6 0
BBX 5 7 0 0
BITMAP
20
78
A0
70
28
F0
20
ENDCHAR
STARTCHAR $0x0025
ENCODING 37
SWIDTH 360 0
DWIDTH 6 0
BBX 5 7 0 0
BITMAP
C0
C8
10
20
40
98
18
ENDCHAR
STARTCHAR $0x0026
ENCODING 38
SWIDTH 360 0
DWIDTH 6 0
BBX 5 7 0 0
BITMAP
60
90
90
60
98
90
68
ENDCHAR
STARTCHAR $0x0027
ENCODING 39
SWIDTH 360 0
DWIDTH 6 0
BBX 1 2 2 5
BITMAP
80
80
ENDCHAR
STARTCHAR $0x0028
ENCODING 40
SWIDTH 360 0
DWIDTH 6 0
BBX 3 9 1 -1
BITMAP
20
40
40
80
80
80
40
40
20
ENDCHAR
STARTCHAR $0x0029
ENCODING 41
SWIDTH 360 0
DWIDTH 6 0
BBX 3 9 1 -1
BITMAP
80
40
40
20
20
20
40
40
80
ENDCHAR
STARTCHAR $0x002A
ENCODING 42
SWIDTH 360 0
DWIDTH 6 0
BBX 5 6 0 0
BITMAP
20
A8
70
70
A8
20
ENDCHAR
STARTCHAR $0x002B
ENCODING 43
SWIDTH 360 0
DWIDTH 6 0
BBX 5 5 0 1
BITMAP
20
20
F8
20
20
ENDCHAR
STARTCHAR $0x002C
ENCODING 44
SWIDTH 360 0
DWIDTH 6 0
BBX 2 2 1 -1
BITMAP
40
80
ENDCHAR
STARTCHAR $0x002D
ENCODING 45
SWIDTH 360 0
DWIDTH 6 0
BBX 5 1 0 3
BITMAP
F8
ENDCHAR
STARTCHAR $0x002E
ENCODING 46
SWIDTH 360 0
DWIDTH 6 0
BBX 1 1 2 0
BITMAP
80
ENDCHAR
STARTCHAR $0x002F
ENCODING 47
SWIDTH 360 0
DWIDTH 6 0
BBX 4 8 1 -1
BITMAP
10
10
20
20
40
40
80
80
ENDCHAR
STARTCHAR $0x0030
ENCODING 48
SWIDTH 360 0
DWIDTH 6 0
BBX 5 7 0 0
BITMAP
70
88
98
A8
C8
88
70
ENDCHAR
STARTCHAR $0x0031
ENCODING 49
SWIDTH 360 0
DWIDTH 6 0
BBX 5 7 0 0
BITMAP
20
60
A0
20
20
20
F8
ENDCHAR
STARTCHAR $0x0032
ENCODING 50
SWIDTH 360 0
DWIDTH 6 0
BBX 5 7 0 0
BITMAP
70
88
08
10
20
40
F8
ENDCHAR
STARTCHAR $0x0033
ENCODING 51
SWIDTH 360 0
DWIDTH 6 0
BBX 5 7 0 0
BITMAP
70
88
08
30
08
88
70
ENDCHAR
STARTCHAR $0x0034
ENCODING 52
SWIDTH 360 0
DWIDTH 6 0
BBX 5 7 0 0
BITMAP
10
30
50
90
F8
10
38
ENDCHAR
STARTCHAR $0x0035
ENCODING 53
SWIDTH 360 0
DWIDTH 6 0
BBX 5 7 0 0
BITMAP
F8
80
F0
08
08
88
70
ENDCHAR
STARTCHAR $0x0036
ENCODING 54
SWIDTH 360 0
DWIDTH 6 0
BBX 5 7 0 0
BITMAP
70
88
80
F0
88
88
70
ENDCHAR
STARTCHAR $0x0037
ENCODING 55
SWIDTH 360 0
DWIDTH 6 0
BBX 5 7 0 0
BITMAP
F8
08
10
20
20
40
40
ENDCHAR
STARTCHAR $0x0038
ENCODING 56
SWIDTH 360 0
DWIDTH 6 0
BBX 5 7 0 0
BITMAP
70
88
88
70
88
88
70
ENDCHAR
STARTCHAR $0x0039
ENCODING 57
SWIDTH 360 0
DWIDTH 6 0
BBX 5 7 0 0
BITMAP
70
88
88
78
08
88
70
ENDCHAR
STARTCHAR $0x003A
ENCODING 58
SWIDTH 360 0
DWIDTH 6 0
BBX 1 4 2 1
BITMAP
80
00
00
80
ENDCHAR
STARTCHAR $0x003B
ENCODING 59
SWIDTH 360 0
DWIDTH 6 0
BBX 2 5 1 0
BITMAP
40
00
00
40
80
ENDCHAR
STARTCHAR $0x003C
ENCODING 60
SWIDTH 360 0
DWIDTH 6 0
BBX 4 7 1 0
BITMAP
10
20
40
80
40
20
10
ENDCHAR
STARTCHAR $0x003D
ENCODING 61
SWIDTH 360 0
DWIDTH 6 0
BBX 5 3 0 2
BITMAP
F8
00
F8
ENDCHAR
STARTCHAR $0x003E
ENCODING 62
SWIDTH 360 0
DWIDTH 6 0
BBX 4 7 1 0
BITMAP
80
40
20
10
20
40
80
ENDCHAR
STARTCHAR $0x003F
ENCODING 63
SWIDTH 360 0
DWIDTH 6 0
BBX 5 7 0 0
BITMAP
70
88
08
10
20
00
20
ENDCHAR
STARTCHAR $0x0040
ENCODING 64
SWIDTH 360 0
DWIDTH 6 0
BBX 5 7 0 0
BITMAP
70
88
B8
A8
B8
80
70
ENDCHAR
STARTCHAR $0x0041
ENCODING 65
SWIDTH 360 0
DWIDTH 6 0
BBX 5 7 0 0
BITMAP
20
50
88
88
F8
88
88
ENDCHAR
STARTCHAR $0x0042
ENCODING 66
SWIDTH 360 0
DWIDTH 6 0
BBX 5 7 0 0
BITMAP
F0
88
88
F0
88
88
F0
ENDCHAR
STARTCHAR $0x0043
ENCODING 67
SWIDTH 360 0
DWIDTH 6 0
BBX 5 7 0 0
BITMAP
70
88
80
80
80
88
70
ENDCHAR
STARTCHAR $0x0044
ENCODING 68
SWIDTH 360 0
DWIDTH 6 0
BBX 5 7 0 0
BITMAP
F0
88
88
88
88
88
F0
ENDCHAR
STARTCHAR $0x0045
ENCODING 69
SWIDTH 360 0
DWIDTH 6 0
BBX 5 7 0 0
BITMAP
F8
80
80
F0
80
80
F8
ENDCHAR
STARTCHAR $0x0046
ENCODING 70
SWIDTH 360 0
DWIDTH 6 0
BBX 5 7 0 0
BITMAP
F8
80
80
F0
80
80
80
ENDCHAR
STARTCHAR $0x0047
ENCODING 71
SWIDTH 360 0
DWIDTH 6 0
BBX 5 7 0 0
BITMAP
70
88
80
B8
88
88
78
ENDCHAR
STARTCHAR $0x0048
ENCODING 72
SWIDTH 360 0
DWIDTH 6 0
BBX 5 7 0 0
BITMAP
88
88
88
F8
88
88
88
ENDCHAR
STARTCHAR $0x0049
ENCODING 73
SWIDTH 360 0
DWIDTH 6 0
BBX 3 7 1 0
BITMAP
E0
40
40
40
40
40
E0
ENDCHAR
STARTCHAR $0x004A
ENCODING 74
SWIDTH 360 0
DWIDTH 6 0
BBX 5 7 0 0
BITMAP
38
10
10
10
10
90
60
ENDCHAR
STARTCHAR $0x004B
ENCODING 75
SWIDTH 360 0
DWIDTH 6 0
BBX 5 7 0 0
BITMAP
88
90
A0
C0
A0
90
88
ENDCHAR
STARTCHAR $0x004C
ENCODING 76
SWIDTH 360 0
DWIDTH 6 0
BBX 5 7 0 0
BITMAP
80
80
80
80
80
80
F8
ENDCHAR
STARTCHAR $0x004D
ENCODING 77
SWIDTH 360 0
DWIDTH 6 0
BBX 5 7 0 0
BITMAP
88
D8
A8
88
88
88
88
ENDCHAR
STARTCHAR $0x004E
ENCODING 78
SWIDTH 360 0
DWIDTH 6 0
BBX 5 7 0 0
BITMAP
88
C8
A8
98
88
88
88
ENDCHAR
STARTCHAR $0x004F
ENCODING 79
SWIDTH 360 0
DWIDTH 6 0
BBX 5 7 0 0
BITMAP
70
88
88
88
88
88
70
ENDCHAR
STARTCHAR $0x0050
ENCODING 80
SWIDTH 360 0
DWIDTH 6 0
BBX 5 7 0 0
BITMAP
F0
88
88
F0
80
80
80
ENDCHAR
STARTCHAR $0x0051
ENCODING 81
SWIDTH 360 0
DWIDTH 6 0
BBX 5 9 0 -2
BITMAP
70
88
88
88
88
88
70
20
18
ENDCHAR
STARTCHAR $0x0052
ENCODING 82
SWIDTH 360 0
DWIDTH 6 0
BBX 5 7 0 0
BITMAP
F0
88
88
F0
90
88
88
ENDCHAR
STARTCHAR $0x0053
ENCODING 83
SWIDTH 360 0
DWIDTH 6 0
BBX 5 7 0 0
BITMAP
70
88
80
70
08
88
70
ENDCHAR
STARTCHAR $0x0054
ENCODING 84
SWIDTH 360 0
DWIDTH 6 0
BBX 5 7 0 0
BITMAP
F8
20
20
20
20
20
20
ENDCHAR
STARTCHAR $0x0055
ENCODING 85
SWIDTH 360 0
DWIDTH 6 0
BBX 5 7 0 0
BITMAP
88
88
88
88
88
88
70
ENDCHAR
STARTCHAR $0x0056
ENCODING 86
SWIDTH 360 0
DWIDTH 6 0
BBX 5 7 0 0
BITMAP
88
88
88
88
88
50
20
ENDCHAR
STARTCHAR $0x0057
ENCODING 87
SWIDTH 360 0
DWIDTH 6 0
BBX 5 7 0 0
BITMAP
88
88
88
88
A8
A8
50
ENDCHAR
STARTCHAR $0x0058
ENCODING 88
SWIDTH 360 0
DWIDTH 6 0
BBX 5 7 0 0
BITMAP
88
88
50
20
50
88
88
ENDCHAR
STARTCHAR $0x0059
ENCODING 89
SWIDTH 360 0
DWIDTH 6 0
BBX 5 7 0 0
BITMAP
88
88
50
20
20
20
20
ENDCHAR
STARTCHAR $0x005A
ENCODING 90
SWIDTH 360 0
DWIDTH 6 0
BBX 5 7 0 0
BITMAP
F8
08
10
20
40
80
F8
ENDCHAR
STARTCHAR $0x005B
ENCODING 91
SWIDTH 360 0
DWIDTH 6 0
BBX 3 9 1 -1
BITMAP
E0
80
80
80
80
80
80
80
E0
ENDCHAR
STARTCHAR $0x005C
ENCODING 92
SWIDTH 360 0
DWIDTH 6 0
BBX 4 8 1 -1
BITMAP
80
80
40
40
20
20
10
10
ENDCHAR
STARTCHAR $0x005D
ENCODING 93
SWIDTH 360 0
DWIDTH 6 0
BBX 3 9 1 -1
BITMAP
E0
20
20
20
20
20
20
20
E0
ENDCHAR
STARTCHAR $0x005E
ENCODING 94
SWIDTH 360 0
DWIDTH 6 0
BBX 5 3 0 5
BITMAP
20
50
88
ENDCHAR
STARTCHAR $0x005F
ENCODING 95
SWIDTH 360 0
DWIDTH 6 0
BBX 5 1 0 -1
BITMAP
F8
ENDCHAR
STARTCHAR $0x0060
ENCODING 96
SWIDTH 360 0
DWIDTH 6 0
BBX 2 2 1 5
BITMAP
80
40
ENDCHAR
STARTCHAR $0x0061
ENCODING 97
SWIDTH 360 0
DWIDTH 6 0
BBX 5 5 0 0
BITMAP
70
08
78
88
78
ENDCHAR
STARTCHAR $0x0062
ENCODING 98
SWIDTH 360 0
DWIDTH 6 0
BBX 5 7 0 0
BITMAP
80
80
B0
C8
88
88
F0
ENDCHAR
STARTCHAR $0x0063
ENCODING 99
SWIDTH 360 0
DWIDTH 6 0
BBX 5 5 0 0
BITMAP
70
88
80
80
78
ENDCHAR
STARTCHAR $0x0064
ENCODING 100
SWIDTH 360 0
DWIDTH 6 0
BBX 5 7 0 0
BITMAP
08
08
78
88
88
98
68
ENDCHAR
STARTCHAR $0x0065
ENCODING 101
SWIDTH 360 0
DWIDTH 6 0
BBX 5 5 0 0
BITMAP
70
88
F8
80
78
ENDCHAR
STARTCHAR $0x0066
ENCODING 102
SWIDTH 360 0
DWIDTH 6 0
BBX 5 7 0 0
BITMAP
30
48
40
F0
40
40
40
ENDCHAR
STARTCHAR $0x0067
ENCODING 103
SWIDTH 360 0
DWIDTH 6 0
BBX 5 7 0 -2
BITMAP
78
88
88
88
78
08
70
ENDCHAR
STARTCHAR $0x0068
ENCODING 104
SWIDTH 360 0
DWIDTH 6 0
BBX 5 8 0 0
BITMAP
80
80
80
B0
C8
88
88
88
ENDCHAR
STARTCHAR $0x0069
ENCODING 105
SWIDTH 360 0
DWIDTH 6 0
BBX 5 7 0 0
BITMAP
20
00
60
20
20
20
F8
ENDCHAR
STARTCHAR $0x006A
ENCODING 106
SWIDTH 360 0
DWIDTH 6 0
BBX 4 9 0 -2
BITMAP
10
00
30
10
10
10
10
90
60
ENDCHAR
STARTCHAR $0x006B
ENCODING 107
SWIDTH 360 0
DWIDTH 6 0
BBX 4 7 1 0
BITMAP
80
80
90
A0
C0
A0
90
ENDCHAR
STARTCHAR $0x006C
ENCODING 108
SWIDTH 360 0
DWIDTH 6 0
BBX 5 7 0 0
BITMAP
E0
20
20
20
20
20
F8
ENDCHAR
STARTCHAR $0x006D
ENCODING 109
SWIDTH 360 0
DWIDTH 6 0
BBX 5 5 0 0
BITMAP
F0
A8
A8
A8
A8
ENDCHAR
STARTCHAR $0x006E
ENCODING 110
SWIDTH 360 0
DWIDTH 6 0
BBX 5 5 0 0
BITMAP
B0
C8
88
88
88
ENDCHAR
STARTCHAR $0x006F
ENCODING 111
SWIDTH 360 0
DWIDTH 6 0
BBX 5 5 0 0
BITMAP
70
88
88
88
70
ENDCHAR
STARTCHAR $0x0070
ENCODING 112
SWIDTH 360 0
DWIDTH 6 0
BBX 5 7 0 -2
BITMAP
B0
C8
88
88
F0
80
80
ENDCHAR
STARTCHAR $0x0071
ENCODING 113
SWIDTH 360 0
DWIDTH 6 0
BBX 5 7 0 -2
BITMAP
68
98
88
88
78
08
08
ENDCHAR
STARTCHAR $0x0072
ENCODING 114
SWIDTH 360 0
DWIDTH 6 0
BBX 5 5 0 0
BITMAP
B0
C8
80
80
80
ENDCHAR
STARTCHAR $0x0073
ENCODING 115
SWIDTH 360 0
DWIDTH 6 0
BBX 5 5 0 0
BITMAP
78
80
70
08
F0
ENDCHAR
STARTCHAR $0x0074
ENCODING 116
SWIDTH 360 0
DWIDTH 6 0
BBX 5 7 0 0
BITMAP
40
40
F0
40
40
48
30
ENDCHAR
STARTCHAR $0x0075
ENCODING 117
SWIDTH 360 0
DWIDTH 6 0
BBX 5 5 0 0
BITMAP
88
88
88
98
68
ENDCHAR
STARTCHAR $0x0076
ENCODING 118
SWIDTH 360 0
DWIDTH 6 0
BBX 5 5 0 0
BITMAP
88
88
88
50
20
ENDCHAR
STARTCHAR $0x0077
ENCODING 119
SWIDTH 360 0
DWIDTH 6 0
BBX 5 5 0 0
BITMAP
88
88
A8
A8
50
ENDCHAR
STARTCHAR $0x0078
ENCODING 120
SWIDTH 360 0
DWIDTH 6 0
BBX 5 5 0 0
BITMAP
88
50
20
50
88
ENDCHAR
STARTCHAR $0x0079
ENCODING 121
SWIDTH 360 0
DWIDTH 6 0
BBX 5 7 0 -2
BITMAP
88
88
88
98
68
08
70
ENDCHAR
STARTCHAR $0x007A
ENCODING 122
SWIDTH 360 0
DWIDTH 6 0
BBX 5 5 0 0
BITMAP
F8
10
20
40
F8
ENDCHAR
STARTCHAR $0x007B
ENCODING 123
SWIDTH 360 0
DWIDTH 6 0
BBX 4 9 1 -1
BITMAP
30
40
40
40
80
40
40
40
30
ENDCHAR
STARTCHAR $0x007C
ENCODING 124
SWIDTH 360 0
DWIDTH 6 0
BBX 1 9 2 -1
BITMAP
80
80
80
80
80
80
80
80
80
ENDCHAR
STARTCHAR $0x007D
ENCODING 125
SWIDTH 360 0
DWIDTH 6 0
BBX 4 9 1 -1
BITMAP
C0
20
20
20
10
20
20
20
C0
ENDCHAR
STARTCHAR $0x007E
ENCODING 126
SWIDTH 360 0
DWIDTH 6 0
BBX 5 2 0 3
BITMAP
68
B0
ENDCHAR
STARTCHAR INVERTED
ENCODING 161
SWIDTH 360 0
DWIDTH 6 0
BBX 1 7 2 0
BITMAP
80
00
80
80
80
80
80
ENDCHAR
STARTCHAR CENT
ENCODING 162
SWIDTH 360 0
DWIDTH 6 0
BBX 5 7 0 -1
BITMAP
20
70
A8
A0
A8
70
20
ENDCHAR
STARTCHAR POUND
ENCODING 163
SWIDTH 360 0
DWIDTH 6 0
BBX 5 8 0 0
BITMAP
30
48
40
E0
40
40
48
B0
ENDCHAR
STARTCHAR CURRENCY
ENCODING 164
SWIDTH 360 0
DWIDTH 6 0
BBX 5 5 0 1
BITMAP
88
70
50
70
88
ENDCHAR
STARTCHAR YEN
ENCODING 165
SWIDTH 360 0
DWIDTH 6 0
BBX 5 8 0 -1
BITMAP
88
88
50
F8
20
F8
20
20
ENDCHAR
STARTCHAR BROKEN
ENCODING 166
SWIDTH 360 0
DWIDTH 6 0
BBX 1 10 2 -2
BITMAP
80
80
80
80
00
00
80
80
80
80
ENDCHAR
STARTCHAR SECTION
ENCODING 167
SWIDTH 360 0
DWIDTH 6 0
BBX 5 10 0 -2
BITMAP
70
88
48
A0
90
48
28
90
88
70
ENDCHAR
STARTCHAR DIAERESIS
ENCODING 168
SWIDTH 360 0
DWIDTH 6 0
BBX 3 1 1 6
BITMAP
A0
ENDCHAR
STARTCHAR COPYRIGHT
ENCODING 169
SWIDTH 360 0
DWIDTH 6 0
BBX 5 8 0 -1
BITMAP
F0
08
68
88
88
68
08
F0
ENDCHAR
STARTCHAR FEMININE
ENCODING 170
SWIDTH 360 0
DWIDTH 6 0
BBX 4 6 1 1
BITMAP
70
90
B0
50
00
F0
ENDCHAR
STARTCHAR LEFT-POINTING
ENCODING 171
SWIDTH 360 0
DWIDTH 6 0
BBX 5 4 0 1
BITMAP
48
90
90
48
ENDCHAR
STARTCHAR NOT
ENCODING 172
SWIDTH 360 0
DWIDTH 6 0
BBX 5 3 0 1
BITMAP
F8
08
08
ENDCHAR
STARTCHAR REGISTERED
ENCODING 174
SWIDTH 360 0
DWIDTH 6 0
BBX 5 8 0 -1
BITMAP
F0
08
C8
A8
C8
A8
08
F0
ENDCHAR
STARTCHAR MACRON
ENCODING 175
SWIDTH 360 0
DWIDTH 6 0
BBX 4 1 1 7
BITMAP
F0
ENDCHAR
STARTCHAR DEGREE
ENCODING 176
SWIDTH 360 0
DWIDTH 6 0
BBX 4 4 1 5
BITMAP
60
90
90
60
ENDCHAR
STARTCHAR PLUS-MINUS
ENCODING 177
SWIDTH 360 0
DWIDTH 6 0
BBX 5 7 0 0
BITMAP
20
20
F8
20
20
00
F8
ENDCHAR
STARTCHAR SUPERSCRIPT
ENCODING 178
SWIDTH 360 0
DWIDTH 6 0
BBX 3 5 1 3
BITMAP
C0
20
40
80
E0
ENDCHAR
STARTCHAR SUPERSCRIPT
ENCODING 179
SWIDTH 360 0
DWIDTH 6 0
BBX 3 5 1 3
BITMAP
C0
20
40
20
C0
ENDCHAR
STARTCHAR ACUTE
ENCODING 180
SWIDTH 360 0
DWIDTH 6 0
BBX 3 3 1 5
BITMAP
20
40
80
ENDCHAR
STARTCHAR MICRO
ENCODING 181
SWIDTH 360 0
DWIDTH 6 0
BBX 5 7 0 -2
BITMAP
90
90
90
90
E8
80
80
ENDCHAR
STARTCHAR PILCROW
ENCODING 182
SWIDTH 360 0
DWIDTH 6 0
BBX 6 9 0 -1
BITMAP
7C
E8
E8
E8
78
28
28
28
2C
ENDCHAR
STARTCHAR MIDDLE
ENCODING 183
SWIDTH 360 0
DWIDTH 6 0
BBX 2 2 2 2
BITMAP
C0
C0
ENDCHAR
STARTCHAR CEDILLA
ENCODING 184
SWIDTH 360 0
DWIDTH 6 0
BBX 2 3 2 -3
BITMAP
80
40
80
ENDCHAR
STARTCHAR SUPERSCRIPT
ENCODING 185
SWIDTH 360 0
DWIDTH 6 0
BBX 3 5 1 3
BITMAP
C0
40
40
40
E0
ENDCHAR
STARTCHAR MASCULINE
ENCODING 186
SWIDTH 360 0
DWIDTH 6 0
BBX 4 6 1 1
BITMAP
60
90
90
60
00
F0
ENDCHAR
STARTCHAR RIGHT-POINTING
ENCODING 187
SWIDTH 360 0
DWIDTH 6 0
BBX 5 4 0 1
BITMAP
90
48
48
90
ENDCHAR
STARTCHAR VULGAR
ENCODING 188
SWIDTH 360 0
DWIDTH 6 0
BBX 5 7 0 0
BITMAP
C0
48
50
28
58
B8
08
ENDCHAR
STARTCHAR VULGAR
ENCODING 189
SWIDTH 360 0
DWIDTH 6 0
BBX 5 7 0 0
BITMAP
C0
48
50
30
48
90
38
ENDCHAR
STARTCHAR VULGAR
ENCODING 190
SWIDTH 360 0
DWIDTH 6 0
BBX 5 8 0 0
BITMAP
80
40
C8
50
A8
58
B8
08
ENDCHAR
STARTCHAR INVERTED
ENCODING 191
SWIDTH 360 0
DWIDTH 6 0
BBX 5 7 0 0
BITMAP
20
00
20
40
80
88
70
ENDCHAR
STARTCHAR LATIN
ENCODING 192
SWIDTH 360 0
DWIDTH 6 0
BBX 5 9 0 0
BITMAP
40
20
70
88
88
F8
88
88
88
ENDCHAR
STARTCHAR LATIN
ENCODING 193
SWIDTH 360 0
DWIDTH 6 0
BBX 5 9 0 0
BITMAP
10
20
70
88
88
F8
88
88
88
ENDCHAR
STARTCHAR LATIN
ENCODING 194
SWIDTH 360 0
DWIDTH 6 0
BBX 5 9 0 0
BITMAP
20
50
70
88
88
F8
88
88
88
ENDCHAR
STARTCHAR LATIN
ENCODING 195
SWIDTH 360 0
DWIDTH 6 0
BBX 5 9 0 0
BITMAP
68
B0
70
88
88
F8
88
88
88
ENDCHAR
STARTCHAR LATIN
ENCODING 196
SWIDTH 360 0
DWIDTH 6 0
BBX 5 9 0 0
BITMAP
50
00
70
88
88
F8
88
88
88
ENDCHAR
STARTCHAR LATIN
ENCODING 197
SWIDTH 360 0
DWIDTH 6 0
BBX 5 9 0 0
BITMAP
20
50
70
88
88
F8
88
88
88
ENDCHAR
STARTCHAR LATIN
ENCODING 198
SWIDTH 360 0
DWIDTH 6 0
BBX 5 7 0 0
BITMAP
78
A0
A0
F0
A0
A0
B8
ENDCHAR
STARTCHAR LATIN
ENCODING 199
SWIDTH 360 0
DWIDTH 6 0
BBX 5 9 0 -2
BITMAP
70
88
80
80
80
88
70
20
40
ENDCHAR
STARTCHAR LATIN
ENCODING 200
SWIDTH 360 0
DWIDTH 6 0
BBX 5 9 0 0
BITMAP
40
20
F8
80
80
F0
80
80
F8
ENDCHAR
STARTCHAR LATIN
ENCODING 201
SWIDTH 360 0
DWIDTH 6 0
BBX 5 9 0 0
BITMAP
10
20
F8
80
80
F0
80
80
F8
ENDCHAR
STARTCHAR LATIN
ENCODING 202
SWIDTH 360 0
DWIDTH 6 0
BBX 5 9 0 0
BITMAP
20
50
F8
80
80
F0
80
80
F8
ENDCHAR
STARTCHAR LATIN
ENCODING 203
SWIDTH 360 0
DWIDTH 6 0
BBX 5 9 0 0
BITMAP
50
00
F8
80
80
F0
80
80
F8
ENDCHAR
STARTCHAR LATIN
ENCODING 204
SWIDTH 360 0
DWIDTH 6 0
BBX 3 9 1 0
BITMAP
40
20
00
E0
40
40
40
40
E0
ENDCHAR
STARTCHAR LATIN
ENCODING 205
SWIDTH 360 0
DWIDTH 6 0
BBX 3 9 1 0
BITMAP
40
80
00
E0
40
40
40
40
E0
ENDCHAR
STARTCHAR LATIN
ENCODING 206
SWIDTH 360 0
DWIDTH 6 0
BBX 3 9 1 0
BITMAP
40
A0
00
E0
40
40
40
40
E0
ENDCHAR
STARTCHAR LATIN
ENCODING 207
SWIDTH 360 0
DWIDTH 6 0
BBX 3 9 1 0
BITMAP
A0
00
E0
40
40
40
40
40
E0
ENDCHAR
STARTCHAR LATIN
ENCODING 208
SWIDTH 360 0
DWIDTH 6 0
BBX 5 7 0 0
BITMAP
70
48
48
E8
48
48
70
ENDCHAR
STARTCHAR LATIN
ENCODING 209
SWIDTH 360 0
DWIDTH 6 0
BBX 5 9 0 0
BITMAP
68
B0
88
C8
A8
98
88
88
88
ENDCHAR
STARTCHAR LATIN
ENCODING 210
SWIDTH 360 0
DWIDTH 6 0
BBX 5 9 0 0
BITMAP
40
20
70
88
88
88
88
88
70
ENDCHAR
STARTCHAR LATIN
ENCODING 211
SWIDTH 360 0
DWIDTH 6 0
BBX 5 9 0 0
BITMAP
10
20
70
88
88
88
88
88
70
ENDCHAR
STARTCHAR LATIN
ENCODING 212
SWIDTH 360 0
DWIDTH 6 0
BBX 5 9 0 0
BITMAP
20
50
70
88
88
88
88
88
70
ENDCHAR
STARTCHAR LATIN
ENCODING 213
SWIDTH 360 0
DWIDTH 6 0
BBX 5 9 0 0
BITMAP
68
B0
70
88
88
88
88
88
70
ENDCHAR
STARTCHAR LATIN
ENCODING 214
SWIDTH 360 0
DWIDTH 6 0
BBX 5 9 0 0
BITMAP
50
00
70
88
88
88
88
88
70
ENDCHAR
STARTCHAR MULTIPLICATION
ENCODING 215
SWIDTH 360 0
DWIDTH 6 0
BBX 5 5 0 1
BITMAP
88
50
20
50
88
ENDCHAR
STARTCHAR LATIN
ENCODING 216
SWIDTH 360 0
DWIDTH 6 0
BBX 5 9 0 -1
BITMAP
08
70
98
A8
A8
A8
C8
70
80
ENDCHAR
STARTCHAR LATIN
ENCODING 217
SWIDTH 360 0
DWIDTH 6 0
BBX 5 9 0 0
BITMAP
40
20
88
88
88
88
88
88
70
ENDCHAR
STARTCHAR LATIN
ENCODING 218
SWIDTH 360 0
DWIDTH 6 0
BBX 5 9 0 0
BITMAP
10
20
88
88
88
88
88
88
70
ENDCHAR
STARTCHAR LATIN
ENCODING 219
SWIDTH 360 0
DWIDTH 6 0
BBX 5 9 0 0
BITMAP
20
50
00
88
88
88
88
88
70
ENDCHAR
STARTCHAR LATIN
ENCODING 220
SWIDTH 360 0
DWIDTH 6 0
BBX 5 9 0 0
BITMAP
50
00
88
88
88
88
88
88
70
ENDCHAR
STARTCHAR LATIN
ENCODING 221
SWIDTH 360 0
DWIDTH 6 0
BBX 5 9 0 0
BITMAP
10
20
88
88
88
50
20
20
20
ENDCHAR
STARTCHAR LATIN
ENCODING 222
SWIDTH 360 0
DWIDTH 6 0
BBX 6 9 0 -2
BITMAP
E0
40
78
44
44
44
78
40
E0
ENDCHAR
STARTCHAR LATIN
ENCODING 223
SWIDTH 360 0
DWIDTH 6 0
BBX 5 8 0 0
BITMAP
70
88
88
F0
88
88
C8
B0
ENDCHAR
STARTCHAR LATIN
ENCODING 224
SWIDTH 360 0
DWIDTH 6 0
BBX 5 8 0 0
BITMAP
20
10
00
70
08
78
88
78
ENDCHAR
STARTCHAR LATIN
ENCODING 225
SWIDTH 360 0
DWIDTH 6 0
BBX 5 8 0 0
BITMAP
10
20
00
70
08
78
88
78
ENDCHAR
STARTCHAR LATIN
ENCODING 226
SWIDTH 360 0
DWIDTH 6 0
BBX 5 8 0 0
BITMAP
20
50
00
70
08
78
88
78
ENDCHAR
STARTCHAR LATIN
ENCODING 227
SWIDTH 360 0
DWIDTH 6 0
BBX 5 8 0 0
BITMAP
68
B0
00
70
08
78
88
78
ENDCHAR
STARTCHAR LATIN
ENCODING 228
SWIDTH 360 0
DWIDTH 6 0
BBX 5 7 0 0
BITMAP
50
00
70
08
78
88
78
ENDCHAR
STARTCHAR LATIN
ENCODING 229
SWIDTH 360 0
DWIDTH 6 0
BBX 5 9 0 0
BITMAP
20
50
20
00
70
08
78
88
78
ENDCHAR
STARTCHAR LATIN
ENCODING 230
SWIDTH 360 0
DWIDTH 6 0
BBX 5 5 0 0
BITMAP
70
A8
B8
A0
78
ENDCHAR
STARTCHAR LATIN
ENCODING 231
SWIDTH 360 0
DWIDTH 6 0
BBX 5 7 0 -2
BITMAP
70
88
80
80
78
20
40
ENDCHAR
STARTCHAR LATIN
ENCODING 232
SWIDTH 360 0
DWIDTH 6 0
BBX 5 8 0 0
BITMAP
40
20
00
70
88
F8
80
78
ENDCHAR
STARTCHAR LATIN
ENCODING 233
SWIDTH 360 0
DWIDTH 6 0
BBX 5 8 0 0
BITMAP
10
20
00
70
88
F8
80
78
ENDCHAR
STARTCHAR LATIN
ENCODING 234
SWIDTH 360 0
DWIDTH 6 0
BBX 5 8 0 0
BITMAP
20
50
00
70
88
F8
80
78
ENDCHAR
STARTCHAR LATIN
ENCODING 235
SWIDTH 360 0
DWIDTH 6 0
BBX 5 7 0 0
BITMAP
50
00
70
88
F8
80
78
ENDCHAR
STARTCHAR LATIN
ENCODING 236
SWIDTH 360 0
DWIDTH 6 0
BBX 3 8 1 0
BITMAP
80
40
00
C0
40
40
40
60
ENDCHAR
STARTCHAR LATIN
ENCODING 237
SWIDTH 360 0
DWIDTH 6 0
BBX 3 8 1 0
BITMAP
20
40
00
C0
40
40
40
60
ENDCHAR
STARTCHAR LATIN
ENCODING 238
SWIDTH 360 0
DWIDTH 6 0
BBX 3 8 1 0
BITMAP
40
A0
00
C0
40
40
40
60
ENDCHAR
STARTCHAR LATIN
ENCODING 239
SWIDTH 360 0
DWIDTH 6 0
BBX 3 7 1 0
BITMAP
A0
00
C0
40
40
40
60
ENDCHAR
STARTCHAR LATIN
ENCODING 240
SWIDTH 360 0
DWIDTH 6 0
BBX 5 9 0 0
BITMAP
50
20
50
10
78
88
88
88
70
ENDCHAR
STARTCHAR LATIN
ENCODING 241
SWIDTH 360 0
DWIDTH 6 0
BBX 5 8 0 0
BITMAP
68
B0
00
B0
C8
88
88
88
ENDCHAR
STARTCHAR LATIN
ENCODING 242
SWIDTH 360 0
DWIDTH 6 0
BBX 5 8 0 0
BITMAP
40
20
00
70
88
88
88
70
ENDCHAR
STARTCHAR LATIN
ENCODING 243
SWIDTH 360 0
DWIDTH 6 0
BBX 5 8 0 0
BITMAP
10
20
00
70
88
88
88
70
ENDCHAR
STARTCHAR LATIN
ENCODING 244
SWIDTH 360 0
DWIDTH 6 0
BBX 5 8 0 0
BITMAP
20
50
00
70
88
88
88
70
ENDCHAR
STARTCHAR LATIN
ENCODING 245
SWIDTH 360 0
DWIDTH 6 0
BBX 5 8 0 0
BITMAP
68
B0
00
70
88
88
88
70
ENDCHAR
STARTCHAR LATIN
ENCODING 246
SWIDTH 360 0
DWIDTH 6 0
BBX 5 7 0 0
BITMAP
50
00
70
88
88
88
70
ENDCHAR
STARTCHAR DIVISION
ENCODING 247
SWIDTH 360 0
DWIDTH 6 0
BBX 5 5 0 1
BITMAP
20
00
F8
00
20
ENDCHAR
STARTCHAR LATIN
ENCODING 248
SWIDTH 360 0
DWIDTH 6 0
BBX 5 5 0 0
BITMAP
78
98
A8
C8
F0
ENDCHAR
STARTCHAR LATIN
ENCODING 249
SWIDTH 360 0
DWIDTH 6 0
BBX 5 8 0 0
BITMAP
40
20
00
88
88
88
98
68
ENDCHAR
STARTCHAR LATIN
ENCODING 250
SWIDTH 360 0
DWIDTH 6 0
BBX 5 8 0 0
BITMAP
10
20
00
88
88
88
98
68
ENDCHAR
STARTCHAR LATIN
ENCODING 251
SWIDTH 360 0
DWIDTH 6 0
BBX 5 8 0 0
BITMAP
20
50
00
88
88
88
98
68
ENDCHAR
STARTCHAR LATIN
ENCODING 252
SWIDTH 360 0
DWIDTH 6 0
BBX 5 7 0 0
BITMAP
50
00
88
88
88
98
68
ENDCHAR
STARTCHAR LATIN
ENCODING 253
SWIDTH 360 0
DWIDTH 6 0
BBX 5 10 0 -2
BITMAP
10
20
00
88
88
88
88
78
08
70
ENDCHAR
STARTCHAR LATIN
ENCODING 254
SWIDTH 360 0
DWIDTH 6 0
BBX 5 9 0 -2
BITMAP
80
80
F0
88
88
88
F0
80
80
ENDCHAR
STARTCHAR LATIN
ENCODING 255
SWIDTH 360 0
DWIDTH 6 0
BBX 5 9 0 -2
BITMAP
50
00
88
88
88
88
78
08
70
ENDCHAR
STARTCHAR LATIN
ENCODING 256
SWIDTH 360 0
DWIDTH 6 0
BBX 5 9 0 0
BITMAP
F8
00
70
88
88
F8
88
88
88
ENDCHAR
STARTCHAR LATIN
ENCODING 257
SWIDTH 360 0
DWIDTH 6 0
BBX 5 7 0 0
BITMAP
F8
00
70
08
78
88
78
ENDCHAR
STARTCHAR LATIN
ENCODING 258
SWIDTH 360 0
DWIDTH 6 0
BBX 5 9 0 0
BITMAP
88
70
00
70
88
88
F8
88
88
ENDCHAR
STARTCHAR LATIN
ENCODING 259
SWIDTH 360 0
DWIDTH 6 0
BBX 5 8 0 0
BITMAP
88
70
00
70
08
78
88
78
ENDCHAR
STARTCHAR LATIN
ENCODING 260
SWIDTH 360 0
DWIDTH 6 0
BBX 6 8 0 -1
BITMAP
70
88
88
F8
88
88
88
04
ENDCHAR
STARTCHAR LATIN
ENCODING 261
SWIDTH 360 0
DWIDTH 6 0
BBX 6 6 0 -1
BITMAP
70
08
78
88
78
04
ENDCHAR
STARTCHAR LATIN
ENCODING 262
SWIDTH 360 0
DWIDTH 6 0
BBX 5 9 0 0
BITMAP
10
20
70
88
80
80
80
88
70
ENDCHAR
STARTCHAR LATIN
ENCODING 263
SWIDTH 360 0
DWIDTH 6 0
BBX 5 8 0 0
BITMAP
10
20
00
70
88
80
80
78
ENDCHAR
STARTCHAR LATIN
ENCODING 264
SWIDTH 360 0
DWIDTH 6 0
BBX 5 9 0 0
BITMAP
20
50
70
88
80
80
80
88
70
ENDCHAR
STARTCHAR LATIN
ENCODING 265
SWIDTH 360 0
DWIDTH 6 0
BBX 5 8 0 0
BITMAP
20
50
00
70
88
80
80
78
ENDCHAR
STARTCHAR LATIN
ENCODING 266
SWIDTH 360 0
DWIDTH 6 0
BBX 5 9 0 0
BITMAP
20
00
70
88
80
80
80
88
70
ENDCHAR
STARTCHAR LATIN
ENCODING 267
SWIDTH 360 0
DWIDTH 6 0
BBX 5 7 0 0
BITMAP
20
00
70
88
80
80
78
ENDCHAR
STARTCHAR LATIN
ENCODING 268
SWIDTH 360 0
DWIDTH 6 0
BBX 5 9 0 0
BITMAP
50
20
70
88
80
80
80
88
70
ENDCHAR
STARTCHAR LATIN
ENCODING 269
SWIDTH 360 0
DWIDTH 6 0
BBX 5 8 0 0
BITMAP
50
20
00
70
88
80
80
78
ENDCHAR
STARTCHAR LATIN
ENCODING 270
SWIDTH 360 0
DWIDTH 6 0
BBX 5 9 0 0
BITMAP
50
20
F0
88
88
88
88
88
F0
ENDCHAR
STARTCHAR LATIN
ENCODING 271
SWIDTH 360 0
DWIDTH 6 0
BBX 6 8 0 0
BITMAP
04
14
18
70
90
90
90
70
ENDCHAR
STARTCHAR LATIN
ENCODING 272
SWIDTH 360 0
DWIDTH 6 0
BBX 6 7 0 0
BITMAP
78
44
44
F4
44
44
78
ENDCHAR
STARTCHAR LATIN
ENCODING 273
SWIDTH 360 0
DWIDTH 6 0
BBX 6 7 0 0
BITMAP
1C
08
78
88
88
88
78
ENDCHAR
STARTCHAR LATIN
ENCODING 274
SWIDTH 360 0
DWIDTH 6 0
BBX 5 9 0 0
BITMAP
70
00
F8
80
80
F0
80
80
F8
ENDCHAR
STARTCHAR LATIN
ENCODING 275
SWIDTH 360 0
DWIDTH 6 0
BBX 5 7 0 0
BITMAP
F8
00
70
88
F8
80
78
ENDCHAR
STARTCHAR LATIN
ENCODING 276
SWIDTH 360 0
DWIDTH 6 0
BBX 5 9 0 0
BITMAP
88
70
00
F8
80
F0
80
80
F8
ENDCHAR
STARTCHAR LATIN
ENCODING 277
SWIDTH 360 0
DWIDTH 6 0
BBX 5 8 0 0
BITMAP
88
70
00
70
88
F8
80
78
ENDCHAR
STARTCHAR LATIN
ENCODING 278
SWIDTH 360 0
DWIDTH 6 0
BBX 5 9 0 0
BITMAP
20
00
F8
80
80
F0
80
80
F8
ENDCHAR
STARTCHAR LATIN
ENCODING 279
SWIDTH 360 0
DWIDTH 6 0
BBX 5 7 0 0
BITMAP
20
00
70
88
F8
80
78
ENDCHAR
STARTCHAR LATIN
ENCODING 280
SWIDTH 360 0
DWIDTH 6 0
BBX 6 8 0 -1
BITMAP
F8
80
80
F0
80
80
F8
04
ENDCHAR
STARTCHAR LATIN
ENCODING 281
SWIDTH 360 0
DWIDTH 6 0
BBX 5 7 0 -2
BITMAP
70
88
F8
80
78
10
08
ENDCHAR
STARTCHAR LATIN
ENCODING 282
SWIDTH 360 0
DWIDTH 6 0
BBX 5 9 0 0
BITMAP
50
20
F8
80
80
F0
80
80
F8
ENDCHAR
STARTCHAR LATIN
ENCODING 283
SWIDTH 360 0
DWIDTH 6 0
BBX 5 8 0 0
BITMAP
50
20
00
70
88
F8
80
78
ENDCHAR
STARTCHAR LATIN
ENCODING 284
SWIDTH 360 0
DWIDTH 6 0
BBX 5 9 0 0
BITMAP
20
50
00
70
88
80
98
88
70
ENDCHAR
STARTCHAR LATIN
ENCODING 285
SWIDTH 360 0
DWIDTH 6 0
BBX 5 10 0 -2
BITMAP
20
50
00
78
88
88
88
78
08
70
ENDCHAR
STARTCHAR LATIN
ENCODING 286
SWIDTH 360 0
DWIDTH 6 0
BBX 5 9 0 0
BITMAP
88
70
00
70
88
80
98
88
70
ENDCHAR
STARTCHAR LATIN
ENCODING 287
SWIDTH 360 0
DWIDTH 6 0
BBX 5 10 0 -2
BITMAP
88
70
00
78
88
88
88
78
08
70
ENDCHAR
STARTCHAR LATIN
ENCODING 288
SWIDTH 360 0
DWIDTH 6 0
BBX 5 9 0 0
BITMAP
20
00
70
88
80
98
88
88
70
ENDCHAR
STARTCHAR LATIN
ENCODING 289
SWIDTH 360 0
DWIDTH 6 0
BBX 5 9 0 -2
BITMAP
20
00
78
88
88
88
78
08
70
ENDCHAR
STARTCHAR LATIN
ENCODING 290
SWIDTH 360 0
DWIDTH 6 0
BBX 5 9 0 -2
BITMAP
70
88
80
98
88
88
70
20
40
ENDCHAR
STARTCHAR LATIN
ENCODING 291
SWIDTH 360 0
DWIDTH 6 0
BBX 5 10 0 -2
BITMAP
10
20
00
78
88
88
88
78
08
70
ENDCHAR
STARTCHAR LATIN
ENCODING 292
SWIDTH 360 0
DWIDTH 6 0
BBX 5 9 0 0
BITMAP
20
50
00
88
88
F8
88
88
88
ENDCHAR
STARTCHAR LATIN
ENCODING 293
SWIDTH 360 0
DWIDTH 6 0
BBX 5 9 0 0
BITMAP
20
50
80
80
F0
88
88
88
88
ENDCHAR
STARTCHAR LATIN
ENCODING 294
SWIDTH 360 0
DWIDTH 6 0
BBX 5 7 0 0
BITMAP
88
F8
88
F8
88
88
88
ENDCHAR
STARTCHAR LATIN
ENCODING 295
SWIDTH 360 0
DWIDTH 6 0
BBX 5 7 0 0
BITMAP
E0
80
F0
88
88
88
88
ENDCHAR
STARTCHAR LATIN
ENCODING 296
SWIDTH 360 0
DWIDTH 6 0
BBX 5 9 0 0
BITMAP
68
B0
00
70
20
20
20
20
70
ENDCHAR
STARTCHAR LATIN
ENCODING 297
SWIDTH 360 0
DWIDTH 6 0
BBX 5 8 0 0
BITMAP
68
B0
00
60
20
20
20
30
ENDCHAR
STARTCHAR LATIN
ENCODING 298
SWIDTH 360 0
DWIDTH 6 0
BBX 3 9 1 0
BITMAP
E0
00
E0
40
40
40
40
40
E0
ENDCHAR
STARTCHAR LATIN
ENCODING 299
SWIDTH 360 0
DWIDTH 6 0
BBX 3 7 1 0
BITMAP
E0
00
C0
40
40
40
60
ENDCHAR
STARTCHAR LATIN
ENCODING 300
SWIDTH 360 0
DWIDTH 6 0
BBX 5 9 0 0
BITMAP
88
70
00
70
20
20
20
20
70
ENDCHAR
STARTCHAR LATIN
ENCODING 301
SWIDTH 360 0
DWIDTH 6 0
BBX 5 8 0 0
BITMAP
88
70
00
60
20
20
20
30
ENDCHAR
STARTCHAR LATIN
ENCODING 302
SWIDTH 360 0
DWIDTH 6 0
BBX 3 9 1 -2
BITMAP
E0
40
40
40
40
40
E0
80
40
ENDCHAR
STARTCHAR LATIN
ENCODING 303
SWIDTH 360 0
DWIDTH 6 0
BBX 3 9 1 -2
BITMAP
40
00
C0
40
40
40
60
80
40
ENDCHAR
STARTCHAR LATIN
ENCODING 304
SWIDTH 360 0
DWIDTH 6 0
BBX 3 9 1 0
BITMAP
40
00
E0
40
40
40
40
40
E0
ENDCHAR
STARTCHAR LATIN
ENCODING 305
SWIDTH 360 0
DWIDTH 6 0
BBX 3 5 1 0
BITMAP
C0
40
40
40
60
ENDCHAR
STARTCHAR LATIN
ENCODING 306
SWIDTH 360 0
DWIDTH 6 0
BBX 6 7 0 0
BITMAP
E4
44
44
44
44
54
E8
ENDCHAR
STARTCHAR LATIN
ENCODING 307
SWIDTH 360 0
DWIDTH 6 0
BBX 5 9 0 -2
BITMAP
48
00
D8
48
48
48
68
08
30
ENDCHAR
STARTCHAR LATIN
ENCODING 308
SWIDTH 360 0
DWIDTH 6 0
BBX 5 9 0 0
BITMAP
20
50
00
08
08
08
88
88
70
ENDCHAR
STARTCHAR LATIN
ENCODING 309
SWIDTH 360 0
DWIDTH 6 0
BBX 4 10 0 -2
BITMAP
20
50
00
60
20
20
20
20
20
C0
ENDCHAR
STARTCHAR LATIN
ENCODING 310
SWIDTH 360 0
DWIDTH 6 0
BBX 5 9 0 -2
BITMAP
88
90
A0
C0
A0
90
88
20
40
ENDCHAR
STARTCHAR LATIN
ENCODING 311
SWIDTH 360 0
DWIDTH 6 0
BBX 5 9 0 -2
BITMAP
80
80
90
A0
E0
90
88
20
40
ENDCHAR
STARTCHAR LATIN
ENCODING 312
SWIDTH 360 0
DWIDTH 6 0
BBX 4 5 0 0
BITMAP
90
A0
C0
A0
90
ENDCHAR
STARTCHAR LATIN
ENCODING 313
SWIDTH 360 0
DWIDTH 6 0
BBX 5 9 0 0
BITMAP
10
20
80
80
80
80
80
80
F8
ENDCHAR
STARTCHAR LATIN
ENCODING 314
SWIDTH 360 0
DWIDTH 6 0
BBX 4 9 1 0
BITMAP
10
20
C0
40
40
40
40
40
60
ENDCHAR
STARTCHAR LATIN
ENCODING 315
SWIDTH 360 0
DWIDTH 6 0
BBX 5 9 0 -2
BITMAP
80
80
80
80
80
80
F8
20
40
ENDCHAR
STARTCHAR LATIN
ENCODING 316
SWIDTH 360 0
DWIDTH 6 0
BBX 3 9 1 -2
BITMAP
C0
40
40
40
40
40
60
20
40
ENDCHAR
STARTCHAR LATIN
ENCODING 317
SWIDTH 360 0
DWIDTH 6 0
BBX 5 8 0 0
BITMAP
30
90
80
80
80
80
80
F8
ENDCHAR
STARTCHAR LATIN
ENCODING 318
SWIDTH 360 0
DWIDTH 6 0
BBX 4 9 1 0
BITMAP
30
10
C0
40
40
40
40
40
60
ENDCHAR
STARTCHAR LATIN
ENCODING 319
SWIDTH 360 0
DWIDTH 6 0
BBX 5 7 0 0
BITMAP
80
80
80
A0
80
80
F8
ENDCHAR
STARTCHAR LATIN
ENCODING 320
SWIDTH 360 0
DWIDTH 6 0
BBX 4 7 1 0
BITMAP
C0
40
40
50
40
40
60
ENDCHAR
STARTCHAR LATIN
ENCODING 321
SWIDTH 360 0
DWIDTH 6 0
BBX 5 7 0 0
BITMAP
80
80
A0
C0
80
80
F8
ENDCHAR
STARTCHAR LATIN
ENCODING 322
SWIDTH 360 0
DWIDTH 6 0
BBX 3 7 1 0
BITMAP
C0
40
60
40
C0
40
60
ENDCHAR
STARTCHAR LATIN
ENCODING 323
SWIDTH 360 0
DWIDTH 6 0
BBX 5 9 0 0
BITMAP
10
20
C8
C8
A8
A8
A8
98
98
ENDCHAR
STARTCHAR LATIN
ENCODING 324
SWIDTH 360 0
DWIDTH 6 0
BBX 5 8 0 0
BITMAP
10
20
00
B0
C8
88
88
88
ENDCHAR
STARTCHAR LATIN
ENCODING 325
SWIDTH 360 0
DWIDTH 6 0
BBX 5 9 0 -2
BITMAP
C8
C8
A8
A8
A8
98
B8
20
40
ENDCHAR
STARTCHAR LATIN
ENCODING 326
SWIDTH 360 0
DWIDTH 6 0
BBX 5 7 0 -2
BITMAP
B0
C8
88
88
A8
20
40
ENDCHAR
STARTCHAR LATIN
ENCODING 327
SWIDTH 360 0
DWIDTH 6 0
BBX 5 9 0 0
BITMAP
50
20
C8
C8
A8
A8
A8
98
98
ENDCHAR
STARTCHAR LATIN
ENCODING 328
SWIDTH 360 0
DWIDTH 6 0
BBX 5 8 0 0
BITMAP
50
20
00
B0
C8
88
88
88
ENDCHAR
STARTCHAR LATIN
ENCODING 329
SWIDTH 360 0
DWIDTH 6 0
BBX 5 8 0 0
BITMAP
80
80
00
B0
C8
88
88
88
ENDCHAR
STARTCHAR LATIN
ENCODING 330
SWIDTH 360 0
DWIDTH 6 0
BBX 5 9 0 -2
BITMAP
C8
C8
A8
A8
A8
98
98
08
30
ENDCHAR
STARTCHAR LATIN
ENCODING 331
SWIDTH 360 0
DWIDTH 6 0
BBX 5 7 0 -2
BITMAP
B0
C8
88
88
88
08
30
ENDCHAR
STARTCHAR LATIN
ENCODING 332
SWIDTH 360 0
DWIDTH 6 0
BBX 5 9 0 0
BITMAP
70
00
70
88
88
88
88
88
70
ENDCHAR
STARTCHAR LATIN
ENCODING 333
SWIDTH 360 0
DWIDTH 6 0
BBX 5 7 0 0
BITMAP
F8
00
70
88
88
88
70
ENDCHAR
STARTCHAR LATIN
ENCODING 334
SWIDTH 360 0
DWIDTH 6 0
BBX 5 9 0 0
BITMAP
88
70
00
70
88
88
88
88
70
ENDCHAR
STARTCHAR LATIN
ENCODING 335
SWIDTH 360 0
DWIDTH 6 0
BBX 5 8 0 0
BITMAP
88
70
00
70
88
88
88
70
ENDCHAR
STARTCHAR LATIN
ENCODING 336
SWIDTH 360 0
DWIDTH 6 0
BBX 5 9 0 0
BITMAP
28
50
70
88
88
88
88
88
70
ENDCHAR
STARTCHAR LATIN
ENCODING 337
SWIDTH 360 0
DWIDTH 6 0
BBX 5 8 0 0
BITMAP
28
50
00
70
88
88
88
70
ENDCHAR
STARTCHAR LATIN
ENCODING 338
SWIDTH 360 0
DWIDTH 6 0
BBX 5 7 0 0
BITMAP
58
A0
A0
B0
A0
A0
58
ENDCHAR
STARTCHAR LATIN
ENCODING 339
SWIDTH 360 0
DWIDTH 6 0
BBX 5 5 0 0
BITMAP
50
A8
B8
A0
58
ENDCHAR
STARTCHAR LATIN
ENCODING 340
SWIDTH 360 0
DWIDTH 6 0
BBX 5 9 0 0
BITMAP
10
20
F0
88
88
F0
88
88
88
ENDCHAR
STARTCHAR LATIN
ENCODING 341
SWIDTH 360 0
DWIDTH 6 0
BBX 5 8 0 0
BITMAP
10
20
00
B0
C8
80
80
80
ENDCHAR
STARTCHAR LATIN
ENCODING 342
SWIDTH 360 0
DWIDTH 6 0
BBX 5 9 0 -2
BITMAP
F0
88
88
F0
88
88
A8
20
40
ENDCHAR
STARTCHAR LATIN
ENCODING 343
SWIDTH 360 0
DWIDTH 6 0
BBX 5 7 0 -2
BITMAP
B0
C8
80
80
A0
20
40
ENDCHAR
STARTCHAR LATIN
ENCODING 344
SWIDTH 360 0
DWIDTH 6 0
BBX 5 9 0 0
BITMAP
50
20
F0
88
88
F0
88
88
88
ENDCHAR
STARTCHAR LATIN
ENCODING 345
SWIDTH 360 0
DWIDTH 6 0
BBX 5 8 0 0
BITMAP
50
20
00
B0
C8
80
80
80
ENDCHAR
STARTCHAR LATIN
ENCODING 346
SWIDTH 360 0
DWIDTH 6 0
BBX 5 9 0 0
BITMAP
10
20
70
88
80
70
08
88
70
ENDCHAR
STARTCHAR LATIN
ENCODING 347
SWIDTH 360 0
DWIDTH 6 0
BBX 5 8 0 0
BITMAP
10
20
00
78
80
70
08
F0
ENDCHAR
STARTCHAR LATIN
ENCODING 348
SWIDTH 360 0
DWIDTH 6 0
BBX 5 9 0 0
BITMAP
20
50
70
88
80
70
08
88
70
ENDCHAR
STARTCHAR LATIN
ENCODING 349
SWIDTH 360 0
DWIDTH 6 0
BBX 5 8 0 0
BITMAP
20
50
00
78
80
70
08
F0
ENDCHAR
STARTCHAR LATIN
ENCODING 350
SWIDTH 360 0
DWIDTH 6 0
BBX 5 9 0 -2
BITMAP
70
88
80
70
08
88
70
20
20
ENDCHAR
STARTCHAR LATIN
ENCODING 351
SWIDTH 360 0
DWIDTH 6 0
BBX 5 7 0 -2
BITMAP
78
80
70
08
F0
20
20
ENDCHAR
STARTCHAR LATIN
ENCODING 352
SWIDTH 360 0
DWIDTH 6 0
BBX 5 9 0 0
BITMAP
50
20
70
88
80
70
08
88
70
ENDCHAR
STARTCHAR LATIN
ENCODING 353
SWIDTH 360 0
DWIDTH 6 0
BBX 5 8 0 0
BITMAP
50
20
00
78
80
70
08
F0
ENDCHAR
STARTCHAR LATIN
ENCODING 354
SWIDTH 360 0
DWIDTH 6 0
BBX 5 9 0 -2
BITMAP
F8
20
20
20
20
20
20
20
40
ENDCHAR
STARTCHAR LATIN
ENCODING 355
SWIDTH 360 0
DWIDTH 6 0
BBX 4 9 1 -2
BITMAP
40
40
E0
40
40
40
30
20
20
ENDCHAR
STARTCHAR LATIN
ENCODING 356
SWIDTH 360 0
DWIDTH 6 0
BBX 5 9 0 0
BITMAP
50
20
00
F8
20
20
20
20
20
ENDCHAR
STARTCHAR LATIN
ENCODING 357
SWIDTH 360 0
DWIDTH 6 0
BBX 5 9 1 0
BITMAP
18
08
40
40
E0
40
40
40
30
ENDCHAR
STARTCHAR LATIN
ENCODING 358
SWIDTH 360 0
DWIDTH 6 0
BBX 5 7 0 0
BITMAP
F8
20
20
70
20
20
20
ENDCHAR
STARTCHAR LATIN
ENCODING 359
SWIDTH 360 0
DWIDTH 6 0
BBX 4 7 1 0
BITMAP
40
40
E0
40
E0
40
30
ENDCHAR
STARTCHAR LATIN
ENCODING 360
SWIDTH 360 0
DWIDTH 6 0
BBX 5 9 0 0
BITMAP
68
B0
00
88
88
88
88
88
70
ENDCHAR
STARTCHAR LATIN
ENCODING 361
SWIDTH 360 0
DWIDTH 6 0
BBX 5 8 0 0
BITMAP
68
B0
00
88
88
88
98
68
ENDCHAR
STARTCHAR LATIN
ENCODING 362
SWIDTH 360 0
DWIDTH 6 0
BBX 5 9 0 0
BITMAP
70
00
88
88
88
88
88
88
70
ENDCHAR
STARTCHAR LATIN
ENCODING 363
SWIDTH 360 0
DWIDTH 6 0
BBX 5 7 0 0
BITMAP
70
00
88
88
88
98
68
ENDCHAR
STARTCHAR LATIN
ENCODING 364
SWIDTH 360 0
DWIDTH 6 0
BBX 5 9 0 0
BITMAP
88
70
00
88
88
88
88
88
70
ENDCHAR
STARTCHAR LATIN
ENCODING 365
SWIDTH 360 0
DWIDTH 6 0
BBX 5 8 0 0
BITMAP
88
70
00
88
88
88
98
68
ENDCHAR
STARTCHAR LATIN
ENCODING 366
SWIDTH 360 0
DWIDTH 6 0
BBX 5 8 0 0
BITMAP
20
50
20
88
88
88
88
70
ENDCHAR
STARTCHAR LATIN
ENCODING 367
SWIDTH 360 0
DWIDTH 6 0
BBX 5 8 0 0
BITMAP
20
50
20
88
88
88
98
68
ENDCHAR
STARTCHAR LATIN
ENCODING 368
SWIDTH 360 0
DWIDTH 6 0
BBX 5 9 0 0
BITMAP
28
50
00
88
88
88
88
88
70
ENDCHAR
STARTCHAR LATIN
ENCODING 369
SWIDTH 360 0
DWIDTH 6 0
BBX 5 8 0 0
BITMAP
28
50
00
88
88
88
98
68
ENDCHAR
STARTCHAR LATIN
ENCODING 370
SWIDTH 360 0
DWIDTH 6 0
BBX 5 9 0 -2
BITMAP
88
88
88
88
88
88
70
20
10
ENDCHAR
STARTCHAR LATIN
ENCODING 371
SWIDTH 360 0
DWIDTH 6 0
BBX 5 7 0 -2
BITMAP
88
88
88
98
68
20
10
ENDCHAR
STARTCHAR LATIN
ENCODING 372
SWIDTH 360 0
DWIDTH 6 0
BBX 5 9 0 0
BITMAP
20
50
00
88
88
88
A8
D8
88
ENDCHAR
STARTCHAR LATIN
ENCODING 373
SWIDTH 360 0
DWIDTH 6 0
BBX 5 8 0 0
BITMAP
20
50
00
88
A8
A8
A8
50
ENDCHAR
STARTCHAR LATIN
ENCODING 374
SWIDTH 360 0
DWIDTH 6 0
BBX 5 9 0 0
BITMAP
20
50
00
88
88
88
50
20
20
ENDCHAR
STARTCHAR LATIN
ENCODING 375
SWIDTH 360 0
DWIDTH 6 0
BBX 5 10 0 -2
BITMAP
20
50
00
88
88
88
88
78
08
70
ENDCHAR
STARTCHAR LATIN
ENCODING 376
SWIDTH 360 0
DWIDTH 6 0
BBX 5 9 0 0
BITMAP
50
00
88
88
88
50
20
20
20
ENDCHAR
STARTCHAR LATIN
ENCODING 377
SWIDTH 360 0
DWIDTH 6 0
BBX 5 9 0 0
BITMAP
10
20
F8
08
10
20
40
80
F8
ENDCHAR
STARTCHAR LATIN
ENCODING 378
SWIDTH 360 0
DWIDTH 6 0
BBX 5 8 0 0
BITMAP
10
20
00
F8
10
20
40
F8
ENDCHAR
STARTCHAR LATIN
ENCODING 379
SWIDTH 360 0
DWIDTH 6 0
BBX 5 9 0 0
BITMAP
20
00
F8
08
10
20
40
80
F8
ENDCHAR
STARTCHAR LATIN
ENCODING 380
SWIDTH 360 0
DWIDTH 6 0
BBX 5 7 0 0
BITMAP
20
00
F8
10
20
40
F8
ENDCHAR
STARTCHAR LATIN
ENCODING 381
SWIDTH 360 0
DWIDTH 6 0
BBX 5 9 0 0
BITMAP
50
20
F8
08
10
20
40
80
F8
ENDCHAR
STARTCHAR LATIN
ENCODING 382
SWIDTH 360 0
DWIDTH 6 0
BBX 5 8 0 0
BITMAP
50
20
00
F8
10
20
40
F8
ENDCHAR
STARTCHAR LATIN
ENCODING 383
SWIDTH 360 0
DWIDTH 6 0
BBX 4 7 1 0
BITMAP
30
40
C0
40
40
40
40
ENDCHAR
STARTCHAR LATIN
ENCODING 384
SWIDTH 360 0
DWIDTH 6 0
BBX 6 7 0 0
BITMAP
F0
40
78
44
44
44
78
ENDCHAR
STARTCHAR LATIN
ENCODING 385
SWIDTH 360 0
DWIDTH 6 0
BBX 6 7 0 0
BITMAP
F8
44
44
78
44
44
78
ENDCHAR
STARTCHAR LATIN
ENCODING 386
SWIDTH 360 0
DWIDTH 6 0
BBX 6 8 0 0
BITMAP
F8
88
80
F8
84
84
84
F8
ENDCHAR
STARTCHAR LATIN
ENCODING 387
SWIDTH 360 0
DWIDTH 6 0
BBX 5 8 0 0
BITMAP
F0
90
80
F0
88
88
88
F0
ENDCHAR
STARTCHAR LATIN
ENCODING 388
SWIDTH 360 0
DWIDTH 6 0
BBX 6 8 0 0
BITMAP
40
C0
C0
78
44
44
44
78
ENDCHAR
STARTCHAR LATIN
ENCODING 389
SWIDTH 360 0
DWIDTH 6 0
BBX 5 8 0 0
BITMAP
40
C0
C0
70
48
48
48
70
ENDCHAR
STARTCHAR LATIN
ENCODING 390
SWIDTH 360 0
DWIDTH 6 0
BBX 5 7 0 0
BITMAP
70
88
08
08
08
88
70
ENDCHAR
STARTCHAR LATIN
ENCODING 391
SWIDTH 360 0
DWIDTH 6 0
BBX 6 7 0 0
BITMAP
74
88
80
80
80
88
70
ENDCHAR
STARTCHAR LATIN
ENCODING 392
SWIDTH 360 0
DWIDTH 6 0
BBX 6 7 0 0
BITMAP
0C
10
70
88
80
80
78
ENDCHAR
STARTCHAR LATIN
ENCODING 393
SWIDTH 360 0
DWIDTH 6 0
BBX 6 7 0 0
BITMAP
78
44
44
F4
44
44
78
ENDCHAR
STARTCHAR LATIN
ENCODING 394
SWIDTH 360 0
DWIDTH 6 0
BBX 6 7 0 0
BITMAP
78
A4
24
24
24
24
38
ENDCHAR
STARTCHAR LATIN
ENCODING 395
SWIDTH 360 0
DWIDTH 6 0
BBX 6 8 0 0
BITMAP
7C
44
04
7C
84
84
84
7C
ENDCHAR
STARTCHAR LATIN
ENCODING 396
SWIDTH 360 0
DWIDTH 6 0
BBX 5 8 0 0
BITMAP
78
48
08
78
88
88
88
78
ENDCHAR
STARTCHAR LATIN
ENCODING 397
SWIDTH 360 0
DWIDTH 6 0
BBX 5 8 0 0
BITMAP
70
88
88
88
70
20
10
F8
ENDCHAR
STARTCHAR LATIN
ENCODING 398
SWIDTH 360 0
DWIDTH 6 0
BBX 5 7 0 0
BITMAP
F8
88
88
78
08
08
F8
ENDCHAR
STARTCHAR LATIN
ENCODING 399
SWIDTH 360 0
DWIDTH 6 0
BBX 5 7 0 0
BITMAP
70
88
08
F8
88
88
70
ENDCHAR
STARTCHAR LATIN
ENCODING 400
SWIDTH 360 0
DWIDTH 6 0
BBX 5 7 0 0
BITMAP
70
88
80
70
80
88
70
ENDCHAR
STARTCHAR LATIN
ENCODING 401
SWIDTH 360 0
DWIDTH 6 0
BBX 6 9 0 -2
BITMAP
7C
40
40
78
40
40
40
40
80
ENDCHAR
STARTCHAR LATIN
ENCODING 402
SWIDTH 360 0
DWIDTH 6 0
BBX 5 10 0 -1
BITMAP
18
20
20
20
70
20
20
20
20
C0
ENDCHAR
STARTCHAR LATIN
ENCODING 403
SWIDTH 360 0
DWIDTH 6 0
BBX 6 7 0 0
BITMAP
68
94
80
98
88
88
70
ENDCHAR
STARTCHAR LATIN
ENCODING 404
SWIDTH 360 0
DWIDTH 6 0
BBX 5 9 0 -2
BITMAP
88
88
88
50
50
20
50
50
20
ENDCHAR
STARTCHAR LATIN
ENCODING 405
SWIDTH 360 0
DWIDTH 6 0
BBX 5 7 0 0
BITMAP
80
80
80
C8
A8
A8
90
ENDCHAR
STARTCHAR LATIN
ENCODING 406
SWIDTH 360 0
DWIDTH 6 0
BBX 3 7 1 0
BITMAP
80
80
80
80
80
A0
40
ENDCHAR
STARTCHAR LATIN
ENCODING 407
SWIDTH 360 0
DWIDTH 6 0
BBX 3 7 1 0
BITMAP
E0
40
40
E0
40
40
E0
ENDCHAR
STARTCHAR LATIN
ENCODING 408
SWIDTH 360 0
DWIDTH 6 0
BBX 6 7 0 0
BITMAP
88
94
A0
C0
A0
90
88
ENDCHAR
STARTCHAR LATIN
ENCODING 409
SWIDTH 360 0
DWIDTH 6 0
BBX 5 8 0 0
BITMAP
60
80
80
90
A0
E0
90
88
ENDCHAR
STARTCHAR LATIN
ENCODING 410
SWIDTH 360 0
DWIDTH 6 0
BBX 3 7 1 0
BITMAP
C0
40
40
E0
40
40
60
ENDCHAR
STARTCHAR LATIN
ENCODING 411
SWIDTH 360 0
DWIDTH 6 0
BBX 5 8 0 0
BITMAP
40
40
E0
20
50
50
88
88
ENDCHAR
STARTCHAR LATIN
ENCODING 412
SWIDTH 360 0
DWIDTH 6 0
BBX 5 5 0 0
BITMAP
A8
A8
A8
A8
78
ENDCHAR
STARTCHAR LATIN
ENCODING 413
SWIDTH 360 0
DWIDTH 6 0
BBX 6 8 0 -1
BITMAP
64
64
54
54
54
4C
4C
80
ENDCHAR
STARTCHAR LATIN
ENCODING 414
SWIDTH 360 0
DWIDTH 6 0
BBX 5 7 0 -2
BITMAP
B0
C8
88
88
88
08
10
ENDCHAR
STARTCHAR LATIN
ENCODING 415
SWIDTH 360 0
DWIDTH 6 0
BBX 5 5 0 1
BITMAP
70
88
F8
88
70
ENDCHAR
STARTCHAR LATIN
ENCODING 416
SWIDTH 360 0
DWIDTH 6 0
BBX 6 9 0 0
BITMAP
04
04
74
88
88
88
88
88
70
ENDCHAR
STARTCHAR LATIN
ENCODING 417
SWIDTH 360 0
DWIDTH 6 0
BBX 5 7 0 0
BITMAP
08
08
70
88
88
88
70
ENDCHAR
STARTCHAR LATIN
ENCODING 418
SWIDTH 360 0
DWIDTH 6 0
BBX 6 7 0 0
BITMAP
68
94
94
94
94
94
64
ENDCHAR
STARTCHAR LATIN
ENCODING 419
SWIDTH 360 0
DWIDTH 6 0
BBX 6 5 0 0
BITMAP
68
94
94
94
64
ENDCHAR
STARTCHAR LATIN
ENCODING 420
SWIDTH 360 0
DWIDTH 6 0
BBX 6 7 0 0
BITMAP
78
A4
24
38
20
20
20
ENDCHAR
STARTCHAR LATIN
ENCODING 421
SWIDTH 360 0
DWIDTH 6 0
BBX 6 9 0 -2
BITMAP
08
14
F0
88
88
88
F0
80
80
ENDCHAR
STARTCHAR LATIN
ENCODING 422
SWIDTH 360 0
DWIDTH 6 0
BBX 5 9 0 -1
BITMAP
80
80
F0
88
88
F0
A0
90
08
ENDCHAR
STARTCHAR LATIN
ENCODING 423
SWIDTH 360 0
DWIDTH 6 0
BBX 5 7 0 0
BITMAP
70
88
08
70
80
88
70
ENDCHAR
STARTCHAR LATIN
ENCODING 424
SWIDTH 360 0
DWIDTH 6 0
BBX 5 5 0 0
BITMAP
F0
08
70
80
78
ENDCHAR
STARTCHAR LATIN
ENCODING 425
SWIDTH 360 0
DWIDTH 6 0
BBX 5 7 0 0
BITMAP
F8
80
40
20
40
80
F8
ENDCHAR
STARTCHAR LATIN
ENCODING 426
SWIDTH 360 0
DWIDTH 6 0
BBX 5 9 0 -1
BITMAP
40
A0
60
20
20
20
20
20
18
ENDCHAR
STARTCHAR LATIN
ENCODING 427
SWIDTH 360 0
DWIDTH 6 0
BBX 5 9 0 -2
BITMAP
40
40
F0
40
40
40
30
08
30
ENDCHAR
STARTCHAR LATIN
ENCODING 428
SWIDTH 360 0
DWIDTH 6 0
BBX 5 7 0 0
BITMAP
F8
28
20
20
20
20
20
ENDCHAR
STARTCHAR LATIN
ENCODING 429
SWIDTH 360 0
DWIDTH 6 0
BBX 4 8 1 0
BITMAP
30
40
40
F0
40
40
40
30
ENDCHAR
STARTCHAR LATIN
ENCODING 430
SWIDTH 360 0
DWIDTH 6 0
BBX 5 7 0 0
BITMAP
F8
A8
20
20
20
20
20
ENDCHAR
STARTCHAR LATIN
ENCODING 431
SWIDTH 360 0
DWIDTH 6 0
BBX 6 9 0 0
BITMAP
04
04
88
88
88
88
88
88
70
ENDCHAR
STARTCHAR LATIN
ENCODING 432
SWIDTH 360 0
DWIDTH 6 0
BBX 6 7 0 0
BITMAP
04
04
88
88
88
98
68
ENDCHAR
STARTCHAR LATIN
ENCODING 433
SWIDTH 360 0
DWIDTH 6 0
BBX 5 7 0 0
BITMAP
D8
50
88
88
88
88
70
ENDCHAR
STARTCHAR LATIN
ENCODING 434
SWIDTH 360 0
DWIDTH 6 0
BBX 5 7 0 0
BITMAP
90
88
88
88
88
88
70
ENDCHAR
STARTCHAR LATIN
ENCODING 435
SWIDTH 360 0
DWIDTH 6 0
BBX 6 8 0 0
BITMAP
04
88
88
88
50
20
20
20
ENDCHAR
STARTCHAR LATIN
ENCODING 436
SWIDTH 360 0
DWIDTH 6 0
BBX 6 8 0 -2
BITMAP
04
88
88
88
88
78
08
70
ENDCHAR
STARTCHAR LATIN
ENCODING 437
SWIDTH 360 0
DWIDTH 6 0
BBX 5 7 0 0
BITMAP
F8
08
10
F8
40
80
F8
ENDCHAR
STARTCHAR LATIN
ENCODING 438
SWIDTH 360 0
DWIDTH 6 0
BBX 5 5 0 0
BITMAP
F8
10
F8
40
F8
ENDCHAR
STARTCHAR LATIN
ENCODING 439
SWIDTH 360 0
DWIDTH 6 0
BBX 5 7 0 0
BITMAP
F8
10
20
10
08
88
70
ENDCHAR
STARTCHAR LATIN
ENCODING 440
SWIDTH 360 0
DWIDTH 6 0
BBX 5 7 0 0
BITMAP
F8
40
20
40
80
88
70
ENDCHAR
STARTCHAR LATIN
ENCODING 441
SWIDTH 360 0
DWIDTH 6 0
BBX 5 7 0 -2
BITMAP
F8
40
20
40
80
88
70
ENDCHAR
STARTCHAR LATIN
ENCODING 442
SWIDTH 360 0
DWIDTH 6 0
BBX 6 8 0 -3
BITMAP
F8
10
20
10
08
70
84
78
ENDCHAR
STARTCHAR LATIN
ENCODING 443
SWIDTH 360 0
DWIDTH 6 0
BBX 5 7 0 0
BITMAP
70
88
08
F8
20
40
F8
ENDCHAR
STARTCHAR LATIN
ENCODING 444
SWIDTH 360 0
DWIDTH 6 0
BBX 5 7 0 0
BITMAP
F8
40
70
08
08
88
70
ENDCHAR
STARTCHAR LATIN
ENCODING 445
SWIDTH 360 0
DWIDTH 6 0
BBX 5 6 0 0
BITMAP
F8
40
70
08
88
70
ENDCHAR
STARTCHAR LATIN
ENCODING 446
SWIDTH 360 0
DWIDTH 6 0
BBX 5 7 0 1
BITMAP
20
70
20
10
08
88
70
ENDCHAR
STARTCHAR LATIN
ENCODING 447
SWIDTH 360 0
DWIDTH 6 0
BBX 4 7 0 0
BITMAP
A0
D0
90
A0
C0
80
80
ENDCHAR
STARTCHAR LATIN
ENCODING 448
SWIDTH 360 0
DWIDTH 6 0
BBX 1 10 2 -2
BITMAP
80
80
80
80
80
80
80
80
80
80
ENDCHAR
STARTCHAR LATIN
ENCODING 449
SWIDTH 360 0
DWIDTH 6 0
BBX 3 10 0 -2
BITMAP
A0
A0
A0
A0
A0
A0
A0
A0
A0
A0
ENDCHAR
STARTCHAR LATIN
ENCODING 450
SWIDTH 360 0
DWIDTH 6 0
BBX 5 10 0 -2
BITMAP
20
20
20
F8
20
20
F8
20
20
20
ENDCHAR
STARTCHAR LATIN
ENCODING 451
SWIDTH 360 0
DWIDTH 6 0
BBX 1 7 2 0
BITMAP
80
80
80
80
80
00
80
ENDCHAR
STARTCHAR LATIN
ENCODING 452
SWIDTH 360 0
DWIDTH 6 0
BBX 6 9 0 0
BITMAP
14
08
C0
BC
A4
A8
A8
B0
DC
ENDCHAR
STARTCHAR LATIN
ENCODING 453
SWIDTH 360 0
DWIDTH 6 0
BBX 6 8 0 0
BITMAP
14
C8
A0
BC
A4
A8
B0
DC
ENDCHAR
STARTCHAR LATIN
ENCODING 454
SWIDTH 360 0
DWIDTH 6 0
BBX 6 9 0 0
BITMAP
20
34
28
20
7C
A4
A8
B0
7C
ENDCHAR
STARTCHAR LATIN
ENCODING 455
SWIDTH 360 0
DWIDTH 6 0
BBX 5 7 0 0
BITMAP
88
88
88
88
88
A8
D0
ENDCHAR
STARTCHAR LATIN
ENCODING 456
SWIDTH 360 0
DWIDTH 6 0
BBX 5 9 0 -2
BITMAP
88
80
98
88
88
88
E8
08
30
ENDCHAR
STARTCHAR LATIN
ENCODING 457
SWIDTH 360 0
DWIDTH 6 0
BBX 5 9 0 -2
BITMAP
C8
40
58
48
48
48
68
08
30
ENDCHAR
STARTCHAR LATIN
ENCODING 458
SWIDTH 360 0
DWIDTH 6 0
BBX 5 7 0 0
BITMAP
A8
A8
E8
E8
E8
A8
B0
ENDCHAR
STARTCHAR LATIN
ENCODING 459
SWIDTH 360 0
DWIDTH 6 0
BBX 5 9 0 -2
BITMAP
A8
A0
F8
E8
E8
A8
A8
08
30
ENDCHAR
STARTCHAR LATIN
ENCODING 460
SWIDTH 360 0
DWIDTH 6 0
BBX 5 9 0 -2
BITMAP
08
00
D8
A8
A8
A8
A8
08
30
ENDCHAR
STARTCHAR LATIN
ENCODING 461
SWIDTH 360 0
DWIDTH 6 0
BBX 5 9 0 0
BITMAP
50
20
70
88
88
F8
88
88
88
ENDCHAR
STARTCHAR LATIN
ENCODING 462
SWIDTH 360 0
DWIDTH 6 0
BBX 5 8 0 0
BITMAP
50
20
00
70
08
78
88
78
ENDCHAR
STARTCHAR LATIN
ENCODING 463
SWIDTH 360 0
DWIDTH 6 0
BBX 3 9 1 0
BITMAP
A0
40
00
E0
40
40
40
40
E0
ENDCHAR
STARTCHAR LATIN
ENCODING 464
SWIDTH 360 0
DWIDTH 6 0
BBX 3 8 1 0
BITMAP
A0
40
00
C0
40
40
40
60
ENDCHAR
STARTCHAR LATIN
ENCODING 465
SWIDTH 360 0
DWIDTH 6 0
BBX 5 9 0 0
BITMAP
50
20
70
88
88
88
88
88
70
ENDCHAR
STARTCHAR LATIN
ENCODING 466
SWIDTH 360 0
DWIDTH 6 0
BBX 5 8 0 0
BITMAP
50
20
00
70
88
88
88
70
ENDCHAR
STARTCHAR LATIN
ENCODING 467
SWIDTH 360 0
DWIDTH 6 0
BBX 5 9 0 0
BITMAP
50
20
88
88
88
88
88
88
70
ENDCHAR
STARTCHAR LATIN
ENCODING 468
SWIDTH 360 0
DWIDTH 6 0
BBX 5 8 0 0
BITMAP
50
20
00
88
88
88
98
68
ENDCHAR
STARTCHAR LATIN
ENCODING 469
SWIDTH 360 0
DWIDTH 6 0
BBX 5 9 0 0
BITMAP
70
00
50
88
88
88
88
88
70
ENDCHAR
STARTCHAR LATIN
ENCODING 470
SWIDTH 360 0
DWIDTH 6 0
BBX 5 9 0 0
BITMAP
70
00
50
00
88
88
88
98
68
ENDCHAR
STARTCHAR LATIN
ENCODING 471
SWIDTH 360 0
DWIDTH 6 0
BBX 5 9 0 0
BITMAP
10
20
D8
88
88
88
88
88
70
ENDCHAR
STARTCHAR LATIN
ENCODING 472
SWIDTH 360 0
DWIDTH 6 0
BBX 5 9 0 0
BITMAP
10
20
50
00
88
88
88
98
68
ENDCHAR
STARTCHAR LATIN
ENCODING 473
SWIDTH 360 0
DWIDTH 6 0
BBX 5 9 0 0
BITMAP
50
20
D8
88
88
88
88
88
70
ENDCHAR
STARTCHAR LATIN
ENCODING 474
SWIDTH 360 0
DWIDTH 6 0
BBX 5 9 0 0
BITMAP
50
20
50
00
88
88
88
98
68
ENDCHAR
STARTCHAR LATIN
ENCODING 475
SWIDTH 360 0
DWIDTH 6 0
BBX 5 9 0 0
BITMAP
40
20
D8
88
88
88
88
88
70
ENDCHAR
STARTCHAR LATIN
ENCODING 476
SWIDTH 360 0
DWIDTH 6 0
BBX 5 9 0 0
BITMAP
40
20
50
00
88
88
88
98
68
ENDCHAR
STARTCHAR LATIN
ENCODING 477
SWIDTH 360 0
DWIDTH 6 0
BBX 5 5 0 0
BITMAP
F0
08
F8
88
70
ENDCHAR
STARTCHAR LATIN
ENCODING 478
SWIDTH 360 0
DWIDTH 6 0
BBX 5 9 0 0
BITMAP
70
00
50
00
70
88
F8
88
88
ENDCHAR
STARTCHAR LATIN
ENCODING 479
SWIDTH 360 0
DWIDTH 6 0
BBX 5 9 0 0
BITMAP
70
00
50
00
70
08
78
88
78
ENDCHAR
STARTCHAR LATIN
ENCODING 480
SWIDTH 360 0
DWIDTH 6 0
BBX 5 9 0 0
BITMAP
70
00
20
00
70
88
F8
88
88
ENDCHAR
STARTCHAR LATIN
ENCODING 481
SWIDTH 360 0
DWIDTH 6 0
BBX 5 9 0 0
BITMAP
70
00
20
00
70
08
78
88
78
ENDCHAR
STARTCHAR LATIN
ENCODING 482
SWIDTH 360 0
DWIDTH 6 0
BBX 5 9 0 0
BITMAP
70
00
78
A0
A0
F0
A0
A0
B8
ENDCHAR
STARTCHAR LATIN
ENCODING 483
SWIDTH 360 0
DWIDTH 6 0
BBX 5 7 0 0
BITMAP
70
00
70
A8
B8
A0
78
ENDCHAR
STARTCHAR LATIN
ENCODING 484
SWIDTH 360 0
DWIDTH 6 0
BBX 5 7 0 0
BITMAP
70
88
80
98
98
88
70
ENDCHAR
STARTCHAR LATIN
ENCODING 485
SWIDTH 360 0
DWIDTH 6 0
BBX 5 7 0 -2
BITMAP
78
88
88
88
78
F8
70
ENDCHAR
STARTCHAR LATIN
ENCODING 486
SWIDTH 360 0
DWIDTH 6 0
BBX 5 9 0 0
BITMAP
50
20
00
70
88
80
98
88
70
ENDCHAR
STARTCHAR LATIN
ENCODING 487
SWIDTH 360 0
DWIDTH 6 0
BBX 5 11 0 -2
BITMAP
50
20
00
00
78
88
88
88
78
08
70
ENDCHAR
STARTCHAR LATIN
ENCODING 488
SWIDTH 360 0
DWIDTH 6 0
BBX 5 7 0 0
BITMAP
88
90
A0
C0
A0
90
88
ENDCHAR
STARTCHAR LATIN
ENCODING 489
SWIDTH 360 0
DWIDTH 6 0
BBX 5 7 0 0
BITMAP
80
80
90
A0
E0
90
88
ENDCHAR
STARTCHAR LATIN
ENCODING 490
SWIDTH 360 0
DWIDTH 6 0
BBX 5 9 0 -2
BITMAP
70
88
88
88
88
88
70
40
30
ENDCHAR
STARTCHAR LATIN
ENCODING 491
SWIDTH 360 0
DWIDTH 6 0
BBX 5 7 0 -2
BITMAP
70
88
88
88
70
40
30
ENDCHAR
STARTCHAR LATIN
ENCODING 492
SWIDTH 360 0
DWIDTH 6 0
BBX 5 11 0 -2
BITMAP
50
20
00
70
88
88
88
88
70
40
30
ENDCHAR
STARTCHAR LATIN
ENCODING 493
SWIDTH 360 0
DWIDTH 6 0
BBX 5 10 0 -2
BITMAP
50
20
00
70
88
88
88
70
40
30
ENDCHAR
STARTCHAR LATIN
ENCODING 494
SWIDTH 360 0
DWIDTH 6 0
BBX 5 9 0 0
BITMAP
50
20
00
F8
10
20
10
88
70
ENDCHAR
STARTCHAR LATIN
ENCODING 495
SWIDTH 360 0
DWIDTH 6 0
BBX 5 9 0 -2
BITMAP
50
20
00
F8
10
20
10
88
70
ENDCHAR
STARTCHAR LATIN
ENCODING 496
SWIDTH 360 0
DWIDTH 6 0
BBX 4 10 0 -2
BITMAP
50
20
00
60
20
20
20
20
20
C0
ENDCHAR
STARTCHAR LATIN
ENCODING 497
SWIDTH 360 0
DWIDTH 6 0
BBX 6 7 0 0
BITMAP
DC
A4
A8
A8
A8
B0
DC
ENDCHAR
STARTCHAR LATIN
ENCODING 498
SWIDTH 360 0
DWIDTH 6 0
BBX 6 7 0 0
BITMAP
C0
A0
BC
A4
A8
B0
DC
ENDCHAR
STARTCHAR LATIN
ENCODING 499
SWIDTH 360 0
DWIDTH 6 0
BBX 6 7 0 0
BITMAP
20
20
7C
A4
A8
B0
7C
ENDCHAR
STARTCHAR LATIN
ENCODING 500
SWIDTH 360 0
DWIDTH 6 0
BBX 5 9 0 0
BITMAP
50
20
00
70
88
80
98
88
70
ENDCHAR
STARTCHAR LATIN
ENCODING 501
SWIDTH 360 0
DWIDTH 6 0
BBX 5 10 0 -2
BITMAP
50
20
00
78
88
88
88
78
08
70
ENDCHAR
STARTCHAR LATIN
ENCODING 502
SWIDTH 360 0
DWIDTH 6 0
BBX 5 7 0 0
BITMAP
A0
A0
A8
E8
A8
A8
90
ENDCHAR
STARTCHAR LATIN
ENCODING 503
SWIDTH 360 0
DWIDTH 6 0
BBX 5 7 0 0
BITMAP
B0
C8
88
90
A0
C0
80
ENDCHAR
STARTCHAR LATIN
ENCODING 504
SWIDTH 360 0
DWIDTH 6 0
BBX 5 9 0 0
BITMAP
40
20
C8
C8
A8
A8
A8
98
98
ENDCHAR
STARTCHAR LATIN
ENCODING 505
SWIDTH 360 0
DWIDTH 6 0
BBX 5 8 0 0
BITMAP
40
20
00
B0
C8
88
88
88
ENDCHAR
STARTCHAR LATIN
ENCODING 506
SWIDTH 360 0
DWIDTH 6 0
BBX 5 9 0 0
BITMAP
10
20
50
20
70
88
F8
88
88
ENDCHAR
STARTCHAR LATIN
ENCODING 507
SWIDTH 360 0
DWIDTH 6 0
BBX 5 9 0 0
BITMAP
10
20
50
20
70
08
78
88
78
ENDCHAR
STARTCHAR LATIN
ENCODING 508
SWIDTH 360 0
DWIDTH 6 0
BBX 5 9 0 0
BITMAP
10
20
78
A0
A0
F0
A0
A0
B8
ENDCHAR
STARTCHAR LATIN
ENCODING 509
SWIDTH 360 0
DWIDTH 6 0
BBX 5 8 0 0
BITMAP
10
20
00
70
A8
B8
A0
78
ENDCHAR
STARTCHAR LATIN
ENCODING 510
SWIDTH 360 0
DWIDTH 6 0
BBX 5 10 0 -1
BITMAP
10
28
70
98
A8
A8
A8
C8
70
80
ENDCHAR
STARTCHAR LATIN
ENCODING 511
SWIDTH 360 0
DWIDTH 6 0
BBX 5 8 0 0
BITMAP
10
20
00
78
98
A8
C8
F0
ENDCHAR
STARTCHAR LATIN
ENCODING 512
SWIDTH 360 0
DWIDTH 6 0
BBX 5 9 0 0
BITMAP
A0
50
00
70
88
88
F8
88
88
ENDCHAR
STARTCHAR LATIN
ENCODING 513
SWIDTH 360 0
DWIDTH 6 0
BBX 5 8 0 0
BITMAP
A0
50
00
70
08
78
88
78
ENDCHAR
STARTCHAR LATIN
ENCODING 514
SWIDTH 360 0
DWIDTH 6 0
BBX 5 9 0 0
BITMAP
70
88
70
88
88
F8
88
88
88
ENDCHAR
STARTCHAR LATIN
ENCODING 515
SWIDTH 360 0
DWIDTH 6 0
BBX 5 8 0 0
BITMAP
70
88
00
70
08
78
88
78
ENDCHAR
STARTCHAR LATIN
ENCODING 516
SWIDTH 360 0
DWIDTH 6 0
BBX 5 9 0 0
BITMAP
A0
50
F8
80
80
F0
80
80
F8
ENDCHAR
STARTCHAR LATIN
ENCODING 517
SWIDTH 360 0
DWIDTH 6 0
BBX 5 8 0 0
BITMAP
A0
50
00
70
88
F8
80
78
ENDCHAR
STARTCHAR LATIN
ENCODING 518
SWIDTH 360 0
DWIDTH 6 0
BBX 5 9 0 0
BITMAP
70
88
F8
80
80
F0
80
80
F8
ENDCHAR
STARTCHAR LATIN
ENCODING 519
SWIDTH 360 0
DWIDTH 6 0
BBX 5 8 0 0
BITMAP
70
88
00
70
88
F8
80
78
ENDCHAR
STARTCHAR LATIN
ENCODING 520
SWIDTH 360 0
DWIDTH 6 0
BBX 4 9 0 0
BITMAP
A0
50
00
70
20
20
20
20
70
ENDCHAR
STARTCHAR LATIN
ENCODING 521
SWIDTH 360 0
DWIDTH 6 0
BBX 4 8 0 0
BITMAP
A0
50
00
60
20
20
20
30
ENDCHAR
STARTCHAR LATIN
ENCODING 522
SWIDTH 360 0
DWIDTH 6 0
BBX 5 9 0 0
BITMAP
70
88
00
70
20
20
20
20
70
ENDCHAR
STARTCHAR LATIN
ENCODING 523
SWIDTH 360 0
DWIDTH 6 0
BBX 5 8 0 0
BITMAP
70
88
00
60
20
20
20
30
ENDCHAR
STARTCHAR LATIN
ENCODING 524
SWIDTH 360 0
DWIDTH 6 0
BBX 5 9 0 0
BITMAP
A0
50
00
70
88
88
88
88
70
ENDCHAR
STARTCHAR LATIN
ENCODING 525
SWIDTH 360 0
DWIDTH 6 0
BBX 5 8 0 0
BITMAP
A0
50
00
70
88
88
88
70
ENDCHAR
STARTCHAR LATIN
ENCODING 526
SWIDTH 360 0
DWIDTH 6 0
BBX 5 9 0 0
BITMAP
70
88
70
88
88
88
88
88
70
ENDCHAR
STARTCHAR LATIN
ENCODING 527
SWIDTH 360 0
DWIDTH 6 0
BBX 5 8 0 0
BITMAP
70
88
00
70
88
88
88
70
ENDCHAR
STARTCHAR LATIN
ENCODING 528
SWIDTH 360 0
DWIDTH 6 0
BBX 5 9 0 0
BITMAP
A0
50
00
F0
88
88
F0
88
88
ENDCHAR
STARTCHAR LATIN
ENCODING 529
SWIDTH 360 0
DWIDTH 6 0
BBX 5 8 0 0
BITMAP
A0
50
00
B0
C8
80
80
80
ENDCHAR
STARTCHAR LATIN
ENCODING 530
SWIDTH 360 0
DWIDTH 6 0
BBX 5 9 0 0
BITMAP
70
88
00
F0
88
88
F0
88
88
ENDCHAR
STARTCHAR LATIN
ENCODING 531
SWIDTH 360 0
DWIDTH 6 0
BBX 5 8 0 0
BITMAP
70
88
00
B0
C8
80
80
80
ENDCHAR
STARTCHAR LATIN
ENCODING 532
SWIDTH 360 0
DWIDTH 6 0
BBX 5 9 0 0
BITMAP
A0
50
00
88
88
88
88
88
70
ENDCHAR
STARTCHAR LATIN
ENCODING 533
SWIDTH 360 0
DWIDTH 6 0
BBX 5 8 0 0
BITMAP
A0
50
00
88
88
88
98
68
ENDCHAR
STARTCHAR LATIN
ENCODING 534
SWIDTH 360 0
DWIDTH 6 0
BBX 5 9 0 0
BITMAP
70
88
00
88
88
88
88
88
70
ENDCHAR
STARTCHAR LATIN
ENCODING 535
SWIDTH 360 0
DWIDTH 6 0
BBX 5 8 0 0
BITMAP
70
88
00
88
88
88
98
68
ENDCHAR
STARTCHAR LATIN
ENCODING 536
SWIDTH 360 0
DWIDTH 6 0
BBX 5 9 0 -2
BITMAP
70
88
80
70
08
88
70
20
40
ENDCHAR
STARTCHAR LATIN
ENCODING 537
SWIDTH 360 0
DWIDTH 6 0
BBX 5 7 0 -2
BITMAP
78
80
70
08
F0
20
40
ENDCHAR
STARTCHAR LATIN
ENCODING 538
SWIDTH 360 0
DWIDTH 6 0
BBX 5 9 0 -2
BITMAP
F8
20
20
20
20
20
20
20
40
ENDCHAR
STARTCHAR LATIN
ENCODING 539
SWIDTH 360 0
DWIDTH 6 0
BBX 4 9 1 -2
BITMAP
40
40
F0
40
40
40
30
40
80
ENDCHAR
STARTCHAR LATIN
ENCODING 540
SWIDTH 360 0
DWIDTH 6 0
BBX 5 8 0 -1
BITMAP
70
88
08
30
C8
08
30
C0
ENDCHAR
STARTCHAR LATIN
ENCODING 541
SWIDTH 360 0
DWIDTH 6 0
BBX 5 6 0 0
BITMAP
70
88
30
C8
10
E0
ENDCHAR
STARTCHAR LATIN
ENCODING 542
SWIDTH 360 0
DWIDTH 6 0
BBX 5 9 0 0
BITMAP
50
20
88
88
88
F8
88
88
88
ENDCHAR
STARTCHAR LATIN
ENCODING 543
SWIDTH 360 0
DWIDTH 6 0
BBX 5 9 0 0
BITMAP
50
20
80
80
F0
88
88
88
88
ENDCHAR
STARTCHAR LATIN
ENCODING 544
SWIDTH 360 0
DWIDTH 6 0
BBX 5 9 0 -2
BITMAP
80
B0
C8
88
88
88
88
08
08
ENDCHAR
STARTCHAR LATIN
ENCODING 545
SWIDTH 360 0
DWIDTH 6 0
BBX 6 8 0 -1
BITMAP
10
10
70
90
90
98
74
28
ENDCHAR
STARTCHAR LATIN
ENCODING 546
SWIDTH 360 0
DWIDTH 6 0
BBX 5 8 0 0
BITMAP
30
08
48
88
70
88
88
70
ENDCHAR
STARTCHAR LATIN
ENCODING 547
SWIDTH 360 0
DWIDTH 6 0
BBX 5 7 0 0
BITMAP
50
88
88
70
88
88
70
ENDCHAR
STARTCHAR LATIN
ENCODING 548
SWIDTH 360 0
DWIDTH 6 0
BBX 6 8 0 -1
BITMAP
F8
08
10
20
40
80
F8
04
ENDCHAR
STARTCHAR LATIN
ENCODING 549
SWIDTH 360 0
DWIDTH 6 0
BBX 6 6 0 -1
BITMAP
F8
10
20
40
F8
04
ENDCHAR
STARTCHAR LATIN
ENCODING 550
SWIDTH 360 0
DWIDTH 6 0
BBX 5 9 0 0
BITMAP
20
00
70
88
88
F8
88
88
88
ENDCHAR
STARTCHAR LATIN
ENCODING 551
SWIDTH 360 0
DWIDTH 6 0
BBX 5 7 0 0
BITMAP
20
00
70
08
78
88
78
ENDCHAR
STARTCHAR LATIN
ENCODING 552
SWIDTH 360 0
DWIDTH 6 0
BBX 5 9 0 -2
BITMAP
F8
80
80
F0
80
80
F8
20
40
ENDCHAR
STARTCHAR LATIN
ENCODING 553
SWIDTH 360 0
DWIDTH 6 0
BBX 5 7 0 -2
BITMAP
70
88
F8
80
70
20
40
ENDCHAR
STARTCHAR LATIN
ENCODING 554
SWIDTH 360 0
DWIDTH 6 0
BBX 5 9 0 0
BITMAP
70
00
50
70
88
88
88
88
70
ENDCHAR
STARTCHAR LATIN
ENCODING 555
SWIDTH 360 0
DWIDTH 6 0
BBX 5 9 0 0
BITMAP
70
00
50
00
70
88
88
88
70
ENDCHAR
STARTCHAR LATIN
ENCODING 556
SWIDTH 360 0
DWIDTH 6 0
BBX 5 9 0 0
BITMAP
70
68
B0
70
88
88
88
88
70
ENDCHAR
STARTCHAR LATIN
ENCODING 557
SWIDTH 360 0
DWIDTH 6 0
BBX 5 9 0 0
BITMAP
70
00
68
B0
70
88
88
88
70
ENDCHAR
STARTCHAR LATIN
ENCODING 558
SWIDTH 360 0
DWIDTH 6 0
BBX 5 9 0 0
BITMAP
20
00
70
88
88
88
88
88
70
ENDCHAR
STARTCHAR LATIN
ENCODING 559
SWIDTH 360 0
DWIDTH 6 0
BBX 5 7 0 0
BITMAP
20
00
70
88
88
88
70
ENDCHAR
STARTCHAR LATIN
ENCODING 560
SWIDTH 360 0
DWIDTH 6 0
BBX 5 9 0 0
BITMAP
70
00
20
70
88
88
88
88
70
ENDCHAR
STARTCHAR LATIN
ENCODING 561
SWIDTH 360 0
DWIDTH 6 0
BBX 5 9 0 0
BITMAP
70
00
20
00
70
88
88
88
70
ENDCHAR
STARTCHAR LATIN
ENCODING 562
SWIDTH 360 0
DWIDTH 6 0
BBX 5 9 0 0
BITMAP
70
00
88
88
88
50
20
20
20
ENDCHAR
STARTCHAR LATIN
ENCODING 563
SWIDTH 360 0
DWIDTH 6 0
BBX 5 9 0 -2
BITMAP
70
00
88
88
88
88
78
08
70
ENDCHAR
STARTCHAR LATIN
ENCODING 564
SWIDTH 360 0
DWIDTH 6 0
BBX 4 7 1 0
BITMAP
C0
40
40
40
60
D0
60
ENDCHAR
STARTCHAR LATIN
ENCODING 565
SWIDTH 360 0
DWIDTH 6 0
BBX 6 6 0 -1
BITMAP
B0
C8
88
98
B4
08
ENDCHAR
STARTCHAR LATIN
ENCODING 566
SWIDTH 360 0
DWIDTH 6 0
BBX 5 7 1 0
BITMAP
C0
40
F0
40
50
68
70
ENDCHAR
STARTCHAR LATIN
ENCODING 567
SWIDTH 360 0
DWIDTH 6 0
BBX 3 7 0 -2
BITMAP
60
20
20
20
20
20
C0
ENDCHAR
STARTCHAR LATIN
ENCODING 568
SWIDTH 360 0
DWIDTH 6 0
BBX 5 7 0 0
BITMAP
20
20
70
A8
A8
A8
70
ENDCHAR
STARTCHAR LATIN
ENCODING 569
SWIDTH 360 0
DWIDTH 6 0
BBX 5 7 0 -2
BITMAP
70
A8
A8
A8
70
20
20
ENDCHAR
STARTCHAR LATIN
ENCODING 570
SWIDTH 360 0
DWIDTH 6 0
BBX 5 8 0 0
BITMAP
10
70
A8
A8
F8
C8
C8
88
ENDCHAR
STARTCHAR LATIN
ENCODING 571
SWIDTH 360 0
DWIDTH 6 0
BBX 5 10 0 -1
BITMAP
08
08
70
98
A0
A0
C0
C8
F0
80
ENDCHAR
STARTCHAR LATIN
ENCODING 572
SWIDTH 360 0
DWIDTH 6 0
BBX 5 10 0 -2
BITMAP
08
08
10
70
A8
A0
C0
78
80
80
ENDCHAR
STARTCHAR LATIN
ENCODING 573
SWIDTH 360 0
DWIDTH 6 0
BBX 6 7 0 0
BITMAP
40
40
40
F0
40
40
7C
ENDCHAR
STARTCHAR LATIN
ENCODING 574
SWIDTH 360 0
DWIDTH 6 0
BBX 5 8 0 0
BITMAP
08
F8
30
30
60
60
A0
A0
ENDCHAR
STARTCHAR LATIN
ENCODING 575
SWIDTH 360 0
DWIDTH 6 0
BBX 6 7 0 -2
BITMAP
78
80
70
08
F0
64
18
ENDCHAR
STARTCHAR LATIN
ENCODING 576
SWIDTH 360 0
DWIDTH 6 0
BBX 5 7 0 -2
BITMAP
F8
10
20
40
F8
40
30
ENDCHAR
STARTCHAR LATIN
ENCODING 577
SWIDTH 360 0
DWIDTH 6 0
BBX 5 7 0 1
BITMAP
70
88
08
10
20
20
20
ENDCHAR
STARTCHAR LATIN
ENCODING 578
SWIDTH 360 0
DWIDTH 6 0
BBX 5 6 0 1
BITMAP
70
88
08
10
20
20
ENDCHAR
STARTCHAR LATIN
ENCODING 579
SWIDTH 360 0
DWIDTH 6 0
BBX 6 7 0 0
BITMAP
78
44
44
78
F4
44
78
ENDCHAR
STARTCHAR LATIN
ENCODING 580
SWIDTH 360 0
DWIDTH 6 0
BBX 5 7 0 0
BITMAP
88
88
88
F8
88
88
70
ENDCHAR
STARTCHAR LATIN
ENCODING 581
SWIDTH 360 0
DWIDTH 6 0
BBX 5 7 0 0
BITMAP
20
20
50
50
88
88
88
ENDCHAR
STARTCHAR LATIN
ENCODING 582
SWIDTH 360 0
DWIDTH 6 0
BBX 5 10 0 -2
BITMAP
08
F8
90
90
F0
A0
C0
F8
80
80
ENDCHAR
STARTCHAR LATIN
ENCODING 583
SWIDTH 360 0
DWIDTH 6 0
BBX 5 10 0 -2
BITMAP
08
08
10
70
A8
F8
C0
70
80
80
ENDCHAR
STARTCHAR LATIN
ENCODING 584
SWIDTH 360 0
DWIDTH 6 0
BBX 6 7 0 0
BITMAP
08
08
08
1C
08
88
70
ENDCHAR
STARTCHAR LATIN
ENCODING 585
SWIDTH 360 0
DWIDTH 6 0
BBX 4 9 0 -2
BITMAP
20
00
60
20
70
20
20
20
C0
ENDCHAR
STARTCHAR LATIN
ENCODING 586
SWIDTH 360 0
DWIDTH 6 0
BBX 6 8 0 -1
BITMAP
78
88
88
88
88
78
08
04
ENDCHAR
STARTCHAR LATIN
ENCODING 587
SWIDTH 360 0
DWIDTH 6 0
BBX 6 7 0 -2
BITMAP
78
88
88
88
78
08
04
ENDCHAR
STARTCHAR LATIN
ENCODING 588
SWIDTH 360 0
DWIDTH 6 0
BBX 6 7 0 0
BITMAP
78
44
44
F8
44
44
44
ENDCHAR
STARTCHAR LATIN
ENCODING 589
SWIDTH 360 0
DWIDTH 6 0
BBX 6 5 0 0
BITMAP
58
64
E0
40
40
ENDCHAR
STARTCHAR LATIN
ENCODING 590
SWIDTH 360 0
DWIDTH 6 0
BBX 5 7 0 0
BITMAP
88
88
F8
50
20
20
20
ENDCHAR
STARTCHAR LATIN
ENCODING 591
SWIDTH 360 0
DWIDTH 6 0
BBX 5 7 0 -2
BITMAP
88
88
F8
88
78
08
70
ENDCHAR
STARTCHAR LATIN
ENCODING 592
SWIDTH 360 0
DWIDTH 6 0
BBX 5 5 0 0
BITMAP
F0
88
F0
80
70
ENDCHAR
STARTCHAR LATIN
ENCODING 593
SWIDTH 360 0
DWIDTH 6 0
BBX 5 5 0 0
BITMAP
68
98
88
98
68
ENDCHAR
STARTCHAR LATIN
ENCODING 594
SWIDTH 360 0
DWIDTH 6 0
BBX 5 5 0 0
BITMAP
B0
C8
88
C8
B0
ENDCHAR
STARTCHAR LATIN
ENCODING 595
SWIDTH 360 0
DWIDTH 6 0
BBX 5 8 0 0
BITMAP
60
80
80
F0
88
88
88
F0
ENDCHAR
STARTCHAR LATIN
ENCODING 596
SWIDTH 360 0
DWIDTH 6 0
BBX 5 5 0 0
BITMAP
70
88
08
88
70
ENDCHAR
STARTCHAR LATIN
ENCODING 597
SWIDTH 360 0
DWIDTH 6 0
BBX 5 5 0 0
BITMAP
70
88
90
A8
70
ENDCHAR
STARTCHAR LATIN
ENCODING 598
SWIDTH 360 0
DWIDTH 6 0
BBX 6 9 0 -2
BITMAP
08
08
78
88
88
88
78
08
04
ENDCHAR
STARTCHAR LATIN
ENCODING 599
SWIDTH 360 0
DWIDTH 6 0
BBX 6 8 0 0
BITMAP
04
08
08
78
88
88
88
78
ENDCHAR
STARTCHAR LATIN
ENCODING 600
SWIDTH 360 0
DWIDTH 6 0
BBX 5 5 0 0
BITMAP
70
88
F8
08
F0
ENDCHAR
STARTCHAR LATIN
ENCODING 601
SWIDTH 360 0
DWIDTH 6 0
BBX 5 5 0 0
BITMAP
F0
08
F8
88
70
ENDCHAR
STARTCHAR LATIN
ENCODING 602
SWIDTH 360 0
DWIDTH 6 0
BBX 6 5 0 0
BITMAP
F4
08
F8
88
70
ENDCHAR
STARTCHAR LATIN
ENCODING 603
SWIDTH 360 0
DWIDTH 6 0
BBX 5 7 0 0
BITMAP
70
88
80
60
80
88
70
ENDCHAR
STARTCHAR LATIN
ENCODING 604
SWIDTH 360 0
DWIDTH 6 0
BBX 5 7 0 0
BITMAP
70
88
08
30
08
88
70
ENDCHAR
STARTCHAR LATIN
ENCODING 605
SWIDTH 360 0
DWIDTH 6 0
BBX 6 7 0 0
BITMAP
74
88
08
30
08
88
70
ENDCHAR
STARTCHAR LATIN
ENCODING 606
SWIDTH 360 0
DWIDTH 6 0
BBX 5 7 0 0
BITMAP
70
88
88
B0
88
88
70
ENDCHAR
STARTCHAR LATIN
ENCODING 607
SWIDTH 360 0
DWIDTH 6 0
BBX 4 7 0 -2
BITMAP
60
20
20
70
20
20
C0
ENDCHAR
STARTCHAR LATIN
ENCODING 608
SWIDTH 360 0
DWIDTH 6 0
BBX 6 8 0 -2
BITMAP
04
78
88
88
88
78
08
70
ENDCHAR
STARTCHAR LATIN
ENCODING 609
SWIDTH 360 0
DWIDTH 6 0
BBX 5 7 0 -2
BITMAP
78
88
88
88
78
08
70
ENDCHAR
STARTCHAR LATIN
ENCODING 610
SWIDTH 360 0
DWIDTH 6 0
BBX 5 5 0 0
BITMAP
78
80
98
88
78
ENDCHAR
STARTCHAR LATIN
ENCODING 611
SWIDTH 360 0
DWIDTH 6 0
BBX 5 7 0 -2
BITMAP
88
88
50
50
20
50
20
ENDCHAR
STARTCHAR LATIN
ENCODING 612
SWIDTH 360 0
DWIDTH 6 0
BBX 5 6 0 -1
BITMAP
88
50
50
20
50
20
ENDCHAR
STARTCHAR LATIN
ENCODING 613
SWIDTH 360 0
DWIDTH 6 0
BBX 5 7 0 0
BITMAP
88
88
88
88
78
08
08
ENDCHAR
STARTCHAR LATIN
ENCODING 614
SWIDTH 360 0
DWIDTH 6 0
BBX 5 8 0 0
BITMAP
60
80
80
F0
88
88
88
88
ENDCHAR
STARTCHAR LATIN
ENCODING 615
SWIDTH 360 0
DWIDTH 6 0
BBX 5 10 0 -2
BITMAP
60
80
80
F0
88
88
88
88
08
10
ENDCHAR
STARTCHAR LATIN
ENCODING 616
SWIDTH 360 0
DWIDTH 6 0
BBX 3 7 1 0
BITMAP
40
00
C0
40
E0
40
60
ENDCHAR
STARTCHAR LATIN
ENCODING 617
SWIDTH 360 0
DWIDTH 6 0
BBX 2 5 2 0
BITMAP
80
80
80
80
40
ENDCHAR
STARTCHAR LATIN
ENCODING 618
SWIDTH 360 0
DWIDTH 6 0
BBX 3 5 1 0
BITMAP
E0
40
40
40
E0
ENDCHAR
STARTCHAR LATIN
ENCODING 619
SWIDTH 360 0
DWIDTH 6 0
BBX 5 7 0 0
BITMAP
60
20
20
68
B0
20
30
ENDCHAR
STARTCHAR LATIN
ENCODING 620
SWIDTH 360 0
DWIDTH 6 0
BBX 4 7 0 0
BITMAP
60
20
60
A0
70
20
30
ENDCHAR
STARTCHAR LATIN
ENCODING 621
SWIDTH 360 0
DWIDTH 6 0
BBX 3 7 1 0
BITMAP
C0
40
40
40
40
40
20
ENDCHAR
STARTCHAR LATIN
ENCODING 622
SWIDTH 360 0
DWIDTH 6 0
BBX 5 8 0 -1
BITMAP
80
F8
88
90
B0
88
48
30
ENDCHAR
STARTCHAR LATIN
ENCODING 623
SWIDTH 360 0
DWIDTH 6 0
BBX 5 5 0 0
BITMAP
A8
A8
A8
A8
78
ENDCHAR
STARTCHAR LATIN
ENCODING 624
SWIDTH 360 0
DWIDTH 6 0
BBX 5 7 0 -2
BITMAP
A8
A8
A8
A8
78
08
08
ENDCHAR
STARTCHAR LATIN
ENCODING 625
SWIDTH 360 0
DWIDTH 6 0
BBX 5 7 0 -2
BITMAP
F0
A8
A8
A8
A8
08
10
ENDCHAR
STARTCHAR LATIN
ENCODING 626
SWIDTH 360 0
DWIDTH 6 0
BBX 5 7 0 -2
BITMAP
50
68
48
48
48
40
80
ENDCHAR
STARTCHAR LATIN
ENCODING 627
SWIDTH 360 0
DWIDTH 6 0
BBX 5 7 0 -2
BITMAP
A0
D0
90
90
90
10
08
ENDCHAR
STARTCHAR LATIN
ENCODING 628
SWIDTH 360 0
DWIDTH 6 0
BBX 5 5 0 0
BITMAP
C8
C8
A8
98
98
ENDCHAR
STARTCHAR LATIN
ENCODING 629
SWIDTH 360 0
DWIDTH 6 0
BBX 5 5 0 0
BITMAP
70
88
F8
88
70
ENDCHAR
STARTCHAR LATIN
ENCODING 630
SWIDTH 360 0
DWIDTH 6 0
BBX 5 5 0 0
BITMAP
78
A0
B8
A0
78
ENDCHAR
STARTCHAR LATIN
ENCODING 631
SWIDTH 360 0
DWIDTH 6 0
BBX 5 5 0 0
BITMAP
70
88
A8
A8
D8
ENDCHAR
STARTCHAR LATIN
ENCODING 632
SWIDTH 360 0
DWIDTH 6 0
BBX 5 9 0 -2
BITMAP
20
20
70
A8
A8
A8
70
20
20
ENDCHAR
STARTCHAR LATIN
ENCODING 633
SWIDTH 360 0
DWIDTH 6 0
BBX 5 5 0 0
BITMAP
08
08
08
98
68
ENDCHAR
STARTCHAR LATIN
ENCODING 634
SWIDTH 360 0
DWIDTH 6 0
BBX 5 7 0 0
BITMAP
08
08
08
08
08
98
68
ENDCHAR
STARTCHAR LATIN
ENCODING 635
SWIDTH 360 0
DWIDTH 6 0
BBX 6 6 0 -1
BITMAP
08
08
08
98
68
04
ENDCHAR
STARTCHAR LATIN
ENCODING 636
SWIDTH 360 0
DWIDTH 6 0
BBX 5 7 0 0
BITMAP
B0
C8
80
80
80
80
80
ENDCHAR
STARTCHAR LATIN
ENCODING 637
SWIDTH 360 0
DWIDTH 6 0
BBX 5 8 0 -1
BITMAP
B0
C8
80
80
80
80
80
40
ENDCHAR
STARTCHAR LATIN
ENCODING 638
SWIDTH 360 0
DWIDTH 6 0
BBX 4 5 0 0
BITMAP
60
90
80
80
80
ENDCHAR
STARTCHAR LATIN
ENCODING 639
SWIDTH 360 0
DWIDTH 6 0
BBX 4 5 0 0
BITMAP
60
90
10
10
10
ENDCHAR
STARTCHAR LATIN
ENCODING 640
SWIDTH 360 0
DWIDTH 6 0
BBX 5 5 0 0
BITMAP
F0
88
F0
90
88
ENDCHAR
STARTCHAR LATIN
ENCODING 641
SWIDTH 360 0
DWIDTH 6 0
BBX 5 5 0 0
BITMAP
88
90
F0
88
F0
ENDCHAR
STARTCHAR LATIN
ENCODING 642
SWIDTH 360 0
DWIDTH 6 0
BBX 5 7 0 -2
BITMAP
78
80
70
08
F0
80
40
ENDCHAR
STARTCHAR LATIN
ENCODING 643
SWIDTH 360 0
DWIDTH 6 0
BBX 5 9 0 -1
BITMAP
18
20
20
20
20
20
20
20
C0
ENDCHAR
STARTCHAR LATIN
ENCODING 644
SWIDTH 360 0
DWIDTH 6 0
BBX 5 9 0 -1
BITMAP
18
20
20
20
20
70
20
20
C0
ENDCHAR
STARTCHAR LATIN
ENCODING 645
SWIDTH 360 0
DWIDTH 6 0
BBX 5 7 0 -1
BITMAP
C0
20
20
20
20
20
18
ENDCHAR
STARTCHAR LATIN
ENCODING 646
SWIDTH 360 0
DWIDTH 6 0
BBX 6 9 0 -1
BITMAP
18
20
20
20
20
20
60
B4
48
ENDCHAR
STARTCHAR LATIN
ENCODING 647
SWIDTH 360 0
DWIDTH 6 0
BBX 4 7 0 0
BITMAP
C0
20
20
20
F0
20
20
ENDCHAR
STARTCHAR LATIN
ENCODING 648
SWIDTH 360 0
DWIDTH 6 0
BBX 4 8 0 -1
BITMAP
40
40
F0
40
40
40
40
30
ENDCHAR
STARTCHAR LATIN
ENCODING 649
SWIDTH 360 0
DWIDTH 6 0
BBX 5 5 0 0
BITMAP
88
F8
88
98
68
ENDCHAR
STARTCHAR LATIN
ENCODING 650
SWIDTH 360 0
DWIDTH 6 0
BBX 5 5 0 0
BITMAP
88
50
88
88
70
ENDCHAR
STARTCHAR LATIN
ENCODING 651
SWIDTH 360 0
DWIDTH 6 0
BBX 5 5 0 0
BITMAP
B0
88
88
88
70
ENDCHAR
STARTCHAR LATIN
ENCODING 652
SWIDTH 360 0
DWIDTH 6 0
BBX 5 5 0 0
BITMAP
20
50
50
88
88
ENDCHAR
STARTCHAR LATIN
ENCODING 653
SWIDTH 360 0
DWIDTH 6 0
BBX 5 5 0 0
BITMAP
50
A8
A8
A8
88
ENDCHAR
STARTCHAR LATIN
ENCODING 654
SWIDTH 360 0
DWIDTH 6 0
BBX 5 7 0 -2
BITMAP
70
80
F0
88
88
88
88
ENDCHAR
STARTCHAR LATIN
ENCODING 655
SWIDTH 360 0
DWIDTH 6 0
BBX 5 5 0 0
BITMAP
88
50
20
20
20
ENDCHAR
STARTCHAR LATIN
ENCODING 656
SWIDTH 360 0
DWIDTH 6 0
BBX 5 7 0 -2
BITMAP
F8
10
20
40
F8
08
10
ENDCHAR
STARTCHAR LATIN
ENCODING 657
SWIDTH 360 0
DWIDTH 6 0
BBX 5 6 0 -1
BITMAP
F8
10
30
68
F8
20
ENDCHAR
STARTCHAR LATIN
ENCODING 658
SWIDTH 360 0
DWIDTH 6 0
BBX 5 7 0 -2
BITMAP
F8
10
20
10
08
88
70
ENDCHAR
STARTCHAR LATIN
ENCODING 659
SWIDTH 360 0
DWIDTH 6 0
BBX 5 7 0 -2
BITMAP
F8
10
20
10
68
98
78
ENDCHAR
STARTCHAR LATIN
ENCODING 660
SWIDTH 360 0
DWIDTH 6 0
BBX 5 7 0 1
BITMAP
70
88
08
10
20
20
20
ENDCHAR
STARTCHAR LATIN
ENCODING 661
SWIDTH 360 0
DWIDTH 6 0
BBX 5 7 0 1
BITMAP
70
88
80
40
20
20
20
ENDCHAR
STARTCHAR LATIN
ENCODING 662
SWIDTH 360 0
DWIDTH 6 0
BBX 5 7 0 1
BITMAP
20
20
20
10
08
88
70
ENDCHAR
STARTCHAR LATIN
ENCODING 663
SWIDTH 360 0
DWIDTH 6 0
BBX 5 7 0 -2
BITMAP
70
88
80
80
80
88
70
ENDCHAR
STARTCHAR LATIN
ENCODING 664
SWIDTH 360 0
DWIDTH 6 0
BBX 5 5 0 0
BITMAP
70
88
A8
88
70
ENDCHAR
STARTCHAR LATIN
ENCODING 665
SWIDTH 360 0
DWIDTH 6 0
BBX 5 5 0 0
BITMAP
F0
88
F0
88
F0
ENDCHAR
STARTCHAR LATIN
ENCODING 666
SWIDTH 360 0
DWIDTH 6 0
BBX 5 5 0 0
BITMAP
70
88
68
88
70
ENDCHAR
STARTCHAR LATIN
ENCODING 667
SWIDTH 360 0
DWIDTH 6 0
BBX 6 7 0 0
BITMAP
04
08
78
80
98
88
78
ENDCHAR
STARTCHAR LATIN
ENCODING 668
SWIDTH 360 0
DWIDTH 6 0
BBX 5 5 0 0
BITMAP
88
88
F8
88
88
ENDCHAR
STARTCHAR LATIN
ENCODING 669
SWIDTH 360 0
DWIDTH 6 0
BBX 4 9 0 -2
BITMAP
20
00
60
20
20
20
70
A0
40
ENDCHAR
STARTCHAR LATIN
ENCODING 670
SWIDTH 360 0
DWIDTH 6 0
BBX 5 7 0 0
BITMAP
88
48
38
28
48
08
08
ENDCHAR
STARTCHAR LATIN
ENCODING 671
SWIDTH 360 0
DWIDTH 6 0
BBX 4 5 0 0
BITMAP
80
80
80
80
F0
ENDCHAR
STARTCHAR LATIN
ENCODING 672
SWIDTH 360 0
DWIDTH 6 0
BBX 6 9 0 -2
BITMAP
04
08
78
88
88
88
78
08
08
ENDCHAR
STARTCHAR LATIN
ENCODING 673
SWIDTH 360 0
DWIDTH 6 0
BBX 5 7 0 1
BITMAP
70
88
08
10
20
70
20
ENDCHAR
STARTCHAR LATIN
ENCODING 674
SWIDTH 360 0
DWIDTH 6 0
BBX 5 7 0 1
BITMAP
70
88
80
40
20
70
20
ENDCHAR
STARTCHAR LATIN
ENCODING 675
SWIDTH 360 0
DWIDTH 6 0
BBX 6 7 0 0
BITMAP
20
20
7C
A4
A8
B0
7C
ENDCHAR
STARTCHAR LATIN
ENCODING 676
SWIDTH 360 0
DWIDTH 6 0
BBX 6 8 0 -1
BITMAP
20
20
7C
A4
A8
A4
74
08
ENDCHAR
STARTCHAR LATIN
ENCODING 677
SWIDTH 360 0
DWIDTH 6 0
BBX 6 8 0 -1
BITMAP
20
20
7C
A4
A8
B4
7C
10
ENDCHAR
STARTCHAR LATIN
ENCODING 678
SWIDTH 360 0
DWIDTH 6 0
BBX 6 7 0 0
BITMAP
40
40
FC
60
58
44
38
ENDCHAR
STARTCHAR LATIN
ENCODING 679
SWIDTH 360 0
DWIDTH 6 0
BBX 5 9 0 -2
BITMAP
48
50
F0
50
50
50
30
10
20
ENDCHAR
STARTCHAR LATIN
ENCODING 680
SWIDTH 360 0
DWIDTH 6 0
BBX 6 8 0 -1
BITMAP
40
40
EC
50
58
54
3C
10
ENDCHAR
STARTCHAR LATIN
ENCODING 681
SWIDTH 360 0
DWIDTH 6 0
BBX 6 9 0 -2
BITMAP
20
40
40
F8
54
54
54
08
10
ENDCHAR
STARTCHAR LATIN
ENCODING 682
SWIDTH 360 0
DWIDTH 6 0
BBX 5 7 0 0
BITMAP
80
80
B8
C0
B0
88
F0
ENDCHAR
STARTCHAR LATIN
ENCODING 683
SWIDTH 360 0
DWIDTH 6 0
BBX 5 7 0 0
BITMAP
80
80
F8
90
A0
C0
F8
ENDCHAR
STARTCHAR LATIN
ENCODING 684
SWIDTH 360 0
DWIDTH 6 0
BBX 5 6 0 0
BITMAP
A8
A8
50
A8
A8
50
ENDCHAR
STARTCHAR LATIN
ENCODING 685
SWIDTH 360 0
DWIDTH 6 0
BBX 5 5 0 0
BITMAP
F8
88
00
F8
88
ENDCHAR
STARTCHAR LATIN
ENCODING 686
SWIDTH 360 0
DWIDTH 6 0
BBX 5 7 0 -2
BITMAP
88
48
48
48
38
08
08
ENDCHAR
STARTCHAR LATIN
ENCODING 687
SWIDTH 360 0
DWIDTH 6 0
BBX 6 7 0 -2
BITMAP
88
48
48
48
38
08
04
ENDCHAR
STARTCHAR MODIFIER
ENCODING 688
SWIDTH 360 0
DWIDTH 6 0
BBX 3 4 0 3
BITMAP
80
C0
A0
A0
ENDCHAR
STARTCHAR MODIFIER
ENCODING 689
SWIDTH 360 0
DWIDTH 6 0
BBX 3 5 0 3
BITMAP
60
80
C0
A0
A0
ENDCHAR
STARTCHAR MODIFIER
ENCODING 690
SWIDTH 360 0
DWIDTH 6 0
BBX 3 6 0 2
BITMAP
20
00
20
20
A0
40
ENDCHAR
STARTCHAR MODIFIER
ENCODING 691
SWIDTH 360 0
DWIDTH 6 0
BBX 4 4 0 3
BITMAP
A0
D0
80
80
ENDCHAR
STARTCHAR MODIFIER
ENCODING 692
SWIDTH 360 0
DWIDTH 6 0
BBX 4 4 0 3
BITMAP
10
10
B0
50
ENDCHAR
STARTCHAR MODIFIER
ENCODING 693
SWIDTH 360 0
DWIDTH 6 0
BBX 5 5 0 2
BITMAP
10
10
B0
50
08
ENDCHAR
STARTCHAR MODIFIER
ENCODING 694
SWIDTH 360 0
DWIDTH 6 0
BBX 3 5 0 3
BITMAP
A0
A0
C0
A0
C0
ENDCHAR
STARTCHAR MODIFIER
ENCODING 695
SWIDTH 360 0
DWIDTH 6 0
BBX 5 4 0 3
BITMAP
A8
A8
50
50
ENDCHAR
STARTCHAR MODIFIER
ENCODING 696
SWIDTH 360 0
DWIDTH 6 0
BBX 3 5 0 3
BITMAP
A0
A0
60
20
C0
ENDCHAR
STARTCHAR MODIFIER
ENCODING 697
SWIDTH 360 0
DWIDTH 6 0
BBX 1 2 1 5
BITMAP
80
80
ENDCHAR
STARTCHAR MODIFIER
ENCODING 698
SWIDTH 360 0
DWIDTH 6 0
BBX 3 2 0 5
BITMAP
A0
A0
ENDCHAR
STARTCHAR MODIFIER
ENCODING 699
SWIDTH 360 0
DWIDTH 6 0
BBX 2 3 1 5
BITMAP
40
80
C0
ENDCHAR
STARTCHAR MODIFIER
ENCODING 700
SWIDTH 360 0
DWIDTH 6 0
BBX 2 3 1 5
BITMAP
C0
40
80
ENDCHAR
STARTCHAR MODIFIER
ENCODING 701
SWIDTH 360 0
DWIDTH 6 0
BBX 2 3 1 5
BITMAP
C0
80
40
ENDCHAR
STARTCHAR MODIFIER
ENCODING 706
SWIDTH 360 0
DWIDTH 6 0
BBX 6 5 0 1
BITMAP
0C
30
C0
30
0C
ENDCHAR
STARTCHAR MODIFIER
ENCODING 707
SWIDTH 360 0
DWIDTH 6 0
BBX 6 5 0 1
BITMAP
C0
30
0C
30
C0
ENDCHAR
STARTCHAR MODIFIER
ENCODING 708
SWIDTH 360 0
DWIDTH 6 0
BBX 5 6 0 1
BITMAP
88
88
50
50
20
20
ENDCHAR
STARTCHAR MODIFIER
ENCODING 709
SWIDTH 360 0
DWIDTH 6 0
BBX 5 6 0 1
BITMAP
20
20
50
50
88
88
ENDCHAR
STARTCHAR MODIFIER
ENCODING 710
SWIDTH 360 0
DWIDTH 6 0
BBX 5 3 0 5
BITMAP
20
50
88
ENDCHAR
STARTCHAR CARON
ENCODING 711
SWIDTH 360 0
DWIDTH 6 0
BBX 5 3 0 5
BITMAP
88
50
20
ENDCHAR
STARTCHAR MODIFIER
ENCODING 712
SWIDTH 360 0
DWIDTH 6 0
BBX 1 2 2 5
BITMAP
80
80
ENDCHAR
STARTCHAR MODIFIER
ENCODING 713
SWIDTH 360 0
DWIDTH 6 0
BBX 2 1 1 6
BITMAP
C0
ENDCHAR
STARTCHAR MODIFIER
ENCODING 714
SWIDTH 360 0
DWIDTH 6 0
BBX 2 2 2 5
BITMAP
40
80
ENDCHAR
STARTCHAR MODIFIER
ENCODING 715
SWIDTH 360 0
DWIDTH 6 0
BBX 2 2 2 5
BITMAP
80
40
ENDCHAR
STARTCHAR MODIFIER
ENCODING 720
SWIDTH 360 0
DWIDTH 6 0
BBX 3 6 1 0
BITMAP
E0
40
00
00
40
E0
ENDCHAR
STARTCHAR MODIFIER
ENCODING 721
SWIDTH 360 0
DWIDTH 6 0
BBX 3 2 1 2
BITMAP
E0
40
ENDCHAR
STARTCHAR BREVE
ENCODING 728
SWIDTH 360 0
DWIDTH 6 0
BBX 5 2 1 7
BITMAP
88
70
ENDCHAR
STARTCHAR DOT
ENCODING 729
SWIDTH 360 0
DWIDTH 6 0
BBX 2 2 2 7
BITMAP
C0
C0
ENDCHAR
STARTCHAR RING
ENCODING 730
SWIDTH 360 0
DWIDTH 6 0
BBX 3 3 1 6
BITMAP
40
A0
40
ENDCHAR
STARTCHAR OGONEK
ENCODING 731
SWIDTH 360 0
DWIDTH 6 0
BBX 2 3 2 -2
BITMAP
40
80
40
ENDCHAR
STARTCHAR SMALL
ENCODING 732
SWIDTH 360 0
DWIDTH 6 0
BBX 5 2 0 7
BITMAP
68
B0
ENDCHAR
STARTCHAR DOUBLE
ENCODING 733
SWIDTH 360 0
DWIDTH 6 0
BBX 6 2 0 7
BITMAP
44
88
ENDCHAR
STARTCHAR MODIFIER
ENCODING 734
SWIDTH 360 0
DWIDTH 6 0
BBX 3 2 1 4
BITMAP
C0
A0
ENDCHAR
STARTCHAR MODIFIER
ENCODING 736
SWIDTH 360 0
DWIDTH 6 0
BBX 5 5 0 1
BITMAP
88
50
20
50
20
ENDCHAR
STARTCHAR MODIFIER
ENCODING 740
SWIDTH 360 0
DWIDTH 6 0
BBX 3 5 1 3
BITMAP
60
80
80
40
40
ENDCHAR
STARTCHAR MODIFIER
ENCODING 750
SWIDTH 360 0
DWIDTH 6 0
BBX 5 4 0 3
BITMAP
D8
D8
48
90
ENDCHAR
STARTCHAR COMBINING
ENCODING 768
SWIDTH 360 0
DWIDTH 6 0
BBX 2 2 1 7
BITMAP
80
40
ENDCHAR
STARTCHAR COMBINING
ENCODING 769
SWIDTH 360 0
DWIDTH 6 0
BBX 2 2 1 7
BITMAP
40
80
ENDCHAR
STARTCHAR COMBINING
ENCODING 770
SWIDTH 360 0
DWIDTH 6 0
BBX 4 2 0 7
BITMAP
60
90
ENDCHAR
STARTCHAR COMBINING
ENCODING 771
SWIDTH 360 0
DWIDTH 6 0
BBX 5 2 0 7
BITMAP
68
B0
ENDCHAR
STARTCHAR COMBINING
ENCODING 772
SWIDTH 360 0
DWIDTH 6 0
BBX 3 1 1 8
BITMAP
E0
ENDCHAR
STARTCHAR COMBINING
ENCODING 773
SWIDTH 360 0
DWIDTH 6 0
BBX 5 1 0 8
BITMAP
F8
ENDCHAR
STARTCHAR COMBINING
ENCODING 774
SWIDTH 360 0
DWIDTH 6 0
BBX 4 2 1 7
BITMAP
90
60
ENDCHAR
STARTCHAR COMBINING
ENCODING 775
SWIDTH 360 0
DWIDTH 6 0
BBX 1 1 2 8
BITMAP
80
ENDCHAR
STARTCHAR COMBINING
ENCODING 776
SWIDTH 360 0
DWIDTH 6 0
BBX 3 1 1 8
BITMAP
A0
ENDCHAR
STARTCHAR COMBINING
ENCODING 777
SWIDTH 360 0
DWIDTH 6 0
BBX 3 3 1 7
BITMAP
C0
20
40
ENDCHAR
STARTCHAR COMBINING
ENCODING 778
SWIDTH 360 0
DWIDTH 6 0
BBX 3 3 1 7
BITMAP
40
A0
40
ENDCHAR
STARTCHAR COMBINING
ENCODING 779
SWIDTH 360 0
DWIDTH 6 0
BBX 5 2 0 7
BITMAP
48
90
ENDCHAR
STARTCHAR COMBINING
ENCODING 780
SWIDTH 360 0
DWIDTH 6 0
BBX 3 2 1 7
BITMAP
A0
40
ENDCHAR
STARTCHAR COMBINING
ENCODING 781
SWIDTH 360 0
DWIDTH 6 0
BBX 1 2 2 7
BITMAP
80
80
ENDCHAR
STARTCHAR COMBINING
ENCODING 782
SWIDTH 360 0
DWIDTH 6 0
BBX 3 2 1 7
BITMAP
A0
A0
ENDCHAR
STARTCHAR COMBINING
ENCODING 784
SWIDTH 360 0
DWIDTH 6 0
BBX 5 3 0 6
BITMAP
20
88
70
ENDCHAR
STARTCHAR COMBINING
ENCODING 785
SWIDTH 360 0
DWIDTH 6 0
BBX 5 2 0 7
BITMAP
70
88
ENDCHAR
STARTCHAR COMBINING
ENCODING 786
SWIDTH 360 0
DWIDTH 6 0
BBX 2 3 1 6
BITMAP
40
80
C0
ENDCHAR
STARTCHAR COMBINING
ENCODING 787
SWIDTH 360 0
DWIDTH 6 0
BBX 2 3 1 6
BITMAP
C0
40
80
ENDCHAR
STARTCHAR COMBINING
ENCODING 788
SWIDTH 360 0
DWIDTH 6 0
BBX 2 3 1 6
BITMAP
C0
80
40
ENDCHAR
STARTCHAR COMBINING
ENCODING 789
SWIDTH 360 0
DWIDTH 6 0
BBX 2 3 1 6
BITMAP
C0
40
80
ENDCHAR
STARTCHAR COMBINING
ENCODING 794
SWIDTH 360 0
DWIDTH 6 0
BBX 4 3 1 6
BITMAP
F0
10
10
ENDCHAR
STARTCHAR COMBINING
ENCODING 796
SWIDTH 360 0
DWIDTH 6 0
BBX 2 3 1 -3
BITMAP
40
80
40
ENDCHAR
STARTCHAR COMBINING
ENCODING 799
SWIDTH 360 0
DWIDTH 6 0
BBX 3 3 1 -3
BITMAP
40
E0
40
ENDCHAR
STARTCHAR COMBINING
ENCODING 800
SWIDTH 360 0
DWIDTH 6 0
BBX 3 1 1 -2
BITMAP
E0
ENDCHAR
STARTCHAR COMBINING
ENCODING 804
SWIDTH 360 0
DWIDTH 6 0
BBX 3 1 1 -2
BITMAP
A0
ENDCHAR
STARTCHAR COMBINING
ENCODING 805
SWIDTH 360 0
DWIDTH 6 0
BBX 3 3 1 -3
BITMAP
40
A0
40
ENDCHAR
STARTCHAR COMBINING
ENCODING 810
SWIDTH 360 0
DWIDTH 6 0
BBX 3 2 1 -2
BITMAP
E0
A0
ENDCHAR
STARTCHAR COMBINING
ENCODING 812
SWIDTH 360 0
DWIDTH 6 0
BBX 3 2 1 -2
BITMAP
A0
40
ENDCHAR
STARTCHAR COMBINING
ENCODING 816
SWIDTH 360 0
DWIDTH 6 0
BBX 4 2 1 -3
BITMAP
50
A0
ENDCHAR
STARTCHAR COMBINING
ENCODING 825
SWIDTH 360 0
DWIDTH 6 0
BBX 2 3 2 -3
BITMAP
80
40
80
ENDCHAR
STARTCHAR COMBINING
ENCODING 826
SWIDTH 360 0
DWIDTH 6 0
BBX 3 2 1 -3
BITMAP
A0
E0
ENDCHAR
STARTCHAR COMBINING
ENCODING 827
SWIDTH 360 0
DWIDTH 6 0
BBX 3 3 1 -3
BITMAP
E0
A0
E0
ENDCHAR
STARTCHAR COMBINING
ENCODING 828
SWIDTH 360 0
DWIDTH 6 0
BBX 5 2 0 -3
BITMAP
50
A8
ENDCHAR
STARTCHAR COMBINING
ENCODING 835
SWIDTH 360 0
DWIDTH 6 0
BBX 2 4 2 3
BITMAP
C0
C0
40
80
ENDCHAR
STARTCHAR COMBINING
ENCODING 836
SWIDTH 360 0
DWIDTH 6 0
BBX 3 2 1 2
BITMAP
E0
40
ENDCHAR
STARTCHAR COMBINING
ENCODING 860
SWIDTH 360 0
DWIDTH 6 0
BBX 5 2 0 -2
BITMAP
88
70
ENDCHAR
STARTCHAR COMBINING
ENCODING 865
SWIDTH 360 0
DWIDTH 6 0
BBX 5 2 0 7
BITMAP
70
88
ENDCHAR
STARTCHAR GREEK
ENCODING 880
SWIDTH 360 0
DWIDTH 6 0
BBX 4 7 0 0
BITMAP
80
80
80
F0
80
80
80
ENDCHAR
STARTCHAR GREEK
ENCODING 881
SWIDTH 360 0
DWIDTH 6 0
BBX 5 6 0 0
BITMAP
80
40
40
78
40
40
ENDCHAR
STARTCHAR GREEK
ENCODING 882
SWIDTH 360 0
DWIDTH 6 0
BBX 5 7 0 0
BITMAP
F8
A8
A8
20
20
20
20
ENDCHAR
STARTCHAR GREEK
ENCODING 883
SWIDTH 360 0
DWIDTH 6 0
BBX 5 5 0 0
BITMAP
F8
A8
20
20
20
ENDCHAR
STARTCHAR GREEK
ENCODING 884
SWIDTH 360 0
DWIDTH 6 0
BBX 3 2 1 7
BITMAP
60
C0
ENDCHAR
STARTCHAR GREEK
ENCODING 885
SWIDTH 360 0
DWIDTH 6 0
BBX 4 3 0 -1
BITMAP
30
60
C0
ENDCHAR
STARTCHAR GREEK
ENCODING 886
SWIDTH 360 0
DWIDTH 6 0
BBX 5 6 0 0
BITMAP
98
98
A8
A8
C8
C8
ENDCHAR
STARTCHAR GREEK
ENCODING 887
SWIDTH 360 0
DWIDTH 6 0
BBX 6 6 0 -1
BITMAP
88
98
A8
C8
88
04
ENDCHAR
STARTCHAR GREEK
ENCODING 890
SWIDTH 360 0
DWIDTH 6 0
BBX 2 2 1 -2
BITMAP
80
C0
ENDCHAR
STARTCHAR GREEK
ENCODING 891
SWIDTH 360 0
DWIDTH 6 0
BBX 5 5 0 0
BITMAP
70
88
08
88
70
ENDCHAR
STARTCHAR GREEK
ENCODING 892
SWIDTH 360 0
DWIDTH 6 0
BBX 5 5 0 0
BITMAP
70
88
A0
88
70
ENDCHAR
STARTCHAR GREEK
ENCODING 893
SWIDTH 360 0
DWIDTH 6 0
BBX 5 5 0 0
BITMAP
70
88
28
88
70
ENDCHAR
STARTCHAR GREEK
ENCODING 894
SWIDTH 360 0
DWIDTH 6 0
BBX 2 8 2 -2
BITMAP
C0
C0
00
00
C0
C0
40
80
ENDCHAR
STARTCHAR GREEK
ENCODING 895
SWIDTH 360 0
DWIDTH 6 0
BBX 5 7 0 0
BITMAP
08
08
08
08
08
88
70
ENDCHAR
STARTCHAR GREEK
ENCODING 900
SWIDTH 360 0
DWIDTH 6 0
BBX 2 2 2 5
BITMAP
40
80
ENDCHAR
STARTCHAR GREEK
ENCODING 901
SWIDTH 360 0
DWIDTH 6 0
BBX 5 3 0 6
BITMAP
10
20
88
ENDCHAR
STARTCHAR GREEK
ENCODING 902
SWIDTH 360 0
DWIDTH 6 0
BBX 5 8 0 0
BITMAP
40
B0
48
48
78
48
48
48
ENDCHAR
STARTCHAR GREEK
ENCODING 903
SWIDTH 360 0
DWIDTH 6 0
BBX 2 2 2 3
BITMAP
C0
C0
ENDCHAR
STARTCHAR GREEK
ENCODING 904
SWIDTH 360 0
DWIDTH 6 0
BBX 6 8 0 0
BITMAP
40
BC
20
20
38
20
20
3C
ENDCHAR
STARTCHAR GREEK
ENCODING 905
SWIDTH 360 0
DWIDTH 6 0
BBX 6 8 0 0
BITMAP
40
A4
24
24
3C
24
24
24
ENDCHAR
STARTCHAR GREEK
ENCODING 906
SWIDTH 360 0
DWIDTH 6 0
BBX 5 8 0 0
BITMAP
40
B8
10
10
10
10
10
38
ENDCHAR
STARTCHAR GREEK
ENCODING 908
SWIDTH 360 0
DWIDTH 6 0
BBX 5 8 0 0
BITMAP
40
B0
48
48
48
48
48
30
ENDCHAR
STARTCHAR GREEK
ENCODING 910
SWIDTH 360 0
DWIDTH 6 0
BBX 5 8 0 0
BITMAP
40
A8
28
28
10
10
10
10
ENDCHAR
STARTCHAR GREEK
ENCODING 911
SWIDTH 360 0
DWIDTH 6 0
BBX 5 9 0 0
BITMAP
40
80
70
88
88
88
88
50
D8
ENDCHAR
STARTCHAR GREEK
ENCODING 912
SWIDTH 360 0
DWIDTH 6 0
BBX 5 9 0 0
BITMAP
10
20
88
00
20
20
20
28
10
ENDCHAR
STARTCHAR GREEK
ENCODING 913
SWIDTH 360 0
DWIDTH 6 0
BBX 5 7 0 0
BITMAP
70
88
88
F8
88
88
88
ENDCHAR
STARTCHAR GREEK
ENCODING 914
SWIDTH 360 0
DWIDTH 6 0
BBX 5 7 0 0
BITMAP
F0
88
88
F0
88
88
F0
ENDCHAR
STARTCHAR GREEK
ENCODING 915
SWIDTH 360 0
DWIDTH 6 0
BBX 5 7 0 0
BITMAP
F8
80
80
80
80
80
80
ENDCHAR
STARTCHAR GREEK
ENCODING 916
SWIDTH 360 0
DWIDTH 6 0
BBX 5 7 0 0
BITMAP
20
20
50
50
50
88
F8
ENDCHAR
STARTCHAR GREEK
ENCODING 917
SWIDTH 360 0
DWIDTH 6 0
BBX 5 7 0 0
BITMAP
F8
80
80
F0
80
80
F8
ENDCHAR
STARTCHAR GREEK
ENCODING 918
SWIDTH 360 0
DWIDTH 6 0
BBX 5 7 0 0
BITMAP
F8
08
10
20
40
80
F8
ENDCHAR
STARTCHAR GREEK
ENCODING 919
SWIDTH 360 0
DWIDTH 6 0
BBX 5 7 0 0
BITMAP
88
88
88
F8
88
88
88
ENDCHAR
STARTCHAR GREEK
ENCODING 920
SWIDTH 360 0
DWIDTH 6 0
BBX 5 7 0 0
BITMAP
70
88
88
F8
88
88
70
ENDCHAR
STARTCHAR GREEK
ENCODING 921
SWIDTH 360 0
DWIDTH 6 0
BBX 3 7 1 0
BITMAP
E0
40
40
40
40
40
E0
ENDCHAR
STARTCHAR GREEK
ENCODING 922
SWIDTH 360 0
DWIDTH 6 0
BBX 5 7 0 0
BITMAP
88
90
A0
C0
A0
90
88
ENDCHAR
STARTCHAR GREEK
ENCODING 923
SWIDTH 360 0
DWIDTH 6 0
BBX 5 7 0 0
BITMAP
20
20
50
50
50
88
88
ENDCHAR
STARTCHAR GREEK
ENCODING 924
SWIDTH 360 0
DWIDTH 6 0
BBX 5 7 0 0
BITMAP
88
D8
A8
88
88
88
88
ENDCHAR
STARTCHAR GREEK
ENCODING 925
SWIDTH 360 0
DWIDTH 6 0
BBX 5 7 0 0
BITMAP
C8
C8
A8
A8
A8
98
98
ENDCHAR
STARTCHAR GREEK
ENCODING 926
SWIDTH 360 0
DWIDTH 6 0
BBX 5 7 0 0
BITMAP
F8
00
00
70
00
00
F8
ENDCHAR
STARTCHAR GREEK
ENCODING 927
SWIDTH 360 0
DWIDTH 6 0
BBX 5 7 0 0
BITMAP
70
88
88
88
88
88
70
ENDCHAR
STARTCHAR GREEK
ENCODING 928
SWIDTH 360 0
DWIDTH 6 0
BBX 5 7 0 0
BITMAP
F8
88
88
88
88
88
88
ENDCHAR
STARTCHAR GREEK
ENCODING 929
SWIDTH 360 0
DWIDTH 6 0
BBX 5 7 0 0
BITMAP
F0
88
88
F0
80
80
80
ENDCHAR
STARTCHAR GREEK
ENCODING 931
SWIDTH 360 0
DWIDTH 6 0
BBX 5 7 0 0
BITMAP
F8
80
40
20
40
80
F8
ENDCHAR
STARTCHAR GREEK
ENCODING 932
SWIDTH 360 0
DWIDTH 6 0
BBX 5 7 0 0
BITMAP
F8
20
20
20
20
20
20
ENDCHAR
STARTCHAR GREEK
ENCODING 933
SWIDTH 360 0
DWIDTH 6 0
BBX 5 7 0 0
BITMAP
88
88
88
50
20
20
20
ENDCHAR
STARTCHAR GREEK
ENCODING 934
SWIDTH 360 0
DWIDTH 6 0
BBX 5 7 0 0
BITMAP
20
70
A8
A8
A8
70
20
ENDCHAR
STARTCHAR GREEK
ENCODING 935
SWIDTH 360 0
DWIDTH 6 0
BBX 5 7 0 0
BITMAP
88
88
50
20
50
88
88
ENDCHAR
STARTCHAR GREEK
ENCODING 936
SWIDTH 360 0
DWIDTH 6 0
BBX 5 7 0 0
BITMAP
A8
A8
A8
70
20
20
20
ENDCHAR
STARTCHAR GREEK
ENCODING 937
SWIDTH 360 0
DWIDTH 6 0
BBX 5 7 0 0
BITMAP
70
88
88
88
88
50
D8
ENDCHAR
STARTCHAR GREEK
ENCODING 938
SWIDTH 360 0
DWIDTH 6 0
BBX 3 9 1 0
BITMAP
A0
00
E0
40
40
40
40
40
E0
ENDCHAR
STARTCHAR GREEK
ENCODING 939
SWIDTH 360 0
DWIDTH 6 0
BBX 5 9 0 0
BITMAP
50
00
88
88
88
50
20
20
20
ENDCHAR
STARTCHAR GREEK
ENCODING 940
SWIDTH 360 0
DWIDTH 6 0
BBX 5 8 0 0
BITMAP
10
20
00
68
98
88
98
68
ENDCHAR
STARTCHAR GREEK
ENCODING 941
SWIDTH 360 0
DWIDTH 6 0
BBX 5 8 0 0
BITMAP
10
20
00
70
88
60
88
70
ENDCHAR
STARTCHAR GREEK
ENCODING 942
SWIDTH 360 0
DWIDTH 6 0
BBX 5 10 0 -2
BITMAP
10
20
00
B0
C8
88
88
88
08
08
ENDCHAR
STARTCHAR GREEK
ENCODING 943
SWIDTH 360 0
DWIDTH 6 0
BBX 3 8 2 0
BITMAP
40
80
00
80
80
80
A0
40
ENDCHAR
STARTCHAR GREEK
ENCODING 944
SWIDTH 360 0
DWIDTH 6 0
BBX 5 9 0 0
BITMAP
10
20
88
00
88
88
88
88
70
ENDCHAR
STARTCHAR GREEK
ENCODING 945
SWIDTH 360 0
DWIDTH 6 0
BBX 5 5 0 0
BITMAP
68
98
88
98
68
ENDCHAR
STARTCHAR GREEK
ENCODING 946
SWIDTH 360 0
DWIDTH 6 0
BBX 5 9 0 -2
BITMAP
60
90
90
B0
88
88
F0
80
80
ENDCHAR
STARTCHAR GREEK
ENCODING 947
SWIDTH 360 0
DWIDTH 6 0
BBX 5 7 0 -2
BITMAP
88
88
50
50
20
20
20
ENDCHAR
STARTCHAR GREEK
ENCODING 948
SWIDTH 360 0
DWIDTH 6 0
BBX 5 8 0 0
BITMAP
F8
40
20
70
88
88
88
70
ENDCHAR
STARTCHAR GREEK
ENCODING 949
SWIDTH 360 0
DWIDTH 6 0
BBX 5 5 0 0
BITMAP
70
88
60
88
70
ENDCHAR
STARTCHAR GREEK
ENCODING 950
SWIDTH 360 0
DWIDTH 6 0
BBX 5 9 0 -2
BITMAP
F8
20
40
80
80
80
70
08
10
ENDCHAR
STARTCHAR GREEK
ENCODING 951
SWIDTH 360 0
DWIDTH 6 0
BBX 5 7 0 -2
BITMAP
B0
C8
88
88
88
08
08
ENDCHAR
STARTCHAR GREEK
ENCODING 952
SWIDTH 360 0
DWIDTH 6 0
BBX 4 7 0 0
BITMAP
60
90
90
F0
90
90
60
ENDCHAR
STARTCHAR GREEK
ENCODING 953
SWIDTH 360 0
DWIDTH 6 0
BBX 3 5 2 0
BITMAP
80
80
80
A0
40
ENDCHAR
STARTCHAR GREEK
ENCODING 954
SWIDTH 360 0
DWIDTH 6 0
BBX 5 5 0 0
BITMAP
88
90
E0
90
88
ENDCHAR
STARTCHAR GREEK
ENCODING 955
SWIDTH 360 0
DWIDTH 6 0
BBX 5 8 0 0
BITMAP
40
40
20
20
50
50
88
88
ENDCHAR
STARTCHAR GREEK
ENCODING 956
SWIDTH 360 0
DWIDTH 6 0
BBX 5 7 0 -2
BITMAP
90
90
90
90
E8
80
80
ENDCHAR
STARTCHAR GREEK
ENCODING 957
SWIDTH 360 0
DWIDTH 6 0
BBX 5 5 0 0
BITMAP
88
88
50
50
20
ENDCHAR
STARTCHAR GREEK
ENCODING 958
SWIDTH 360 0
DWIDTH 6 0
BBX 5 9 0 -2
BITMAP
70
88
80
70
80
80
70
08
30
ENDCHAR
STARTCHAR GREEK
ENCODING 959
SWIDTH 360 0
DWIDTH 6 0
BBX 5 5 0 0
BITMAP
70
88
88
88
70
ENDCHAR
STARTCHAR GREEK
ENCODING 960
SWIDTH 360 0
DWIDTH 6 0
BBX 5 5 0 0
BITMAP
F8
50
50
50
48
ENDCHAR
STARTCHAR GREEK
ENCODING 961
SWIDTH 360 0
DWIDTH 6 0
BBX 5 7 0 -2
BITMAP
70
88
88
88
F0
80
80
ENDCHAR
STARTCHAR GREEK
ENCODING 962
SWIDTH 360 0
DWIDTH 6 0
BBX 5 7 0 -2
BITMAP
70
88
80
80
70
08
30
ENDCHAR
STARTCHAR GREEK
ENCODING 963
SWIDTH 360 0
DWIDTH 6 0
BBX 5 5 0 0
BITMAP
78
90
88
88
70
ENDCHAR
STARTCHAR GREEK
ENCODING 964
SWIDTH 360 0
DWIDTH 6 0
BBX 5 5 0 0
BITMAP
F8
20
20
20
10
ENDCHAR
STARTCHAR GREEK
ENCODING 965
SWIDTH 360 0
DWIDTH 6 0
BBX 5 5 0 0
BITMAP
88
88
88
88
70
ENDCHAR
STARTCHAR GREEK
ENCODING 966
SWIDTH 360 0
DWIDTH 6 0
BBX 5 7 0 -2
BITMAP
B0
A8
A8
A8
70
20
20
ENDCHAR
STARTCHAR GREEK
ENCODING 967
SWIDTH 360 0
DWIDTH 6 0
BBX 5 7 0 -2
BITMAP
88
88
50
20
50
88
88
ENDCHAR
STARTCHAR GREEK
ENCODING 968
SWIDTH 360 0
DWIDTH 6 0
BBX 5 7 0 -2
BITMAP
A8
A8
A8
70
20
20
20
ENDCHAR
STARTCHAR GREEK
ENCODING 969
SWIDTH 360 0
DWIDTH 6 0
BBX 5 5 0 0
BITMAP
88
88
A8
A8
50
ENDCHAR
STARTCHAR GREEK
ENCODING 970
SWIDTH 360 0
DWIDTH 6 0
BBX 4 7 1 0
BITMAP
A0
00
40
40
40
50
20
ENDCHAR
STARTCHAR GREEK
ENCODING 971
SWIDTH 360 0
DWIDTH 6 0
BBX 5 7 0 0
BITMAP
50
00
88
88
88
88
70
ENDCHAR
STARTCHAR GREEK
ENCODING 972
SWIDTH 360 0
DWIDTH 6 0
BBX 5 8 0 0
BITMAP
10
20
00
70
88
88
88
70
ENDCHAR
STARTCHAR GREEK
ENCODING 973
SWIDTH 360 0
DWIDTH 6 0
BBX 5 8 0 0
BITMAP
10
20
00
88
88
88
88
70
ENDCHAR
STARTCHAR GREEK
ENCODING 974
SWIDTH 360 0
DWIDTH 6 0
BBX 5 8 0 0
BITMAP
10
20
00
88
88
A8
A8
50
ENDCHAR
STARTCHAR GREEK
ENCODING 975
SWIDTH 360 0
DWIDTH 6 0
BBX 5 8 0 -1
BITMAP
88
90
A0
C0
A0
90
88
10
ENDCHAR
STARTCHAR GREEK
ENCODING 976
SWIDTH 360 0
DWIDTH 6 0
BBX 5 7 0 0
BITMAP
60
90
A0
F0
88
88
70
ENDCHAR
STARTCHAR GREEK
ENCODING 977
SWIDTH 360 0
DWIDTH 6 0
BBX 5 7 0 0
BITMAP
70
88
88
78
08
88
70
ENDCHAR
STARTCHAR GREEK
ENCODING 978
SWIDTH 360 0
DWIDTH 6 0
BBX 6 7 0 0
BITMAP
88
8C
88
50
20
20
20
ENDCHAR
STARTCHAR GREEK
ENCODING 979
SWIDTH 360 0
DWIDTH 6 0
BBX 6 8 0 0
BITMAP
40
88
8C
88
50
20
20
20
ENDCHAR
STARTCHAR GREEK
ENCODING 980
SWIDTH 360 0
DWIDTH 6 0
BBX 6 9 0 0
BITMAP
50
00
88
8C
88
50
20
20
20
ENDCHAR
STARTCHAR GREEK
ENCODING 981
SWIDTH 360 0
DWIDTH 6 0
BBX 5 9 0 -2
BITMAP
20
20
70
A8
A8
A8
70
20
20
ENDCHAR
STARTCHAR GREEK
ENCODING 982
SWIDTH 360 0
DWIDTH 6 0
BBX 5 5 0 0
BITMAP
F8
88
A8
A8
50
ENDCHAR
STARTCHAR GREEK
ENCODING 983
SWIDTH 360 0
DWIDTH 6 0
BBX 5 7 0 -2
BITMAP
98
A0
E0
90
88
10
20
ENDCHAR
STARTCHAR GREEK
ENCODING 984
SWIDTH 360 0
DWIDTH 6 0
BBX 5 9 0 -2
BITMAP
70
88
88
88
88
88
70
20
20
ENDCHAR
STARTCHAR GREEK
ENCODING 985
SWIDTH 360 0
DWIDTH 6 0
BBX 5 7 0 -2
BITMAP
70
88
88
88
70
20
20
ENDCHAR
STARTCHAR GREEK
ENCODING 986
SWIDTH 360 0
DWIDTH 6 0
BBX 5 9 0 -2
BITMAP
78
80
80
80
80
80
70
08
30
ENDCHAR
STARTCHAR GREEK
ENCODING 987
SWIDTH 360 0
DWIDTH 6 0
BBX 5 7 0 -2
BITMAP
78
80
80
80
70
08
30
ENDCHAR
STARTCHAR GREEK
ENCODING 988
SWIDTH 360 0
DWIDTH 6 0
BBX 5 7 0 0
BITMAP
F8
80
80
F0
80
80
80
ENDCHAR
STARTCHAR GREEK
ENCODING 989
SWIDTH 360 0
DWIDTH 6 0
BBX 4 7 0 -2
BITMAP
F0
80
80
E0
80
80
80
ENDCHAR
STARTCHAR GREEK
ENCODING 990
SWIDTH 360 0
DWIDTH 6 0
BBX 5 7 0 0
BITMAP
40
40
80
F8
08
10
10
ENDCHAR
STARTCHAR GREEK
ENCODING 991
SWIDTH 360 0
DWIDTH 6 0
BBX 4 7 0 -1
BITMAP
20
40
80
F0
10
20
40
ENDCHAR
STARTCHAR GREEK
ENCODING 992
SWIDTH 360 0
DWIDTH 6 0
BBX 5 9 0 -2
BITMAP
C0
20
30
50
98
28
48
08
08
ENDCHAR
STARTCHAR GREEK
ENCODING 993
SWIDTH 360 0
DWIDTH 6 0
BBX 4 9 0 -2
BITMAP
80
40
20
60
90
30
50
10
10
ENDCHAR
STARTCHAR COPTIC
ENCODING 994
SWIDTH 360 0
DWIDTH 6 0
BBX 5 9 0 -2
BITMAP
A8
A8
A8
A8
A8
A8
58
08
F0
ENDCHAR
STARTCHAR COPTIC
ENCODING 995
SWIDTH 360 0
DWIDTH 6 0
BBX 5 7 0 -2
BITMAP
A8
A8
A8
A8
58
08
F0
ENDCHAR
STARTCHAR COPTIC
ENCODING 996
SWIDTH 360 0
DWIDTH 6 0
BBX 5 7 0 0
BITMAP
68
88
88
78
08
08
08
ENDCHAR
STARTCHAR COPTIC
ENCODING 997
SWIDTH 360 0
DWIDTH 6 0
BBX 4 6 0 0
BITMAP
50
90
90
70
10
10
ENDCHAR
STARTCHAR COPTIC
ENCODING 998
SWIDTH 360 0
DWIDTH 6 0
BBX 5 9 0 -2
BITMAP
80
80
80
F0
88
88
88
08
F0
ENDCHAR
STARTCHAR COPTIC
ENCODING 999
SWIDTH 360 0
DWIDTH 6 0
BBX 5 7 0 -1
BITMAP
10
70
A8
48
08
70
80
ENDCHAR
STARTCHAR COPTIC
ENCODING 1000
SWIDTH 360 0
DWIDTH 6 0
BBX 5 7 0 0
BITMAP
60
90
10
60
80
88
70
ENDCHAR
STARTCHAR COPTIC
ENCODING 1001
SWIDTH 360 0
DWIDTH 6 0
BBX 5 6 0 0
BITMAP
60
90
10
60
88
70
ENDCHAR
STARTCHAR COPTIC
ENCODING 1002
SWIDTH 360 0
DWIDTH 6 0
BBX 5 7 0 0
BITMAP
50
A8
20
50
50
88
F8
ENDCHAR
STARTCHAR COPTIC
ENCODING 1003
SWIDTH 360 0
DWIDTH 6 0
BBX 5 5 0 0
BITMAP
50
A8
20
50
F8
ENDCHAR
STARTCHAR COPTIC
ENCODING 1004
SWIDTH 360 0
DWIDTH 6 0
BBX 5 7 0 0
BITMAP
78
80
F0
88
88
88
70
ENDCHAR
STARTCHAR COPTIC
ENCODING 1005
SWIDTH 360 0
DWIDTH 6 0
BBX 5 7 0 0
BITMAP
70
80
80
F0
88
88
70
ENDCHAR
STARTCHAR COPTIC
ENCODING 1006
SWIDTH 360 0
DWIDTH 6 0
BBX 5 7 0 0
BITMAP
20
78
A0
20
20
20
20
ENDCHAR
STARTCHAR COPTIC
ENCODING 1007
SWIDTH 360 0
DWIDTH 6 0
BBX 5 8 0 -2
BITMAP
20
78
A0
20
20
20
20
40
ENDCHAR
STARTCHAR GREEK
ENCODING 1008
SWIDTH 360 0
DWIDTH 6 0
BBX 5 5 0 0
BITMAP
C8
50
70
50
98
ENDCHAR
STARTCHAR GREEK
ENCODING 1009
SWIDTH 360 0
DWIDTH 6 0
BBX 5 8 0 -3
BITMAP
70
88
88
88
F0
80
70
08
ENDCHAR
STARTCHAR GREEK
ENCODING 1010
SWIDTH 360 0
DWIDTH 6 0
BBX 5 5 0 0
BITMAP
70
88
80
88
70
ENDCHAR
STARTCHAR GREEK
ENCODING 1011
SWIDTH 360 0
DWIDTH 6 0
BBX 3 9 0 -2
BITMAP
20
00
60
20
20
20
20
20
C0
ENDCHAR
STARTCHAR GREEK
ENCODING 1012
SWIDTH 360 0
DWIDTH 6 0
BBX 5 7 0 0
BITMAP
70
88
88
F8
88
88
70
ENDCHAR
STARTCHAR GREEK
ENCODING 1013
SWIDTH 360 0
DWIDTH 6 0
BBX 4 5 0 0
BITMAP
70
80
E0
80
70
ENDCHAR
STARTCHAR GREEK
ENCODING 1014
SWIDTH 360 0
DWIDTH 6 0
BBX 4 5 0 0
BITMAP
E0
10
70
10
E0
ENDCHAR
STARTCHAR GREEK
ENCODING 1015
SWIDTH 360 0
DWIDTH 6 0
BBX 5 7 0 0
BITMAP
80
F0
88
88
88
F0
80
ENDCHAR
STARTCHAR GREEK
ENCODING 1016
SWIDTH 360 0
DWIDTH 6 0
BBX 5 9 0 -2
BITMAP
80
80
F0
88
88
88
F0
80
80
ENDCHAR
STARTCHAR GREEK
ENCODING 1017
SWIDTH 360 0
DWIDTH 6 0
BBX 5 7 0 0
BITMAP
70
88
80
80
80
88
70
ENDCHAR
STARTCHAR GREEK
ENCODING 1018
SWIDTH 360 0
DWIDTH 6 0
BBX 5 7 0 0
BITMAP
88
D8
A8
88
88
88
88
ENDCHAR
STARTCHAR GREEK
ENCODING 1019
SWIDTH 360 0
DWIDTH 6 0
BBX 5 6 0 -2
BITMAP
88
D8
A8
A8
80
80
ENDCHAR
STARTCHAR GREEK
ENCODING 1020
SWIDTH 360 0
DWIDTH 6 0
BBX 5 8 0 -3
BITMAP
70
48
48
48
70
40
F0
40
ENDCHAR
STARTCHAR GREEK
ENCODING 1021
SWIDTH 360 0
DWIDTH 6 0
BBX 5 7 0 0
BITMAP
70
88
08
08
08
88
70
ENDCHAR
STARTCHAR GREEK
ENCODING 1022
SWIDTH 360 0
DWIDTH 6 0
BBX 5 7 0 0
BITMAP
70
88
80
A0
80
88
70
ENDCHAR
STARTCHAR GREEK
ENCODING 1023
SWIDTH 360 0
DWIDTH 6 0
BBX 5 7 0 0
BITMAP
70
88
08
28
08
88
70
ENDCHAR
STARTCHAR CYRILLIC
ENCODING 1024
SWIDTH 360 0
DWIDTH 6 0
BBX 5 9 0 0
BITMAP
40
20
F8
80
80
F0
80
80
F8
ENDCHAR
STARTCHAR CYRILLIC
ENCODING 1025
SWIDTH 360 0
DWIDTH 6 0
BBX 5 9 0 0
BITMAP
50
00
F8
80
80
F0
80
80
F8
ENDCHAR
STARTCHAR CYRILLIC
ENCODING 1026
SWIDTH 360 0
DWIDTH 6 0
BBX 5 8 0 -1
BITMAP
F0
40
70
48
48
48
48
10
ENDCHAR
STARTCHAR CYRILLIC
ENCODING 1027
SWIDTH 360 0
DWIDTH 6 0
BBX 4 9 1 0
BITMAP
20
40
F0
80
80
80
80
80
80
ENDCHAR
STARTCHAR CYRILLIC
ENCODING 1028
SWIDTH 360 0
DWIDTH 6 0
BBX 5 7 0 0
BITMAP
70
88
80
E0
80
88
70
ENDCHAR
STARTCHAR CYRILLIC
ENCODING 1029
SWIDTH 360 0
DWIDTH 6 0
BBX 5 7 0 0
BITMAP
70
88
80
70
08
88
70
ENDCHAR
STARTCHAR CYRILLIC
ENCODING 1030
SWIDTH 360 0
DWIDTH 6 0
BBX 1 7 2 0
BITMAP
80
80
80
80
80
80
80
ENDCHAR
STARTCHAR CYRILLIC
ENCODING 1031
SWIDTH 360 0
DWIDTH 6 0
BBX 3 9 1 0
BITMAP
A0
00
40
40
40
40
40
40
40
ENDCHAR
STARTCHAR CYRILLIC
ENCODING 1032
SWIDTH 360 0
DWIDTH 6 0
BBX 5 7 0 0
BITMAP
08
08
08
08
88
88
70
ENDCHAR
STARTCHAR CYRILLIC
ENCODING 1033
SWIDTH 360 0
DWIDTH 6 0
BBX 6 7 0 0
BITMAP
30
50
50
58
54
54
98
ENDCHAR
STARTCHAR CYRILLIC
ENCODING 1034
SWIDTH 360 0
DWIDTH 6 0
BBX 5 7 0 0
BITMAP
A0
A0
A0
F0
A8
A8
B0
ENDCHAR
STARTCHAR CYRILLIC
ENCODING 1035
SWIDTH 360 0
DWIDTH 6 0
BBX 5 7 0 0
BITMAP
F0
40
70
48
48
48
48
ENDCHAR
STARTCHAR CYRILLIC
ENCODING 1036
SWIDTH 360 0
DWIDTH 6 0
BBX 5 9 0 0
BITMAP
10
20
88
90
A0
C0
A0
90
88
ENDCHAR
STARTCHAR CYRILLIC
ENCODING 1037
SWIDTH 360 0
DWIDTH 6 0
BBX 5 9 0 0
BITMAP
40
20
98
98
A8
A8
A8
C8
C8
ENDCHAR
STARTCHAR CYRILLIC
ENCODING 1038
SWIDTH 360 0
DWIDTH 6 0
BBX 5 9 0 0
BITMAP
50
20
88
88
88
78
08
88
70
ENDCHAR
STARTCHAR CYRILLIC
ENCODING 1039
SWIDTH 360 0
DWIDTH 6 0
BBX 5 9 0 -2
BITMAP
88
88
88
88
88
88
F8
20
20
ENDCHAR
STARTCHAR CYRILLIC
ENCODING 1040
SWIDTH 360 0
DWIDTH 6 0
BBX 5 7 0 0
BITMAP
70
88
88
F8
88
88
88
ENDCHAR
STARTCHAR CYRILLIC
ENCODING 1041
SWIDTH 360 0
DWIDTH 6 0
BBX 5 7 0 0
BITMAP
F0
80
80
F0
88
88
F0
ENDCHAR
STARTCHAR CYRILLIC
ENCODING 1042
SWIDTH 360 0
DWIDTH 6 0
BBX 5 7 0 0
BITMAP
F0
88
88
F0
88
88
F0
ENDCHAR
STARTCHAR CYRILLIC
ENCODING 1043
SWIDTH 360 0
DWIDTH 6 0
BBX 4 7 1 0
BITMAP
F0
80
80
80
80
80
80
ENDCHAR
STARTCHAR CYRILLIC
ENCODING 1044
SWIDTH 360 0
DWIDTH 6 0
BBX 6 9 0 -2
BITMAP
38
48
48
48
48
48
FC
84
84
ENDCHAR
STARTCHAR CYRILLIC
ENCODING 1045
SWIDTH 360 0
DWIDTH 6 0
BBX 5 7 0 0
BITMAP
F8
80
80
F0
80
80
F8
ENDCHAR
STARTCHAR CYRILLIC
ENCODING 1046
SWIDTH 360 0
DWIDTH 6 0
BBX 5 7 0 0
BITMAP
A8
A8
A8
70
A8
A8
A8
ENDCHAR
STARTCHAR CYRILLIC
ENCODING 1047
SWIDTH 360 0
DWIDTH 6 0
BBX 5 7 0 0
BITMAP
70
88
08
30
08
88
70
ENDCHAR
STARTCHAR CYRILLIC
ENCODING 1048
SWIDTH 360 0
DWIDTH 6 0
BBX 5 7 0 0
BITMAP
98
98
A8
A8
A8
C8
C8
ENDCHAR
STARTCHAR CYRILLIC
ENCODING 1049
SWIDTH 360 0
DWIDTH 6 0
BBX 5 9 0 0
BITMAP
50
20
98
98
A8
A8
A8
C8
C8
ENDCHAR
STARTCHAR CYRILLIC
ENCODING 1050
SWIDTH 360 0
DWIDTH 6 0
BBX 5 7 0 0
BITMAP
88
90
A0
C0
A0
90
88
ENDCHAR
STARTCHAR CYRILLIC
ENCODING 1051
SWIDTH 360 0
DWIDTH 6 0
BBX 5 7 0 0
BITMAP
38
48
48
48
48
48
88
ENDCHAR
STARTCHAR CYRILLIC
ENCODING 1052
SWIDTH 360 0
DWIDTH 6 0
BBX 5 7 0 0
BITMAP
88
D8
A8
88
88
88
88
ENDCHAR
STARTCHAR CYRILLIC
ENCODING 1053
SWIDTH 360 0
DWIDTH 6 0
BBX 5 7 0 0
BITMAP
88
88
88
F8
88
88
88
ENDCHAR
STARTCHAR CYRILLIC
ENCODING 1054
SWIDTH 360 0
DWIDTH 6 0
BBX 5 7 0 0
BITMAP
70
88
88
88
88
88
70
ENDCHAR
STARTCHAR CYRILLIC
ENCODING 1055
SWIDTH 360 0
DWIDTH 6 0
BBX 5 7 0 0
BITMAP
F8
88
88
88
88
88
88
ENDCHAR
STARTCHAR CYRILLIC
ENCODING 1056
SWIDTH 360 0
DWIDTH 6 0
BBX 5 7 0 0
BITMAP
F0
88
88
F0
80
80
80
ENDCHAR
STARTCHAR CYRILLIC
ENCODING 1057
SWIDTH 360 0
DWIDTH 6 0
BBX 5 7 0 0
BITMAP
70
88
80
80
80
88
70
ENDCHAR
STARTCHAR CYRILLIC
ENCODING 1058
SWIDTH 360 0
DWIDTH 6 0
BBX 5 7 0 0
BITMAP
F8
20
20
20
20
20
20
ENDCHAR
STARTCHAR CYRILLIC
ENCODING 1059
SWIDTH 360 0
DWIDTH 6 0
BBX 5 7 0 0
BITMAP
88
88
88
78
08
88
70
ENDCHAR
STARTCHAR CYRILLIC
ENCODING 1060
SWIDTH 360 0
DWIDTH 6 0
BBX 5 7 0 0
BITMAP
20
70
A8
A8
A8
70
20
ENDCHAR
STARTCHAR CYRILLIC
ENCODING 1061
SWIDTH 360 0
DWIDTH 6 0
BBX 5 7 0 0
BITMAP
88
88
50
20
50
88
88
ENDCHAR
STARTCHAR CYRILLIC
ENCODING 1062
SWIDTH 360 0
DWIDTH 6 0
BBX 6 9 0 -2
BITMAP
88
88
88
88
88
88
FC
04
04
ENDCHAR
STARTCHAR CYRILLIC
ENCODING 1063
SWIDTH 360 0
DWIDTH 6 0
BBX 5 7 0 0
BITMAP
88
88
88
78
08
08
08
ENDCHAR
STARTCHAR CYRILLIC
ENCODING 1064
SWIDTH 360 0
DWIDTH 6 0
BBX 5 7 0 0
BITMAP
A8
A8
A8
A8
A8
A8
F8
ENDCHAR
STARTCHAR CYRILLIC
ENCODING 1065
SWIDTH 360 0
DWIDTH 6 0
BBX 6 9 0 -2
BITMAP
A8
A8
A8
A8
A8
A8
FC
04
04
ENDCHAR
STARTCHAR CYRILLIC
ENCODING 1066
SWIDTH 360 0
DWIDTH 6 0
BBX 5 7 0 0
BITMAP
C0
40
40
70
48
48
70
ENDCHAR
STARTCHAR CYRILLIC
ENCODING 1067
SWIDTH 360 0
DWIDTH 6 0
BBX 5 7 0 0
BITMAP
88
88
88
E8
98
98
E8
ENDCHAR
STARTCHAR CYRILLIC
ENCODING 1068
SWIDTH 360 0
DWIDTH 6 0
BBX 5 7 0 0
BITMAP
80
80
80
F0
88
88
F0
ENDCHAR
STARTCHAR CYRILLIC
ENCODING 1069
SWIDTH 360 0
DWIDTH 6 0
BBX 5 7 0 0
BITMAP
70
88
08
78
08
88
70
ENDCHAR
STARTCHAR CYRILLIC
ENCODING 1070
SWIDTH 360 0
DWIDTH 6 0
BBX 5 7 0 0
BITMAP
90
A8
A8
E8
A8
A8
90
ENDCHAR
STARTCHAR CYRILLIC
ENCODING 1071
SWIDTH 360 0
DWIDTH 6 0
BBX 5 7 0 0
BITMAP
38
48
48
38
28
48
88
ENDCHAR
STARTCHAR CYRILLIC
ENCODING 1072
SWIDTH 360 0
DWIDTH 6 0
BBX 5 5 0 0
BITMAP
78
88
88
98
68
ENDCHAR
STARTCHAR CYRILLIC
ENCODING 1073
SWIDTH 360 0
DWIDTH 6 0
BBX 5 8 0 0
BITMAP
08
70
80
F0
88
88
88
70
ENDCHAR
STARTCHAR CYRILLIC
ENCODING 1074
SWIDTH 360 0
DWIDTH 6 0
BBX 5 5 0 0
BITMAP
F0
88
F0
88
F0
ENDCHAR
STARTCHAR CYRILLIC
ENCODING 1075
SWIDTH 360 0
DWIDTH 6 0
BBX 4 5 1 0
BITMAP
F0
80
80
80
80
ENDCHAR
STARTCHAR CYRILLIC
ENCODING 1076
SWIDTH 360 0
DWIDTH 6 0
BBX 6 7 0 -2
BITMAP
38
48
48
48
FC
84
84
ENDCHAR
STARTCHAR CYRILLIC
ENCODING 1077
SWIDTH 360 0
DWIDTH 6 0
BBX 5 5 0 0
BITMAP
70
88
F8
80
78
ENDCHAR
STARTCHAR CYRILLIC
ENCODING 1078
SWIDTH 360 0
DWIDTH 6 0
BBX 5 5 0 0
BITMAP
A8
A8
70
A8
A8
ENDCHAR
STARTCHAR CYRILLIC
ENCODING 1079
SWIDTH 360 0
DWIDTH 6 0
BBX 5 5 0 0
BITMAP
70
88
30
88
70
ENDCHAR
STARTCHAR CYRILLIC
ENCODING 1080
SWIDTH 360 0
DWIDTH 6 0
BBX 5 5 0 0
BITMAP
88
98
A8
C8
88
ENDCHAR
STARTCHAR CYRILLIC
ENCODING 1081
SWIDTH 360 0
DWIDTH 6 0
BBX 5 7 0 0
BITMAP
50
20
88
98
A8
C8
88
ENDCHAR
STARTCHAR CYRILLIC
ENCODING 1082
SWIDTH 360 0
DWIDTH 6 0
BBX 5 5 0 0
BITMAP
88
90
E0
90
88
ENDCHAR
STARTCHAR CYRILLIC
ENCODING 1083
SWIDTH 360 0
DWIDTH 6 0
BBX 5 5 0 0
BITMAP
38
48
48
48
88
ENDCHAR
STARTCHAR CYRILLIC
ENCODING 1084
SWIDTH 360 0
DWIDTH 6 0
BBX 5 5 0 0
BITMAP
88
D8
A8
88
88
ENDCHAR
STARTCHAR CYRILLIC
ENCODING 1085
SWIDTH 360 0
DWIDTH 6 0
BBX 5 5 0 0
BITMAP
88
88
F8
88
88
ENDCHAR
STARTCHAR CYRILLIC
ENCODING 1086
SWIDTH 360 0
DWIDTH 6 0
BBX 5 5 0 0
BITMAP
70
88
88
88
70
ENDCHAR
STARTCHAR CYRILLIC
ENCODING 1087
SWIDTH 360 0
DWIDTH 6 0
BBX 5 5 0 0
BITMAP
F8
88
88
88
88
ENDCHAR
STARTCHAR CYRILLIC
ENCODING 1088
SWIDTH 360 0
DWIDTH 6 0
BBX 5 7 0 -2
BITMAP
F0
88
88
88
F0
80
80
ENDCHAR
STARTCHAR CYRILLIC
ENCODING 1089
SWIDTH 360 0
DWIDTH 6 0
BBX 5 5 0 0
BITMAP
70
88
80
88
70
ENDCHAR
STARTCHAR CYRILLIC
ENCODING 1090
SWIDTH 360 0
DWIDTH 6 0
BBX 5 5 0 0
BITMAP
F8
20
20
20
20
ENDCHAR
STARTCHAR CYRILLIC
ENCODING 1091
SWIDTH 360 0
DWIDTH 6 0
BBX 5 7 0 -2
BITMAP
88
88
88
88
78
08
70
ENDCHAR
STARTCHAR CYRILLIC
ENCODING 1092
SWIDTH 360 0
DWIDTH 6 0
BBX 5 9 0 -2
BITMAP
20
20
70
A8
A8
A8
70
20
20
ENDCHAR
STARTCHAR CYRILLIC
ENCODING 1093
SWIDTH 360 0
DWIDTH 6 0
BBX 5 5 0 0
BITMAP
88
50
20
50
88
ENDCHAR
STARTCHAR CYRILLIC
ENCODING 1094
SWIDTH 360 0
DWIDTH 6 0
BBX 6 7 0 -2
BITMAP
88
88
88
88
FC
04
04
ENDCHAR
STARTCHAR CYRILLIC
ENCODING 1095
SWIDTH 360 0
DWIDTH 6 0
BBX 5 5 0 0
BITMAP
88
88
78
08
08
ENDCHAR
STARTCHAR CYRILLIC
ENCODING 1096
SWIDTH 360 0
DWIDTH 6 0
BBX 5 5 0 0
BITMAP
A8
A8
A8
A8
F8
ENDCHAR
STARTCHAR CYRILLIC
ENCODING 1097
SWIDTH 360 0
DWIDTH 6 0
BBX 6 7 0 -2
BITMAP
A8
A8
A8
A8
FC
04
04
ENDCHAR
STARTCHAR CYRILLIC
ENCODING 1098
SWIDTH 360 0
DWIDTH 6 0
BBX 5 5 0 0
BITMAP
C0
40
70
48
70
ENDCHAR
STARTCHAR CYRILLIC
ENCODING 1099
SWIDTH 360 0
DWIDTH 6 0
BBX 5 5 0 0
BITMAP
88
88
E8
98
E8
ENDCHAR
STARTCHAR CYRILLIC
ENCODING 1100
SWIDTH 360 0
DWIDTH 6 0
BBX 5 5 0 0
BITMAP
80
80
F0
88
F0
ENDCHAR
STARTCHAR CYRILLIC
ENCODING 1101
SWIDTH 360 0
DWIDTH 6 0
BBX 5 5 0 0
BITMAP
F0
08
78
08
F0
ENDCHAR
STARTCHAR CYRILLIC
ENCODING 1102
SWIDTH 360 0
DWIDTH 6 0
BBX 5 5 0 0
BITMAP
90
A8
E8
A8
90
ENDCHAR
STARTCHAR CYRILLIC
ENCODING 1103
SWIDTH 360 0
DWIDTH 6 0
BBX 5 5 0 0
BITMAP
78
88
78
48
88
ENDCHAR
STARTCHAR CYRILLIC
ENCODING 1104
SWIDTH 360 0
DWIDTH 6 0
BBX 5 8 0 0
BITMAP
40
20
00
70
88
F8
80
78
ENDCHAR
STARTCHAR CYRILLIC
ENCODING 1105
SWIDTH 360 0
DWIDTH 6 0
BBX 5 7 0 0
BITMAP
50
00
70
88
F8
80
78
ENDCHAR
STARTCHAR CYRILLIC
ENCODING 1106
SWIDTH 360 0
DWIDTH 6 0
BBX 5 8 0 -1
BITMAP
40
40
F0
40
70
48
48
10
ENDCHAR
STARTCHAR CYRILLIC
ENCODING 1107
SWIDTH 360 0
DWIDTH 6 0
BBX 4 8 1 0
BITMAP
20
40
00
F0
80
80
80
80
ENDCHAR
STARTCHAR CYRILLIC
ENCODING 1108
SWIDTH 360 0
DWIDTH 6 0
BBX 5 5 0 0
BITMAP
70
88
E0
80
78
ENDCHAR
STARTCHAR CYRILLIC
ENCODING 1109
SWIDTH 360 0
DWIDTH 6 0
BBX 5 5 0 0
BITMAP
78
80
70
08
F0
ENDCHAR
STARTCHAR CYRILLIC
ENCODING 1110
SWIDTH 360 0
DWIDTH 6 0
BBX 1 7 2 0
BITMAP
80
00
80
80
80
80
80
ENDCHAR
STARTCHAR CYRILLIC
ENCODING 1111
SWIDTH 360 0
DWIDTH 6 0
BBX 3 7 1 0
BITMAP
A0
00
40
40
40
40
40
ENDCHAR
STARTCHAR CYRILLIC
ENCODING 1112
SWIDTH 360 0
DWIDTH 6 0
BBX 3 9 0 -2
BITMAP
20
00
20
20
20
20
20
20
C0
ENDCHAR
STARTCHAR CYRILLIC
ENCODING 1113
SWIDTH 360 0
DWIDTH 6 0
BBX 6 5 0 0
BITMAP
30
50
58
54
98
ENDCHAR
STARTCHAR CYRILLIC
ENCODING 1114
SWIDTH 360 0
DWIDTH 6 0
BBX 5 5 0 0
BITMAP
A0
A0
F0
A8
B0
ENDCHAR
STARTCHAR CYRILLIC
ENCODING 1115
SWIDTH 360 0
DWIDTH 6 0
BBX 5 7 0 0
BITMAP
40
40
F0
40
70
48
48
ENDCHAR
STARTCHAR CYRILLIC
ENCODING 1116
SWIDTH 360 0
DWIDTH 6 0
BBX 5 8 0 0
BITMAP
10
20
00
88
90
E0
90
88
ENDCHAR
STARTCHAR CYRILLIC
ENCODING 1117
SWIDTH 360 0
DWIDTH 6 0
BBX 5 8 0 0
BITMAP
40
20
00
88
98
A8
C8
88
ENDCHAR
STARTCHAR CYRILLIC
ENCODING 1118
SWIDTH 360 0
DWIDTH 6 0
BBX 5 9 0 -2
BITMAP
50
20
88
88
88
88
78
08
70
ENDCHAR
STARTCHAR CYRILLIC
ENCODING 1119
SWIDTH 360 0
DWIDTH 6 0
BBX 5 7 0 -2
BITMAP
88
88
88
88
F8
20
20
ENDCHAR
STARTCHAR CYRILLIC
ENCODING 1120
SWIDTH 360 0
DWIDTH 6 0
BBX 5 7 0 0
BITMAP
A8
A8
A8
A8
A8
A8
50
ENDCHAR
STARTCHAR CYRILLIC
ENCODING 1121
SWIDTH 360 0
DWIDTH 6 0
BBX 5 5 0 0
BITMAP
A8
A8
A8
A8
50
ENDCHAR
STARTCHAR CYRILLIC
ENCODING 1122
SWIDTH 360 0
DWIDTH 6 0
BBX 5 8 0 0
BITMAP
40
E0
40
70
48
48
48
70
ENDCHAR
STARTCHAR CYRILLIC
ENCODING 1123
SWIDTH 360 0
DWIDTH 6 0
BBX 5 7 0 0
BITMAP
40
E0
40
70
48
48
70
ENDCHAR
STARTCHAR CYRILLIC
ENCODING 1124
SWIDTH 360 0
DWIDTH 6 0
BBX 5 7 0 0
BITMAP
90
A8
A0
F0
A0
A8
90
ENDCHAR
STARTCHAR CYRILLIC
ENCODING 1125
SWIDTH 360 0
DWIDTH 6 0
BBX 5 5 0 0
BITMAP
98
A0
F0
A0
98
ENDCHAR
STARTCHAR CYRILLIC
ENCODING 1126
SWIDTH 360 0
DWIDTH 6 0
BBX 5 7 0 0
BITMAP
20
20
50
50
F8
A8
A8
ENDCHAR
STARTCHAR CYRILLIC
ENCODING 1127
SWIDTH 360 0
DWIDTH 6 0
BBX 5 6 0 0
BITMAP
20
20
50
70
A8
A8
ENDCHAR
STARTCHAR CYRILLIC
ENCODING 1128
SWIDTH 360 0
DWIDTH 6 0
BBX 5 7 0 0
BITMAP
A0
A0
D0
D0
F8
A8
A8
ENDCHAR
STARTCHAR CYRILLIC
ENCODING 1129
SWIDTH 360 0
DWIDTH 6 0
BBX 5 6 0 0
BITMAP
A0
A0
D0
F0
A8
A8
ENDCHAR
STARTCHAR CYRILLIC
ENCODING 1130
SWIDTH 360 0
DWIDTH 6 0
BBX 5 7 0 0
BITMAP
F8
88
50
70
A8
A8
A8
ENDCHAR
STARTCHAR CYRILLIC
ENCODING 1131
SWIDTH 360 0
DWIDTH 6 0
BBX 5 5 0 0
BITMAP
70
50
20
70
A8
ENDCHAR
STARTCHAR CYRILLIC
ENCODING 1132
SWIDTH 360 0
DWIDTH 6 0
BBX 5 7 0 0
BITMAP
F0
D0
A0
F0
A8
A8
A8
ENDCHAR
STARTCHAR CYRILLIC
ENCODING 1133
SWIDTH 360 0
DWIDTH 6 0
BBX 5 5 0 0
BITMAP
F0
D0
A0
F0
A8
ENDCHAR
STARTCHAR CYRILLIC
ENCODING 1134
SWIDTH 360 0
DWIDTH 6 0
BBX 4 11 1 -2
BITMAP
A0
40
00
E0
10
60
10
10
60
80
60
ENDCHAR
STARTCHAR CYRILLIC
ENCODING 1135
SWIDTH 360 0
DWIDTH 6 0
BBX 4 10 1 -2
BITMAP
A0
40
00
E0
10
60
10
60
80
40
ENDCHAR
STARTCHAR CYRILLIC
ENCODING 1136
SWIDTH 360 0
DWIDTH 6 0
BBX 5 7 0 0
BITMAP
A8
A8
A8
A8
70
20
20
ENDCHAR
STARTCHAR CYRILLIC
ENCODING 1137
SWIDTH 360 0
DWIDTH 6 0
BBX 5 6 0 0
BITMAP
A8
A8
A8
70
20
20
ENDCHAR
STARTCHAR CYRILLIC
ENCODING 1138
SWIDTH 360 0
DWIDTH 6 0
BBX 5 7 0 0
BITMAP
70
88
88
F8
88
88
70
ENDCHAR
STARTCHAR CYRILLIC
ENCODING 1139
SWIDTH 360 0
DWIDTH 6 0
BBX 5 5 0 0
BITMAP
70
88
F8
88
70
ENDCHAR
STARTCHAR CYRILLIC
ENCODING 1140
SWIDTH 360 0
DWIDTH 6 0
BBX 5 7 0 0
BITMAP
88
90
90
50
50
20
20
ENDCHAR
STARTCHAR CYRILLIC
ENCODING 1141
SWIDTH 360 0
DWIDTH 6 0
BBX 5 5 0 0
BITMAP
88
90
50
50
20
ENDCHAR
STARTCHAR CYRILLIC
ENCODING 1142
SWIDTH 360 0
DWIDTH 6 0
BBX 5 9 0 0
BITMAP
A0
50
00
88
90
50
50
20
20
ENDCHAR
STARTCHAR CYRILLIC
ENCODING 1143
SWIDTH 360 0
DWIDTH 6 0
BBX 5 8 0 0
BITMAP
A0
50
00
88
90
50
50
20
ENDCHAR
STARTCHAR CYRILLIC
ENCODING 1144
SWIDTH 360 0
DWIDTH 6 0
BBX 5 9 0 -2
BITMAP
40
A0
A0
A8
A8
A8
58
08
30
ENDCHAR
STARTCHAR CYRILLIC
ENCODING 1145
SWIDTH 360 0
DWIDTH 6 0
BBX 5 7 0 -2
BITMAP
40
A8
A8
A8
58
08
30
ENDCHAR
STARTCHAR CYRILLIC
ENCODING 1146
SWIDTH 360 0
DWIDTH 6 0
BBX 5 9 0 -1
BITMAP
20
70
A8
88
88
88
A8
70
20
ENDCHAR
STARTCHAR CYRILLIC
ENCODING 1147
SWIDTH 360 0
DWIDTH 6 0
BBX 5 7 0 -1
BITMAP
20
70
A8
88
A8
70
20
ENDCHAR
STARTCHAR CYRILLIC
ENCODING 1148
SWIDTH 360 0
DWIDTH 6 0
BBX 5 9 0 0
BITMAP
60
90
08
20
88
88
88
A8
50
ENDCHAR
STARTCHAR CYRILLIC
ENCODING 1149
SWIDTH 360 0
DWIDTH 6 0
BBX 5 8 0 0
BITMAP
60
90
08
20
88
88
A8
50
ENDCHAR
STARTCHAR CYRILLIC
ENCODING 1150
SWIDTH 360 0
DWIDTH 6 0
BBX 5 9 0 0
BITMAP
F8
A8
00
A8
A8
A8
A8
A8
50
ENDCHAR
STARTCHAR CYRILLIC
ENCODING 1151
SWIDTH 360 0
DWIDTH 6 0
BBX 5 8 0 0
BITMAP
F8
A8
00
A8
A8
A8
A8
50
ENDCHAR
STARTCHAR CYRILLIC
ENCODING 1152
SWIDTH 360 0
DWIDTH 6 0
BBX 5 9 0 -2
BITMAP
70
88
80
80
80
80
70
10
10
ENDCHAR
STARTCHAR CYRILLIC
ENCODING 1153
SWIDTH 360 0
DWIDTH 6 0
BBX 5 7 0 -2
BITMAP
70
88
80
80
70
10
10
ENDCHAR
STARTCHAR CYRILLIC
ENCODING 1154
SWIDTH 360 0
DWIDTH 6 0
BBX 4 8 0 0
BITMAP
10
10
60
30
C0
60
80
80
ENDCHAR
STARTCHAR COMBINING
ENCODING 1155
SWIDTH 360 0
DWIDTH 6 0
BBX 5 3 0 6
BITMAP
08
70
80
ENDCHAR
STARTCHAR COMBINING
ENCODING 1156
SWIDTH 360 0
DWIDTH 6 0
BBX 4 2 2 7
BITMAP
60
90
ENDCHAR
STARTCHAR COMBINING
ENCODING 1157
SWIDTH 360 0
DWIDTH 6 0
BBX 2 3 2 6
BITMAP
C0
80
40
ENDCHAR
STARTCHAR COMBINING
ENCODING 1158
SWIDTH 360 0
DWIDTH 6 0
BBX 2 3 2 6
BITMAP
C0
40
80
ENDCHAR
STARTCHAR CYRILLIC
ENCODING 1162
SWIDTH 360 0
DWIDTH 6 0
BBX 6 11 0 -2
BITMAP
50
20
98
98
A8
A8
A8
C8
CC
08
10
ENDCHAR
STARTCHAR CYRILLIC
ENCODING 1163
SWIDTH 360 0
DWIDTH 6 0
BBX 6 9 0 -2
BITMAP
50
20
88
98
A8
C8
8C
08
10
ENDCHAR
STARTCHAR CYRILLIC
ENCODING 1164
SWIDTH 360 0
DWIDTH 6 0
BBX 6 8 0 0
BITMAP
40
E0
40
78
44
44
44
78
ENDCHAR
STARTCHAR CYRILLIC
ENCODING 1165
SWIDTH 360 0
DWIDTH 6 0
BBX 5 7 0 0
BITMAP
40
E0
40
70
48
48
70
ENDCHAR
STARTCHAR CYRILLIC
ENCODING 1166
SWIDTH 360 0
DWIDTH 6 0
BBX 5 7 0 0
BITMAP
F0
88
A8
F0
90
80
80
ENDCHAR
STARTCHAR CYRILLIC
ENCODING 1167
SWIDTH 360 0
DWIDTH 6 0
BBX 5 7 0 -2
BITMAP
F0
88
88
A8
F0
90
80
ENDCHAR
STARTCHAR CYRILLIC
ENCODING 1168
SWIDTH 360 0
DWIDTH 6 0
BBX 4 9 0 0
BITMAP
10
10
F0
80
80
80
80
80
80
ENDCHAR
STARTCHAR CYRILLIC
ENCODING 1169
SWIDTH 360 0
DWIDTH 6 0
BBX 4 7 0 0
BITMAP
10
10
F0
80
80
80
80
ENDCHAR
STARTCHAR CYRILLIC
ENCODING 1170
SWIDTH 360 0
DWIDTH 6 0
BBX 5 7 0 0
BITMAP
78
40
40
F0
40
40
40
ENDCHAR
STARTCHAR CYRILLIC
ENCODING 1171
SWIDTH 360 0
DWIDTH 6 0
BBX 5 5 0 0
BITMAP
78
40
F0
40
40
ENDCHAR
STARTCHAR CYRILLIC
ENCODING 1172
SWIDTH 360 0
DWIDTH 6 0
BBX 5 9 0 -2
BITMAP
F0
80
80
F0
88
88
08
88
70
ENDCHAR
STARTCHAR CYRILLIC
ENCODING 1173
SWIDTH 360 0
DWIDTH 6 0
BBX 5 8 0 -3
BITMAP
F0
80
80
F0
88
08
88
70
ENDCHAR
STARTCHAR CYRILLIC
ENCODING 1174
SWIDTH 360 0
DWIDTH 6 0
BBX 6 9 0 -2
BITMAP
A8
A8
A8
70
A8
A8
AC
04
04
ENDCHAR
STARTCHAR CYRILLIC
ENCODING 1175
SWIDTH 360 0
DWIDTH 6 0
BBX 6 7 0 -2
BITMAP
A8
A8
70
A8
AC
04
04
ENDCHAR
STARTCHAR CYRILLIC
ENCODING 1176
SWIDTH 360 0
DWIDTH 6 0
BBX 5 9 0 -2
BITMAP
70
88
08
30
08
88
70
20
20
ENDCHAR
STARTCHAR CYRILLIC
ENCODING 1177
SWIDTH 360 0
DWIDTH 6 0
BBX 5 7 0 -2
BITMAP
70
88
30
88
70
20
20
ENDCHAR
STARTCHAR CYRILLIC
ENCODING 1178
SWIDTH 360 0
DWIDTH 6 0
BBX 5 9 0 -2
BITMAP
98
A0
C0
C0
A0
90
88
08
08
ENDCHAR
STARTCHAR CYRILLIC
ENCODING 1179
SWIDTH 360 0
DWIDTH 6 0
BBX 5 9 0 -2
BITMAP
80
80
98
A0
C0
A0
90
08
08
ENDCHAR
STARTCHAR CYRILLIC
ENCODING 1180
SWIDTH 360 0
DWIDTH 6 0
BBX 5 7 0 0
BITMAP
88
A8
A8
F0
A8
A8
88
ENDCHAR
STARTCHAR CYRILLIC
ENCODING 1181
SWIDTH 360 0
DWIDTH 6 0
BBX 5 7 0 0
BITMAP
80
80
A8
A8
F0
A8
A8
ENDCHAR
STARTCHAR CYRILLIC
ENCODING 1182
SWIDTH 360 0
DWIDTH 6 0
BBX 5 7 0 0
BITMAP
88
D0
90
E0
A0
90
88
ENDCHAR
STARTCHAR CYRILLIC
ENCODING 1183
SWIDTH 360 0
DWIDTH 6 0
BBX 5 7 0 0
BITMAP
80
C8
90
90
E0
90
88
ENDCHAR
STARTCHAR CYRILLIC
ENCODING 1184
SWIDTH 360 0
DWIDTH 6 0
BBX 5 7 0 0
BITMAP
C8
50
50
60
50
48
48
ENDCHAR
STARTCHAR CYRILLIC
ENCODING 1185
SWIDTH 360 0
DWIDTH 6 0
BBX 5 5 0 0
BITMAP
C8
50
60
50
48
ENDCHAR
STARTCHAR CYRILLIC
ENCODING 1186
SWIDTH 360 0
DWIDTH 6 0
BBX 6 9 0 -2
BITMAP
88
88
88
F8
88
88
8C
04
04
ENDCHAR
STARTCHAR CYRILLIC
ENCODING 1187
SWIDTH 360 0
DWIDTH 6 0
BBX 6 7 0 -2
BITMAP
88
88
F8
88
8C
04
04
ENDCHAR
STARTCHAR CYRILLIC
ENCODING 1188
SWIDTH 360 0
DWIDTH 6 0
BBX 5 7 0 0
BITMAP
98
90
90
F0
90
90
90
ENDCHAR
STARTCHAR CYRILLIC
ENCODING 1189
SWIDTH 360 0
DWIDTH 6 0
BBX 5 5 0 0
BITMAP
98
90
F0
90
90
ENDCHAR
STARTCHAR CYRILLIC
ENCODING 1190
SWIDTH 360 0
DWIDTH 6 0
BBX 5 9 0 -2
BITMAP
E0
A0
A0
B0
A8
A8
A8
08
30
ENDCHAR
STARTCHAR CYRILLIC
ENCODING 1191
SWIDTH 360 0
DWIDTH 6 0
BBX 5 7 0 -2
BITMAP
E0
A0
B0
A8
A8
08
30
ENDCHAR
STARTCHAR CYRILLIC
ENCODING 1192
SWIDTH 360 0
DWIDTH 6 0
BBX 5 9 0 -2
BITMAP
70
80
90
A8
A8
A8
70
20
18
ENDCHAR
STARTCHAR CYRILLIC
ENCODING 1193
SWIDTH 360 0
DWIDTH 6 0
BBX 5 7 0 -2
BITMAP
70
80
90
A8
70
20
18
ENDCHAR
STARTCHAR CYRILLIC
ENCODING 1194
SWIDTH 360 0
DWIDTH 6 0
BBX 5 9 0 -2
BITMAP
70
88
80
80
80
88
70
20
20
ENDCHAR
STARTCHAR CYRILLIC
ENCODING 1195
SWIDTH 360 0
DWIDTH 6 0
BBX 5 7 0 -2
BITMAP
70
88
80
80
78
20
20
ENDCHAR
STARTCHAR CYRILLIC
ENCODING 1196
SWIDTH 360 0
DWIDTH 6 0
BBX 5 9 0 -2
BITMAP
F8
20
20
20
20
20
30
10
10
ENDCHAR
STARTCHAR CYRILLIC
ENCODING 1197
SWIDTH 360 0
DWIDTH 6 0
BBX 5 7 0 -2
BITMAP
F8
20
20
20
30
10
10
ENDCHAR
STARTCHAR CYRILLIC
ENCODING 1198
SWIDTH 360 0
DWIDTH 6 0
BBX 5 7 0 0
BITMAP
88
88
88
50
20
20
20
ENDCHAR
STARTCHAR CYRILLIC
ENCODING 1199
SWIDTH 360 0
DWIDTH 6 0
BBX 5 7 0 -2
BITMAP
88
88
88
50
20
20
20
ENDCHAR
STARTCHAR CYRILLIC
ENCODING 1200
SWIDTH 360 0
DWIDTH 6 0
BBX 5 7 0 0
BITMAP
88
88
88
50
F8
20
20
ENDCHAR
STARTCHAR CYRILLIC
ENCODING 1201
SWIDTH 360 0
DWIDTH 6 0
BBX 5 7 0 -2
BITMAP
88
88
88
50
F8
20
20
ENDCHAR
STARTCHAR CYRILLIC
ENCODING 1202
SWIDTH 360 0
DWIDTH 6 0
BBX 6 9 0 -2
BITMAP
88
88
50
20
50
88
8C
04
04
ENDCHAR
STARTCHAR CYRILLIC
ENCODING 1203
SWIDTH 360 0
DWIDTH 6 0
BBX 6 7 0 -2
BITMAP
88
50
20
50
8C
04
04
ENDCHAR
STARTCHAR CYRILLIC
ENCODING 1204
SWIDTH 360 0
DWIDTH 6 0
BBX 6 9 0 -2
BITMAP
E8
48
48
48
48
48
7C
04
04
ENDCHAR
STARTCHAR CYRILLIC
ENCODING 1205
SWIDTH 360 0
DWIDTH 6 0
BBX 6 7 0 -2
BITMAP
E8
48
48
48
7C
04
04
ENDCHAR
STARTCHAR CYRILLIC
ENCODING 1206
SWIDTH 360 0
DWIDTH 6 0
BBX 6 9 0 -2
BITMAP
88
88
88
78
08
08
0C
04
04
ENDCHAR
STARTCHAR CYRILLIC
ENCODING 1207
SWIDTH 360 0
DWIDTH 6 0
BBX 6 8 0 -3
BITMAP
88
88
88
78
08
0C
04
04
ENDCHAR
STARTCHAR CYRILLIC
ENCODING 1208
SWIDTH 360 0
DWIDTH 6 0
BBX 5 7 0 0
BITMAP
88
88
A8
78
28
08
08
ENDCHAR
STARTCHAR CYRILLIC
ENCODING 1209
SWIDTH 360 0
DWIDTH 6 0
BBX 5 7 0 -2
BITMAP
88
88
A8
78
28
08
08
ENDCHAR
STARTCHAR CYRILLIC
ENCODING 1210
SWIDTH 360 0
DWIDTH 6 0
BBX 5 7 0 0
BITMAP
80
80
80
F0
88
88
88
ENDCHAR
STARTCHAR CYRILLIC
ENCODING 1211
SWIDTH 360 0
DWIDTH 6 0
BBX 4 6 0 0
BITMAP
80
80
E0
90
90
90
ENDCHAR
STARTCHAR CYRILLIC
ENCODING 1212
SWIDTH 360 0
DWIDTH 6 0
BBX 5 7 0 0
BITMAP
10
A8
A8
78
20
28
10
ENDCHAR
STARTCHAR CYRILLIC
ENCODING 1213
SWIDTH 360 0
DWIDTH 6 0
BBX 5 5 0 0
BITMAP
90
A8
78
20
18
ENDCHAR
STARTCHAR CYRILLIC
ENCODING 1214
SWIDTH 360 0
DWIDTH 6 0
BBX 5 8 0 -1
BITMAP
10
A8
A8
78
20
28
10
08
ENDCHAR
STARTCHAR CYRILLIC
ENCODING 1215
SWIDTH 360 0
DWIDTH 6 0
BBX 5 7 0 -2
BITMAP
90
A8
78
20
18
10
08
ENDCHAR
STARTCHAR CYRILLIC
ENCODING 1216
SWIDTH 360 0
DWIDTH 6 0
BBX 3 7 1 0
BITMAP
E0
40
40
40
40
40
E0
ENDCHAR
STARTCHAR CYRILLIC
ENCODING 1217
SWIDTH 360 0
DWIDTH 6 0
BBX 5 9 0 0
BITMAP
88
70
A8
A8
A8
70
A8
A8
A8
ENDCHAR
STARTCHAR CYRILLIC
ENCODING 1218
SWIDTH 360 0
DWIDTH 6 0
BBX 5 8 0 0
BITMAP
88
70
00
A8
A8
70
A8
A8
ENDCHAR
STARTCHAR CYRILLIC
ENCODING 1219
SWIDTH 360 0
DWIDTH 6 0
BBX 5 9 0 -2
BITMAP
98
A0
A0
C0
F0
88
88
08
70
ENDCHAR
STARTCHAR CYRILLIC
ENCODING 1220
SWIDTH 360 0
DWIDTH 6 0
BBX 5 7 0 -2
BITMAP
98
A0
C0
F0
88
08
70
ENDCHAR
STARTCHAR CYRILLIC
ENCODING 1221
SWIDTH 360 0
DWIDTH 6 0
BBX 5 9 0 -2
BITMAP
70
50
50
50
50
50
98
08
10
ENDCHAR
STARTCHAR CYRILLIC
ENCODING 1222
SWIDTH 360 0
DWIDTH 6 0
BBX 5 7 0 -2
BITMAP
70
50
50
50
98
08
10
ENDCHAR
STARTCHAR CYRILLIC
ENCODING 1223
SWIDTH 360 0
DWIDTH 6 0
BBX 5 9 0 -2
BITMAP
88
88
88
F8
88
88
88
08
70
ENDCHAR
STARTCHAR CYRILLIC
ENCODING 1224
SWIDTH 360 0
DWIDTH 6 0
BBX 5 7 0 -2
BITMAP
88
88
F8
88
88
08
30
ENDCHAR
STARTCHAR CYRILLIC
ENCODING 1225
SWIDTH 360 0
DWIDTH 6 0
BBX 6 9 0 -2
BITMAP
88
88
88
F8
88
88
8C
04
08
ENDCHAR
STARTCHAR CYRILLIC
ENCODING 1226
SWIDTH 360 0
DWIDTH 6 0
BBX 6 7 0 -2
BITMAP
88
88
F8
88
8C
04
08
ENDCHAR
STARTCHAR CYRILLIC
ENCODING 1227
SWIDTH 360 0
DWIDTH 6 0
BBX 5 9 0 -2
BITMAP
88
88
88
88
78
08
18
10
10
ENDCHAR
STARTCHAR CYRILLIC
ENCODING 1228
SWIDTH 360 0
DWIDTH 6 0
BBX 5 8 0 -3
BITMAP
88
88
88
78
08
18
10
10
ENDCHAR
STARTCHAR CYRILLIC
ENCODING 1229
SWIDTH 360 0
DWIDTH 6 0
BBX 6 9 0 -2
BITMAP
88
D8
A8
88
88
88
8C
04
08
ENDCHAR
STARTCHAR CYRILLIC
ENCODING 1230
SWIDTH 360 0
DWIDTH 6 0
BBX 6 7 0 -2
BITMAP
88
D8
A8
88
8C
04
08
ENDCHAR
STARTCHAR CYRILLIC
ENCODING 1231
SWIDTH 360 0
DWIDTH 6 0
BBX 1 7 2 0
BITMAP
80
80
80
80
80
80
80
ENDCHAR
STARTCHAR CYRILLIC
ENCODING 1232
SWIDTH 360 0
DWIDTH 6 0
BBX 5 9 0 0
BITMAP
88
70
70
88
88
F8
88
88
88
ENDCHAR
STARTCHAR CYRILLIC
ENCODING 1233
SWIDTH 360 0
DWIDTH 6 0
BBX 5 8 0 0
BITMAP
88
70
00
78
88
88
98
68
ENDCHAR
STARTCHAR CYRILLIC
ENCODING 1234
SWIDTH 360 0
DWIDTH 6 0
BBX 5 9 0 0
BITMAP
50
00
70
88
88
F8
88
88
88
ENDCHAR
STARTCHAR CYRILLIC
ENCODING 1235
SWIDTH 360 0
DWIDTH 6 0
BBX 5 7 0 0
BITMAP
50
00
78
88
88
98
68
ENDCHAR
STARTCHAR CYRILLIC
ENCODING 1236
SWIDTH 360 0
DWIDTH 6 0
BBX 5 7 0 0
BITMAP
78
A0
A0
F0
A0
A0
B8
ENDCHAR
STARTCHAR CYRILLIC
ENCODING 1237
SWIDTH 360 0
DWIDTH 6 0
BBX 5 5 0 0
BITMAP
D0
28
78
A0
58
ENDCHAR
STARTCHAR CYRILLIC
ENCODING 1238
SWIDTH 360 0
DWIDTH 6 0
BBX 5 9 0 0
BITMAP
88
70
F8
80
80
F0
80
80
F8
ENDCHAR
STARTCHAR CYRILLIC
ENCODING 1239
SWIDTH 360 0
DWIDTH 6 0
BBX 5 8 0 0
BITMAP
88
70
00
70
88
F8
80
78
ENDCHAR
STARTCHAR CYRILLIC
ENCODING 1240
SWIDTH 360 0
DWIDTH 6 0
BBX 5 7 0 0
BITMAP
70
88
08
F8
88
88
70
ENDCHAR
STARTCHAR CYRILLIC
ENCODING 1241
SWIDTH 360 0
DWIDTH 6 0
BBX 5 5 0 0
BITMAP
F0
08
78
88
70
ENDCHAR
STARTCHAR CYRILLIC
ENCODING 1242
SWIDTH 360 0
DWIDTH 6 0
BBX 5 9 0 0
BITMAP
50
00
70
88
08
F8
88
88
70
ENDCHAR
STARTCHAR CYRILLIC
ENCODING 1243
SWIDTH 360 0
DWIDTH 6 0
BBX 5 7 0 0
BITMAP
50
00
F0
08
78
88
70
ENDCHAR
STARTCHAR CYRILLIC
ENCODING 1244
SWIDTH 360 0
DWIDTH 6 0
BBX 5 9 0 0
BITMAP
50
00
A8
A8
A8
70
A8
A8
A8
ENDCHAR
STARTCHAR CYRILLIC
ENCODING 1245
SWIDTH 360 0
DWIDTH 6 0
BBX 5 7 0 0
BITMAP
50
00
A8
A8
70
A8
A8
ENDCHAR
STARTCHAR CYRILLIC
ENCODING 1246
SWIDTH 360 0
DWIDTH 6 0
BBX 5 9 0 0
BITMAP
50
00
70
88
08
30
08
88
70
ENDCHAR
STARTCHAR CYRILLIC
ENCODING 1247
SWIDTH 360 0
DWIDTH 6 0
BBX 5 7 0 0
BITMAP
50
00
70
88
30
88
70
ENDCHAR
STARTCHAR CYRILLIC
ENCODING 1248
SWIDTH 360 0
DWIDTH 6 0
BBX 5 7 0 0
BITMAP
F8
10
20
70
08
88
70
ENDCHAR
STARTCHAR CYRILLIC
ENCODING 1249
SWIDTH 360 0
DWIDTH 6 0
BBX 4 7 0 0
BITMAP
F0
20
40
E0
10
90
60
ENDCHAR
STARTCHAR CYRILLIC
ENCODING 1250
SWIDTH 360 0
DWIDTH 6 0
BBX 5 9 0 0
BITMAP
70
00
98
98
A8
A8
A8
C8
C8
ENDCHAR
STARTCHAR CYRILLIC
ENCODING 1251
SWIDTH 360 0
DWIDTH 6 0
BBX 5 7 0 0
BITMAP
70
00
88
98
A8
C8
88
ENDCHAR
STARTCHAR CYRILLIC
ENCODING 1252
SWIDTH 360 0
DWIDTH 6 0
BBX 5 9 0 0
BITMAP
50
00
98
98
A8
A8
A8
C8
C8
ENDCHAR
STARTCHAR CYRILLIC
ENCODING 1253
SWIDTH 360 0
DWIDTH 6 0
BBX 5 7 0 0
BITMAP
50
00
88
98
A8
C8
88
ENDCHAR
STARTCHAR CYRILLIC
ENCODING 1254
SWIDTH 360 0
DWIDTH 6 0
BBX 5 9 0 0
BITMAP
50
00
70
88
88
88
88
88
70
ENDCHAR
STARTCHAR CYRILLIC
ENCODING 1255
SWIDTH 360 0
DWIDTH 6 0
BBX 5 7 0 0
BITMAP
50
00
70
88
88
88
70
ENDCHAR
STARTCHAR CYRILLIC
ENCODING 1256
SWIDTH 360 0
DWIDTH 6 0
BBX 5 7 0 0
BITMAP
70
88
88
F8
88
88
70
ENDCHAR
STARTCHAR CYRILLIC
ENCODING 1257
SWIDTH 360 0
DWIDTH 6 0
BBX 5 5 0 0
BITMAP
70
88
F8
88
70
ENDCHAR
STARTCHAR CYRILLIC
ENCODING 1258
SWIDTH 360 0
DWIDTH 6 0
BBX 5 9 0 0
BITMAP
50
00
70
88
88
F8
88
88
70
ENDCHAR
STARTCHAR CYRILLIC
ENCODING 1259
SWIDTH 360 0
DWIDTH 6 0
BBX 5 7 0 0
BITMAP
50
00
70
88
F8
88
70
ENDCHAR
STARTCHAR CYRILLIC
ENCODING 1260
SWIDTH 360 0
DWIDTH 6 0
BBX 5 9 0 0
BITMAP
50
00
70
88
08
38
08
88
70
ENDCHAR
STARTCHAR CYRILLIC
ENCODING 1261
SWIDTH 360 0
DWIDTH 6 0
BBX 5 7 0 0
BITMAP
50
00
70
88
38
88
70
ENDCHAR
STARTCHAR CYRILLIC
ENCODING 1262
SWIDTH 360 0
DWIDTH 6 0
BBX 5 9 0 0
BITMAP
70
00
88
88
88
50
20
20
C0
ENDCHAR
STARTCHAR CYRILLIC
ENCODING 1263
SWIDTH 360 0
DWIDTH 6 0
BBX 5 9 0 -2
BITMAP
70
00
88
88
88
88
78
08
70
ENDCHAR
STARTCHAR CYRILLIC
ENCODING 1264
SWIDTH 360 0
DWIDTH 6 0
BBX 5 9 0 0
BITMAP
50
00
88
88
88
50
20
20
C0
ENDCHAR
STARTCHAR CYRILLIC
ENCODING 1265
SWIDTH 360 0
DWIDTH 6 0
BBX 5 9 0 -2
BITMAP
50
00
88
88
88
88
78
08
70
ENDCHAR
STARTCHAR CYRILLIC
ENCODING 1266
SWIDTH 360 0
DWIDTH 6 0
BBX 5 9 0 0
BITMAP
28
50
88
88
88
50
20
20
C0
ENDCHAR
STARTCHAR CYRILLIC
ENCODING 1267
SWIDTH 360 0
DWIDTH 6 0
BBX 5 10 0 -2
BITMAP
28
50
00
88
88
88
88
78
08
70
ENDCHAR
STARTCHAR CYRILLIC
ENCODING 1268
SWIDTH 360 0
DWIDTH 6 0
BBX 5 9 0 0
BITMAP
50
00
88
88
88
78
08
08
08
ENDCHAR
STARTCHAR CYRILLIC
ENCODING 1269
SWIDTH 360 0
DWIDTH 6 0
BBX 5 8 0 -1
BITMAP
50
00
88
88
88
78
08
08
ENDCHAR
STARTCHAR CYRILLIC
ENCODING 1270
SWIDTH 360 0
DWIDTH 6 0
BBX 5 9 0 -2
BITMAP
F8
80
80
80
80
80
C0
40
40
ENDCHAR
STARTCHAR CYRILLIC
ENCODING 1271
SWIDTH 360 0
DWIDTH 6 0
BBX 4 7 0 -2
BITMAP
F0
80
80
80
C0
40
40
ENDCHAR
STARTCHAR CYRILLIC
ENCODING 1272
SWIDTH 360 0
DWIDTH 6 0
BBX 5 9 0 0
BITMAP
50
00
88
88
C8
A8
A8
A8
C8
ENDCHAR
STARTCHAR CYRILLIC
ENCODING 1273
SWIDTH 360 0
DWIDTH 6 0
BBX 5 8 0 0
BITMAP
50
00
88
88
C8
A8
A8
C8
ENDCHAR
STARTCHAR CYRILLIC
ENCODING 1274
SWIDTH 360 0
DWIDTH 6 0
BBX 5 10 0 -2
BITMAP
78
40
40
F0
40
40
40
60
20
40
ENDCHAR
STARTCHAR CYRILLIC
ENCODING 1275
SWIDTH 360 0
DWIDTH 6 0
BBX 5 7 0 -2
BITMAP
78
40
E0
40
60
20
40
ENDCHAR
STARTCHAR CYRILLIC
ENCODING 1276
SWIDTH 360 0
DWIDTH 6 0
BBX 5 9 0 -2
BITMAP
88
88
50
20
50
88
88
08
10
ENDCHAR
STARTCHAR CYRILLIC
ENCODING 1277
SWIDTH 360 0
DWIDTH 6 0
BBX 5 7 0 -2
BITMAP
88
50
20
50
88
08
10
ENDCHAR
STARTCHAR CYRILLIC
ENCODING 1278
SWIDTH 360 0
DWIDTH 6 0
BBX 5 7 0 0
BITMAP
88
88
50
F8
50
88
88
ENDCHAR
STARTCHAR CYRILLIC
ENCODING 1279
SWIDTH 360 0
DWIDTH 6 0
BBX 5 5 0 0
BITMAP
88
50
F8
50
88
ENDCHAR
STARTCHAR HEBREW
ENCODING 1470
SWIDTH 360 0
DWIDTH 6 0
BBX 4 2 1 3
BITMAP
F0
F0
ENDCHAR
STARTCHAR HEBREW
ENCODING 1472
SWIDTH 360 0
DWIDTH 6 0
BBX 1 6 2 0
BITMAP
80
80
80
80
80
80
ENDCHAR
STARTCHAR HEBREW
ENCODING 1475
SWIDTH 360 0
DWIDTH 6 0
BBX 2 6 2 0
BITMAP
C0
C0
00
00
C0
C0
ENDCHAR
STARTCHAR HEBREW
ENCODING 1478
SWIDTH 360 0
DWIDTH 6 0
BBX 3 5 1 0
BITMAP
60
80
80
80
E0
ENDCHAR
STARTCHAR HEBREW
ENCODING 1488
SWIDTH 360 0
DWIDTH 6 0
BBX 5 5 0 0
BITMAP
98
48
A8
90
C8
ENDCHAR
STARTCHAR HEBREW
ENCODING 1489
SWIDTH 360 0
DWIDTH 6 0
BBX 5 5 0 0
BITMAP
E0
10
10
10
F8
ENDCHAR
STARTCHAR HEBREW
ENCODING 1490
SWIDTH 360 0
DWIDTH 6 0
BBX 4 5 1 0
BITMAP
60
20
20
20
D0
ENDCHAR
STARTCHAR HEBREW
ENCODING 1491
SWIDTH 360 0
DWIDTH 6 0
BBX 5 5 0 0
BITMAP
F8
10
10
10
10
ENDCHAR
STARTCHAR HEBREW
ENCODING 1492
SWIDTH 360 0
DWIDTH 6 0
BBX 5 5 0 0
BITMAP
F0
08
88
88
88
ENDCHAR
STARTCHAR HEBREW
ENCODING 1493
SWIDTH 360 0
DWIDTH 6 0
BBX 1 5 2 0
BITMAP
80
80
80
80
80
ENDCHAR
STARTCHAR HEBREW
ENCODING 1494
SWIDTH 360 0
DWIDTH 6 0
BBX 3 5 1 0
BITMAP
E0
20
40
40
40
ENDCHAR
STARTCHAR HEBREW
ENCODING 1495
SWIDTH 360 0
DWIDTH 6 0
BBX 5 5 0 0
BITMAP
F0
88
88
88
88
ENDCHAR
STARTCHAR HEBREW
ENCODING 1496
SWIDTH 360 0
DWIDTH 6 0
BBX 5 5 0 0
BITMAP
B8
A8
88
88
70
ENDCHAR
STARTCHAR HEBREW
ENCODING 1497
SWIDTH 360 0
DWIDTH 6 0
BBX 1 3 2 2
BITMAP
80
80
80
ENDCHAR
STARTCHAR HEBREW
ENCODING 1498
SWIDTH 360 0
DWIDTH 6 0
BBX 5 7 0 -2
BITMAP
F0
08
08
08
08
08
08
ENDCHAR
STARTCHAR HEBREW
ENCODING 1499
SWIDTH 360 0
DWIDTH 6 0
BBX 5 5 0 0
BITMAP
F0
08
08
08
F0
ENDCHAR
STARTCHAR HEBREW
ENCODING 1500
SWIDTH 360 0
DWIDTH 6 0
BBX 5 7 0 0
BITMAP
80
80
F8
08
08
10
20
ENDCHAR
STARTCHAR HEBREW
ENCODING 1501
SWIDTH 360 0
DWIDTH 6 0
BBX 5 5 0 0
BITMAP
F0
88
88
88
F8
ENDCHAR
STARTCHAR HEBREW
ENCODING 1502
SWIDTH 360 0
DWIDTH 6 0
BBX 5 5 0 0
BITMAP
B0
48
88
88
B8
ENDCHAR
STARTCHAR HEBREW
ENCODING 1503
SWIDTH 360 0
DWIDTH 6 0
BBX 1 7 2 -2
BITMAP
80
80
80
80
80
80
80
ENDCHAR
STARTCHAR HEBREW
ENCODING 1504
SWIDTH 360 0
DWIDTH 6 0
BBX 3 5 1 0
BITMAP
C0
20
20
20
E0
ENDCHAR
STARTCHAR HEBREW
ENCODING 1505
SWIDTH 360 0
DWIDTH 6 0
BBX 5 5 0 0
BITMAP
70
88
88
88
70
ENDCHAR
STARTCHAR HEBREW
ENCODING 1506
SWIDTH 360 0
DWIDTH 6 0
BBX 5 5 0 0
BITMAP
48
48
48
48
F0
ENDCHAR
STARTCHAR HEBREW
ENCODING 1507
SWIDTH 360 0
DWIDTH 6 0
BBX 5 7 0 -2
BITMAP
F0
88
88
68
08
08
08
ENDCHAR
STARTCHAR HEBREW
ENCODING 1508
SWIDTH 360 0
DWIDTH 6 0
BBX 5 5 0 0
BITMAP
F0
88
C8
08
F0
ENDCHAR
STARTCHAR HEBREW
ENCODING 1509
SWIDTH 360 0
DWIDTH 6 0
BBX 3 7 1 -2
BITMAP
A0
A0
A0
C0
80
80
80
ENDCHAR
STARTCHAR HEBREW
ENCODING 1510
SWIDTH 360 0
DWIDTH 6 0
BBX 5 5 0 0
BITMAP
88
50
20
10
F8
ENDCHAR
STARTCHAR HEBREW
ENCODING 1511
SWIDTH 360 0
DWIDTH 6 0
BBX 5 7 0 -2
BITMAP
F8
08
88
90
A0
A0
80
ENDCHAR
STARTCHAR HEBREW
ENCODING 1512
SWIDTH 360 0
DWIDTH 6 0
BBX 5 5 0 0
BITMAP
F0
08
08
08
08
ENDCHAR
STARTCHAR HEBREW
ENCODING 1513
SWIDTH 360 0
DWIDTH 6 0
BBX 5 5 0 0
BITMAP
A8
A8
A8
C8
70
ENDCHAR
STARTCHAR HEBREW
ENCODING 1514
SWIDTH 360 0
DWIDTH 6 0
BBX 5 5 0 0
BITMAP
F0
48
48
48
88
ENDCHAR
STARTCHAR char1515
ENCODING 1515
SWIDTH 360 0
DWIDTH 6 0
BBX 3 5 1 0
BITMAP
A0
A0
A0
A0
A0
ENDCHAR
STARTCHAR char1516
ENCODING 1516
SWIDTH 360 0
DWIDTH 6 0
BBX 3 5 1 0
BITMAP
A0
A0
A0
20
20
ENDCHAR
STARTCHAR char1517
ENCODING 1517
SWIDTH 360 0
DWIDTH 6 0
BBX 3 3 1 2
BITMAP
A0
A0
A0
ENDCHAR
STARTCHAR char1518
ENCODING 1518
SWIDTH 360 0
DWIDTH 6 0
BBX 2 2 2 3
BITMAP
40
80
ENDCHAR
STARTCHAR char1519
ENCODING 1519
SWIDTH 360 0
DWIDTH 6 0
BBX 4 2 1 3
BITMAP
50
A0
ENDCHAR
STARTCHAR KANNADA
ENCODING 3232
SWIDTH 360 0
DWIDTH 6 0
BBX 6 7 0 0
BITMAP
18
04
F8
44
54
44
38
ENDCHAR
STARTCHAR THAI
ENCODING 3647
SWIDTH 360 0
DWIDTH 6 0
BBX 5 9 0 -1
BITMAP
20
F0
A8
A8
F0
A8
A8
F0
20
ENDCHAR
STARTCHAR RUNIC
ENCODING 5792
SWIDTH 360 0
DWIDTH 6 0
BBX 5 7 0 0
BITMAP
A8
A8
D0
A0
C0
80
80
ENDCHAR
STARTCHAR RUNIC
ENCODING 5794
SWIDTH 360 0
DWIDTH 6 0
BBX 5 7 0 0
BITMAP
C0
A0
90
88
88
88
88
ENDCHAR
STARTCHAR RUNIC
ENCODING 5795
SWIDTH 360 0
DWIDTH 6 0
BBX 5 7 0 0
BITMAP
C0
A0
90
88
A8
A8
A8
ENDCHAR
STARTCHAR RUNIC
ENCODING 5797
SWIDTH 360 0
DWIDTH 6 0
BBX 5 7 0 0
BITMAP
C0
A0
90
C8
A8
A8
A8
ENDCHAR
STARTCHAR RUNIC
ENCODING 5798
SWIDTH 360 0
DWIDTH 6 0
BBX 3 7 2 0
BITMAP
80
80
C0
A0
C0
80
80
ENDCHAR
STARTCHAR RUNIC
ENCODING 5800
SWIDTH 360 0
DWIDTH 6 0
BBX 3 7 1 0
BITMAP
C0
A0
C0
A0
80
80
80
ENDCHAR
STARTCHAR RUNIC
ENCODING 5801
SWIDTH 360 0
DWIDTH 6 0
BBX 5 7 0 0
BITMAP
88
D0
A8
D0
A0
80
80
ENDCHAR
STARTCHAR RUNIC
ENCODING 5802
SWIDTH 360 0
DWIDTH 6 0
BBX 5 7 0 0
BITMAP
88
D0
A0
C0
A0
80
80
ENDCHAR
STARTCHAR RUNIC
ENCODING 5803
SWIDTH 360 0
DWIDTH 6 0
BBX 4 7 0 0
BITMAP
C0
A0
D0
A0
90
80
80
ENDCHAR
STARTCHAR RUNIC
ENCODING 5804
SWIDTH 360 0
DWIDTH 6 0
BBX 5 7 0 0
BITMAP
A0
60
A0
70
28
30
28
ENDCHAR
STARTCHAR LATIN
ENCODING 7680
SWIDTH 360 0
DWIDTH 6 0
BBX 5 10 0 -3
BITMAP
70
88
88
F8
88
88
88
20
50
20
ENDCHAR
STARTCHAR LATIN
ENCODING 7681
SWIDTH 360 0
DWIDTH 6 0
BBX 5 8 0 -3
BITMAP
70
08
78
88
78
20
50
20
ENDCHAR
STARTCHAR LATIN
ENCODING 7682
SWIDTH 360 0
DWIDTH 6 0
BBX 5 9 0 0
BITMAP
20
00
F0
88
88
F0
88
88
F0
ENDCHAR
STARTCHAR LATIN
ENCODING 7683
SWIDTH 360 0
DWIDTH 6 0
BBX 5 8 0 0
BITMAP
20
80
80
F0
88
88
88
F0
ENDCHAR
STARTCHAR LATIN
ENCODING 7684
SWIDTH 360 0
DWIDTH 6 0
BBX 5 9 0 -2
BITMAP
F0
88
88
F0
88
88
F0
00
20
ENDCHAR
STARTCHAR LATIN
ENCODING 7685
SWIDTH 360 0
DWIDTH 6 0
BBX 5 9 0 -2
BITMAP
80
80
F0
88
88
88
F0
00
20
ENDCHAR
STARTCHAR LATIN
ENCODING 7686
SWIDTH 360 0
DWIDTH 6 0
BBX 5 9 0 -2
BITMAP
F0
88
88
F0
88
88
F0
00
70
ENDCHAR
STARTCHAR LATIN
ENCODING 7687
SWIDTH 360 0
DWIDTH 6 0
BBX 5 9 0 -2
BITMAP
80
80
F0
88
88
88
F0
00
70
ENDCHAR
STARTCHAR LATIN
ENCODING 7688
SWIDTH 360 0
DWIDTH 6 0
BBX 5 12 0 -3
BITMAP
10
20
70
88
80
80
80
88
70
20
10
20
ENDCHAR
STARTCHAR LATIN
ENCODING 7689
SWIDTH 360 0
DWIDTH 6 0
BBX 5 11 0 -3
BITMAP
10
20
00
70
88
80
80
78
20
10
20
ENDCHAR
STARTCHAR LATIN
ENCODING 7690
SWIDTH 360 0
DWIDTH 6 0
BBX 5 9 0 0
BITMAP
20
00
F0
88
88
88
88
88
F0
ENDCHAR
STARTCHAR LATIN
ENCODING 7691
SWIDTH 360 0
DWIDTH 6 0
BBX 5 8 0 0
BITMAP
20
08
08
78
88
88
88
78
ENDCHAR
STARTCHAR LATIN
ENCODING 7692
SWIDTH 360 0
DWIDTH 6 0
BBX 5 9 0 -2
BITMAP
F0
88
88
88
88
88
F0
00
20
ENDCHAR
STARTCHAR LATIN
ENCODING 7693
SWIDTH 360 0
DWIDTH 6 0
BBX 5 9 0 -2
BITMAP
08
08
78
88
88
88
78
00
20
ENDCHAR
STARTCHAR LATIN
ENCODING 7694
SWIDTH 360 0
DWIDTH 6 0
BBX 5 9 0 -2
BITMAP
F0
88
88
88
88
88
F0
00
70
ENDCHAR
STARTCHAR LATIN
ENCODING 7695
SWIDTH 360 0
DWIDTH 6 0
BBX 5 9 0 -2
BITMAP
08
08
78
88
88
88
78
00
70
ENDCHAR
STARTCHAR LATIN
ENCODING 7696
SWIDTH 360 0
DWIDTH 6 0
BBX 5 10 0 -3
BITMAP
F0
88
88
88
88
88
F0
20
20
40
ENDCHAR
STARTCHAR LATIN
ENCODING 7697
SWIDTH 360 0
DWIDTH 6 0
BBX 5 10 0 -3
BITMAP
08
08
78
88
88
88
78
20
20
40
ENDCHAR
STARTCHAR LATIN
ENCODING 7698
SWIDTH 360 0
DWIDTH 6 0
BBX 5 10 0 -3
BITMAP
F0
88
88
88
88
88
F0
00
20
50
ENDCHAR
STARTCHAR LATIN
ENCODING 7699
SWIDTH 360 0
DWIDTH 6 0
BBX 5 10 0 -3
BITMAP
08
08
78
88
88
88
78
00
20
50
ENDCHAR
STARTCHAR LATIN
ENCODING 7700
SWIDTH 360 0
DWIDTH 6 0
BBX 5 9 0 0
BITMAP
40
70
F8
80
80
F0
80
80
F8
ENDCHAR
STARTCHAR LATIN
ENCODING 7701
SWIDTH 360 0
DWIDTH 6 0
BBX 5 9 0 0
BITMAP
40
20
70
00
70
88
F8
80
78
ENDCHAR
STARTCHAR LATIN
ENCODING 7702
SWIDTH 360 0
DWIDTH 6 0
BBX 5 9 0 0
BITMAP
10
70
F8
80
80
F0
80
80
F8
ENDCHAR
STARTCHAR LATIN
ENCODING 7703
SWIDTH 360 0
DWIDTH 6 0
BBX 5 9 0 0
BITMAP
10
20
70
00
70
88
F8
80
78
ENDCHAR
STARTCHAR LATIN
ENCODING 7704
SWIDTH 360 0
DWIDTH 6 0
BBX 5 10 0 -3
BITMAP
F8
80
80
F0
80
80
F8
00
20
50
ENDCHAR
STARTCHAR LATIN
ENCODING 7705
SWIDTH 360 0
DWIDTH 6 0
BBX 5 8 0 -3
BITMAP
70
88
F8
80
78
00
20
50
ENDCHAR
STARTCHAR LATIN
ENCODING 7706
SWIDTH 360 0
DWIDTH 6 0
BBX 5 10 0 -3
BITMAP
F8
80
80
F0
80
80
F8
00
68
B0
ENDCHAR
STARTCHAR LATIN
ENCODING 7707
SWIDTH 360 0
DWIDTH 6 0
BBX 5 8 0 -3
BITMAP
70
88
F8
80
78
00
68
B0
ENDCHAR
STARTCHAR LATIN
ENCODING 7708
SWIDTH 360 0
DWIDTH 6 0
BBX 5 12 0 -3
BITMAP
88
70
F8
80
80
F0
80
80
F8
20
10
20
ENDCHAR
STARTCHAR LATIN
ENCODING 7709
SWIDTH 360 0
DWIDTH 6 0
BBX 5 11 0 -3
BITMAP
88
70
00
70
88
F8
80
78
20
10
20
ENDCHAR
STARTCHAR LATIN
ENCODING 7710
SWIDTH 360 0
DWIDTH 6 0
BBX 5 9 0 0
BITMAP
20
00
F8
80
80
F0
80
80
80
ENDCHAR
STARTCHAR LATIN
ENCODING 7711
SWIDTH 360 0
DWIDTH 6 0
BBX 4 9 0 0
BITMAP
20
00
30
40
40
E0
40
40
40
ENDCHAR
STARTCHAR LATIN
ENCODING 7712
SWIDTH 360 0
DWIDTH 6 0
BBX 5 9 0 0
BITMAP
70
00
70
88
80
98
88
88
70
ENDCHAR
STARTCHAR LATIN
ENCODING 7713
SWIDTH 360 0
DWIDTH 6 0
BBX 5 9 0 -2
BITMAP
70
00
78
88
88
88
78
08
70
ENDCHAR
STARTCHAR LATIN
ENCODING 7714
SWIDTH 360 0
DWIDTH 6 0
BBX 5 9 0 0
BITMAP
20
00
88
88
88
F8
88
88
88
ENDCHAR
STARTCHAR LATIN
ENCODING 7715
SWIDTH 360 0
DWIDTH 6 0
BBX 5 8 0 0
BITMAP
20
80
80
F0
88
88
88
88
ENDCHAR
STARTCHAR LATIN
ENCODING 7716
SWIDTH 360 0
DWIDTH 6 0
BBX 5 9 0 -2
BITMAP
88
88
88
F8
88
88
88
00
20
ENDCHAR
STARTCHAR LATIN
ENCODING 7717
SWIDTH 360 0
DWIDTH 6 0
BBX 5 9 0 -2
BITMAP
80
80
F0
88
88
88
88
00
20
ENDCHAR
STARTCHAR LATIN
ENCODING 7718
SWIDTH 360 0
DWIDTH 6 0
BBX 5 9 0 0
BITMAP
50
00
88
88
88
F8
88
88
88
ENDCHAR
STARTCHAR LATIN
ENCODING 7719
SWIDTH 360 0
DWIDTH 6 0
BBX 5 9 0 0
BITMAP
50
00
80
80
F0
88
88
88
88
ENDCHAR
STARTCHAR LATIN
ENCODING 7720
SWIDTH 360 0
DWIDTH 6 0
BBX 5 9 0 -2
BITMAP
88
88
88
F8
88
88
88
40
80
ENDCHAR
STARTCHAR LATIN
ENCODING 7721
SWIDTH 360 0
DWIDTH 6 0
BBX 5 9 0 -2
BITMAP
80
80
F0
88
88
88
88
40
80
ENDCHAR
STARTCHAR LATIN
ENCODING 7722
SWIDTH 360 0
DWIDTH 6 0
BBX 5 10 0 -3
BITMAP
88
88
88
F8
88
88
88
00
88
70
ENDCHAR
STARTCHAR LATIN
ENCODING 7723
SWIDTH 360 0
DWIDTH 6 0
BBX 5 10 0 -3
BITMAP
80
80
F0
88
88
88
88
00
88
70
ENDCHAR
STARTCHAR LATIN
ENCODING 7724
SWIDTH 360 0
DWIDTH 6 0
BBX 5 10 0 -3
BITMAP
70
20
20
20
20
20
70
00
68
B0
ENDCHAR
STARTCHAR LATIN
ENCODING 7725
SWIDTH 360 0
DWIDTH 6 0
BBX 5 10 0 -3
BITMAP
20
00
60
20
20
20
30
00
68
B0
ENDCHAR
STARTCHAR LATIN
ENCODING 7726
SWIDTH 360 0
DWIDTH 6 0
BBX 3 9 1 0
BITMAP
20
E0
00
E0
40
40
40
40
E0
ENDCHAR
STARTCHAR LATIN
ENCODING 7727
SWIDTH 360 0
DWIDTH 6 0
BBX 3 9 1 0
BITMAP
20
40
A0
00
C0
40
40
40
60
ENDCHAR
STARTCHAR LATIN
ENCODING 7728
SWIDTH 360 0
DWIDTH 6 0
BBX 5 9 0 0
BITMAP
10
20
88
90
A0
C0
A0
90
88
ENDCHAR
STARTCHAR LATIN
ENCODING 7729
SWIDTH 360 0
DWIDTH 6 0
BBX 5 9 0 0
BITMAP
10
20
80
80
90
A0
E0
90
88
ENDCHAR
STARTCHAR LATIN
ENCODING 7730
SWIDTH 360 0
DWIDTH 6 0
BBX 5 9 0 -2
BITMAP
88
90
A0
C0
A0
90
88
00
20
ENDCHAR
STARTCHAR LATIN
ENCODING 7731
SWIDTH 360 0
DWIDTH 6 0
BBX 5 9 0 -2
BITMAP
80
80
90
A0
E0
90
88
00
20
ENDCHAR
STARTCHAR LATIN
ENCODING 7732
SWIDTH 360 0
DWIDTH 6 0
BBX 5 9 0 -2
BITMAP
88
90
A0
C0
A0
90
88
00
70
ENDCHAR
STARTCHAR LATIN
ENCODING 7733
SWIDTH 360 0
DWIDTH 6 0
BBX 5 9 0 -2
BITMAP
80
80
90
A0
E0
90
88
00
70
ENDCHAR
STARTCHAR LATIN
ENCODING 7734
SWIDTH 360 0
DWIDTH 6 0
BBX 5 9 0 -2
BITMAP
80
80
80
80
80
80
F8
00
20
ENDCHAR
STARTCHAR LATIN
ENCODING 7735
SWIDTH 360 0
DWIDTH 6 0
BBX 3 9 1 -2
BITMAP
C0
40
40
40
40
40
60
00
40
ENDCHAR
STARTCHAR LATIN
ENCODING 7736
SWIDTH 360 0
DWIDTH 6 0
BBX 5 11 0 -2
BITMAP
70
00
80
80
80
80
80
80
F8
00
20
ENDCHAR
STARTCHAR LATIN
ENCODING 7737
SWIDTH 360 0
DWIDTH 6 0
BBX 3 11 1 -2
BITMAP
E0
00
C0
40
40
40
40
40
60
00
40
ENDCHAR
STARTCHAR LATIN
ENCODING 7738
SWIDTH 360 0
DWIDTH 6 0
BBX 5 9 0 -2
BITMAP
80
80
80
80
80
80
F8
00
70
ENDCHAR
STARTCHAR LATIN
ENCODING 7739
SWIDTH 360 0
DWIDTH 6 0
BBX 3 9 1 -2
BITMAP
C0
40
40
40
40
40
60
00
E0
ENDCHAR
STARTCHAR LATIN
ENCODING 7740
SWIDTH 360 0
DWIDTH 6 0
BBX 5 10 0 -3
BITMAP
80
80
80
80
80
80
F8
00
20
50
ENDCHAR
STARTCHAR LATIN
ENCODING 7741
SWIDTH 360 0
DWIDTH 6 0
BBX 3 10 1 -3
BITMAP
C0
40
40
40
40
40
60
00
40
A0
ENDCHAR
STARTCHAR LATIN
ENCODING 7742
SWIDTH 360 0
DWIDTH 6 0
BBX 5 9 0 0
BITMAP
10
20
88
D8
A8
88
88
88
88
ENDCHAR
STARTCHAR LATIN
ENCODING 7743
SWIDTH 360 0
DWIDTH 6 0
BBX 5 8 0 0
BITMAP
10
20
00
F0
A8
A8
A8
A8
ENDCHAR
STARTCHAR LATIN
ENCODING 7744
SWIDTH 360 0
DWIDTH 6 0
BBX 5 9 0 0
BITMAP
20
00
88
D8
A8
88
88
88
88
ENDCHAR
STARTCHAR LATIN
ENCODING 7745
SWIDTH 360 0
DWIDTH 6 0
BBX 5 7 0 0
BITMAP
20
00
F0
A8
A8
A8
A8
ENDCHAR
STARTCHAR LATIN
ENCODING 7746
SWIDTH 360 0
DWIDTH 6 0
BBX 5 9 0 -2
BITMAP
88
D8
A8
88
88
88
88
00
20
ENDCHAR
STARTCHAR LATIN
ENCODING 7747
SWIDTH 360 0
DWIDTH 6 0
BBX 5 7 0 -2
BITMAP
F0
A8
A8
A8
A8
00
20
ENDCHAR
STARTCHAR LATIN
ENCODING 7748
SWIDTH 360 0
DWIDTH 6 0
BBX 5 9 0 0
BITMAP
20
00
C8
C8
A8
A8
A8
98
98
ENDCHAR
STARTCHAR LATIN
ENCODING 7749
SWIDTH 360 0
DWIDTH 6 0
BBX 5 7 0 0
BITMAP
20
00
B0
C8
88
88
88
ENDCHAR
STARTCHAR LATIN
ENCODING 7750
SWIDTH 360 0
DWIDTH 6 0
BBX 5 9 0 -2
BITMAP
C8
C8
A8
A8
A8
98
98
00
20
ENDCHAR
STARTCHAR LATIN
ENCODING 7751
SWIDTH 360 0
DWIDTH 6 0
BBX 5 7 0 -2
BITMAP
B0
C8
88
88
88
00
20
ENDCHAR
STARTCHAR LATIN
ENCODING 7752
SWIDTH 360 0
DWIDTH 6 0
BBX 5 9 0 -2
BITMAP
C8
C8
A8
A8
A8
98
98
00
70
ENDCHAR
STARTCHAR LATIN
ENCODING 7753
SWIDTH 360 0
DWIDTH 6 0
BBX 5 7 0 -2
BITMAP
B0
C8
88
88
88
00
70
ENDCHAR
STARTCHAR LATIN
ENCODING 7754
SWIDTH 360 0
DWIDTH 6 0
BBX 5 10 0 -3
BITMAP
C8
C8
A8
A8
A8
98
98
00
20
50
ENDCHAR
STARTCHAR LATIN
ENCODING 7755
SWIDTH 360 0
DWIDTH 6 0
BBX 5 8 0 -3
BITMAP
B0
C8
88
88
88
00
20
50
ENDCHAR
STARTCHAR LATIN
ENCODING 7756
SWIDTH 360 0
DWIDTH 6 0
BBX 5 9 0 0
BITMAP
10
68
B0
70
88
88
88
88
70
ENDCHAR
STARTCHAR LATIN
ENCODING 7757
SWIDTH 360 0
DWIDTH 6 0
BBX 5 9 0 0
BITMAP
10
20
68
90
70
88
88
88
70
ENDCHAR
STARTCHAR LATIN
ENCODING 7758
SWIDTH 360 0
DWIDTH 6 0
BBX 5 9 0 0
BITMAP
50
68
90
70
88
88
88
88
70
ENDCHAR
STARTCHAR LATIN
ENCODING 7759
SWIDTH 360 0
DWIDTH 6 0
BBX 5 9 0 0
BITMAP
50
00
68
90
70
88
88
88
70
ENDCHAR
STARTCHAR LATIN
ENCODING 7760
SWIDTH 360 0
DWIDTH 6 0
BBX 5 9 0 0
BITMAP
40
70
00
70
88
88
88
88
70
ENDCHAR
STARTCHAR LATIN
ENCODING 7761
SWIDTH 360 0
DWIDTH 6 0
BBX 5 9 0 0
BITMAP
40
20
70
00
70
88
88
88
70
ENDCHAR
STARTCHAR LATIN
ENCODING 7762
SWIDTH 360 0
DWIDTH 6 0
BBX 5 9 0 0
BITMAP
10
70
00
70
88
88
88
88
70
ENDCHAR
STARTCHAR LATIN
ENCODING 7763
SWIDTH 360 0
DWIDTH 6 0
BBX 5 9 0 0
BITMAP
10
20
70
00
70
88
88
88
70
ENDCHAR
STARTCHAR LATIN
ENCODING 7764
SWIDTH 360 0
DWIDTH 6 0
BBX 5 9 0 0
BITMAP
10
20
F0
88
88
F0
80
80
80
ENDCHAR
STARTCHAR LATIN
ENCODING 7765
SWIDTH 360 0
DWIDTH 6 0
BBX 5 10 0 -2
BITMAP
10
20
00
F0
88
88
88
F0
80
80
ENDCHAR
STARTCHAR LATIN
ENCODING 7766
SWIDTH 360 0
DWIDTH 6 0
BBX 5 9 0 0
BITMAP
20
00
F0
88
88
F0
80
80
80
ENDCHAR
STARTCHAR LATIN
ENCODING 7767
SWIDTH 360 0
DWIDTH 6 0
BBX 5 9 0 -2
BITMAP
20
00
F0
88
88
88
F0
80
80
ENDCHAR
STARTCHAR LATIN
ENCODING 7768
SWIDTH 360 0
DWIDTH 6 0
BBX 5 9 0 0
BITMAP
20
00
F0
88
88
F0
88
88
88
ENDCHAR
STARTCHAR LATIN
ENCODING 7769
SWIDTH 360 0
DWIDTH 6 0
BBX 5 7 0 0
BITMAP
20
00
B0
C8
80
80
80
ENDCHAR
STARTCHAR LATIN
ENCODING 7770
SWIDTH 360 0
DWIDTH 6 0
BBX 5 9 0 -2
BITMAP
F0
88
88
F0
88
88
88
00
20
ENDCHAR
STARTCHAR LATIN
ENCODING 7771
SWIDTH 360 0
DWIDTH 6 0
BBX 5 7 0 -2
BITMAP
B0
C8
80
80
80
00
20
ENDCHAR
STARTCHAR LATIN
ENCODING 7772
SWIDTH 360 0
DWIDTH 6 0
BBX 5 11 0 -2
BITMAP
70
00
F0
88
88
F0
88
88
88
00
20
ENDCHAR
STARTCHAR LATIN
ENCODING 7773
SWIDTH 360 0
DWIDTH 6 0
BBX 5 9 0 -2
BITMAP
70
00
B0
C8
80
80
80
00
20
ENDCHAR
STARTCHAR LATIN
ENCODING 7774
SWIDTH 360 0
DWIDTH 6 0
BBX 5 9 0 -2
BITMAP
F0
88
88
F0
88
88
88
00
70
ENDCHAR
STARTCHAR LATIN
ENCODING 7775
SWIDTH 360 0
DWIDTH 6 0
BBX 5 7 0 -2
BITMAP
B0
C8
80
80
80
00
70
ENDCHAR
STARTCHAR LATIN
ENCODING 7776
SWIDTH 360 0
DWIDTH 6 0
BBX 5 9 0 0
BITMAP
20
00
70
88
80
70
08
88
70
ENDCHAR
STARTCHAR LATIN
ENCODING 7777
SWIDTH 360 0
DWIDTH 6 0
BBX 5 7 0 0
BITMAP
20
00
78
80
70
08
F0
ENDCHAR
STARTCHAR LATIN
ENCODING 7778
SWIDTH 360 0
DWIDTH 6 0
BBX 5 9 0 -2
BITMAP
70
88
80
70
08
88
70
00
20
ENDCHAR
STARTCHAR LATIN
ENCODING 7779
SWIDTH 360 0
DWIDTH 6 0
BBX 5 7 0 -2
BITMAP
78
80
70
08
F0
00
20
ENDCHAR
STARTCHAR LATIN
ENCODING 7780
SWIDTH 360 0
DWIDTH 6 0
BBX 5 9 0 0
BITMAP
30
20
70
88
80
70
08
88
70
ENDCHAR
STARTCHAR LATIN
ENCODING 7781
SWIDTH 360 0
DWIDTH 6 0
BBX 5 9 0 0
BITMAP
40
10
20
00
78
80
70
08
F0
ENDCHAR
STARTCHAR LATIN
ENCODING 7782
SWIDTH 360 0
DWIDTH 6 0
BBX 5 9 0 0
BITMAP
70
20
70
88
80
70
08
88
70
ENDCHAR
STARTCHAR LATIN
ENCODING 7783
SWIDTH 360 0
DWIDTH 6 0
BBX 5 9 0 0
BITMAP
20
00
50
20
78
80
70
08
F0
ENDCHAR
STARTCHAR LATIN
ENCODING 7784
SWIDTH 360 0
DWIDTH 6 0
BBX 5 11 0 -2
BITMAP
20
00
70
88
80
70
08
88
70
00
20
ENDCHAR
STARTCHAR LATIN
ENCODING 7785
SWIDTH 360 0
DWIDTH 6 0
BBX 5 9 0 -2
BITMAP
20
00
78
80
70
08
F0
00
20
ENDCHAR
STARTCHAR LATIN
ENCODING 7786
SWIDTH 360 0
DWIDTH 6 0
BBX 5 9 0 0
BITMAP
20
00
F8
20
20
20
20
20
20
ENDCHAR
STARTCHAR LATIN
ENCODING 7787
SWIDTH 360 0
DWIDTH 6 0
BBX 4 9 1 0
BITMAP
40
00
40
40
F0
40
40
40
30
ENDCHAR
STARTCHAR LATIN
ENCODING 7788
SWIDTH 360 0
DWIDTH 6 0
BBX 5 9 0 -2
BITMAP
F8
20
20
20
20
20
20
00
20
ENDCHAR
STARTCHAR LATIN
ENCODING 7789
SWIDTH 360 0
DWIDTH 6 0
BBX 4 9 1 -2
BITMAP
40
40
F0
40
40
40
30
00
40
ENDCHAR
STARTCHAR LATIN
ENCODING 7790
SWIDTH 360 0
DWIDTH 6 0
BBX 5 9 0 -2
BITMAP
F8
20
20
20
20
20
20
00
70
ENDCHAR
STARTCHAR LATIN
ENCODING 7791
SWIDTH 360 0
DWIDTH 6 0
BBX 4 9 1 -2
BITMAP
40
40
F0
40
40
40
30
00
E0
ENDCHAR
STARTCHAR LATIN
ENCODING 7792
SWIDTH 360 0
DWIDTH 6 0
BBX 5 10 0 -3
BITMAP
F8
20
20
20
20
20
20
00
20
50
ENDCHAR
STARTCHAR LATIN
ENCODING 7793
SWIDTH 360 0
DWIDTH 6 0
BBX 4 10 1 -3
BITMAP
40
40
F0
40
40
40
30
00
40
A0
ENDCHAR
STARTCHAR LATIN
ENCODING 7794
SWIDTH 360 0
DWIDTH 6 0
BBX 5 9 0 -2
BITMAP
88
88
88
88
88
88
70
00
50
ENDCHAR
STARTCHAR LATIN
ENCODING 7795
SWIDTH 360 0
DWIDTH 6 0
BBX 5 7 0 -2
BITMAP
88
88
88
98
68
00
50
ENDCHAR
STARTCHAR LATIN
ENCODING 7796
SWIDTH 360 0
DWIDTH 6 0
BBX 5 10 0 -3
BITMAP
88
88
88
88
88
88
70
00
68
90
ENDCHAR
STARTCHAR LATIN
ENCODING 7797
SWIDTH 360 0
DWIDTH 6 0
BBX 5 8 0 -3
BITMAP
88
88
88
98
68
00
68
90
ENDCHAR
STARTCHAR LATIN
ENCODING 7798
SWIDTH 360 0
DWIDTH 6 0
BBX 5 10 0 -3
BITMAP
88
88
88
88
88
88
70
00
20
50
ENDCHAR
STARTCHAR LATIN
ENCODING 7799
SWIDTH 360 0
DWIDTH 6 0
BBX 5 8 0 -3
BITMAP
88
88
88
98
68
00
20
50
ENDCHAR
STARTCHAR LATIN
ENCODING 7800
SWIDTH 360 0
DWIDTH 6 0
BBX 5 9 0 0
BITMAP
10
68
B0
88
88
88
88
88
70
ENDCHAR
STARTCHAR LATIN
ENCODING 7801
SWIDTH 360 0
DWIDTH 6 0
BBX 5 9 0 0
BITMAP
10
68
B0
00
88
88
88
98
68
ENDCHAR
STARTCHAR LATIN
ENCODING 7802
SWIDTH 360 0
DWIDTH 6 0
BBX 5 9 0 0
BITMAP
50
70
88
88
88
88
88
88
70
ENDCHAR
STARTCHAR LATIN
ENCODING 7803
SWIDTH 360 0
DWIDTH 6 0
BBX 5 9 0 0
BITMAP
50
00
70
00
88
88
88
98
68
ENDCHAR
STARTCHAR LATIN
ENCODING 7804
SWIDTH 360 0
DWIDTH 6 0
BBX 5 9 0 0
BITMAP
68
B0
88
88
88
50
50
20
20
ENDCHAR
STARTCHAR LATIN
ENCODING 7805
SWIDTH 360 0
DWIDTH 6 0
BBX 5 8 0 0
BITMAP
68
B0
00
88
88
50
50
20
ENDCHAR
STARTCHAR LATIN
ENCODING 7806
SWIDTH 360 0
DWIDTH 6 0
BBX 5 9 0 -2
BITMAP
88
88
88
50
50
20
20
00
20
ENDCHAR
STARTCHAR LATIN
ENCODING 7807
SWIDTH 360 0
DWIDTH 6 0
BBX 5 7 0 -2
BITMAP
88
88
50
50
20
00
20
ENDCHAR
STARTCHAR LATIN
ENCODING 7808
SWIDTH 360 0
DWIDTH 6 0
BBX 5 9 0 0
BITMAP
40
20
88
88
88
A8
A8
50
50
ENDCHAR
STARTCHAR LATIN
ENCODING 7809
SWIDTH 360 0
DWIDTH 6 0
BBX 5 8 0 0
BITMAP
40
20
00
88
A8
A8
A8
50
ENDCHAR
STARTCHAR LATIN
ENCODING 7810
SWIDTH 360 0
DWIDTH 6 0
BBX 5 9 0 0
BITMAP
10
20
88
88
88
A8
A8
50
50
ENDCHAR
STARTCHAR LATIN
ENCODING 7811
SWIDTH 360 0
DWIDTH 6 0
BBX 5 8 0 0
BITMAP
10
20
00
88
A8
A8
A8
50
ENDCHAR
STARTCHAR LATIN
ENCODING 7812
SWIDTH 360 0
DWIDTH 6 0
BBX 5 9 0 0
BITMAP
50
00
88
88
88
A8
A8
50
50
ENDCHAR
STARTCHAR LATIN
ENCODING 7813
SWIDTH 360 0
DWIDTH 6 0
BBX 5 7 0 0
BITMAP
50
00
88
A8
A8
A8
50
ENDCHAR
STARTCHAR LATIN
ENCODING 7814
SWIDTH 360 0
DWIDTH 6 0
BBX 5 9 0 0
BITMAP
20
00
88
88
88
A8
A8
50
50
ENDCHAR
STARTCHAR LATIN
ENCODING 7815
SWIDTH 360 0
DWIDTH 6 0
BBX 5 7 0 0
BITMAP
20
00
88
A8
A8
A8
50
ENDCHAR
STARTCHAR LATIN
ENCODING 7816
SWIDTH 360 0
DWIDTH 6 0
BBX 5 9 0 -2
BITMAP
88
88
88
A8
A8
50
50
00
20
ENDCHAR
STARTCHAR LATIN
ENCODING 7817
SWIDTH 360 0
DWIDTH 6 0
BBX 5 7 0 -2
BITMAP
88
A8
A8
A8
50
00
20
ENDCHAR
STARTCHAR LATIN
ENCODING 7818
SWIDTH 360 0
DWIDTH 6 0
BBX 5 9 0 0
BITMAP
20
00
88
88
50
20
50
88
88
ENDCHAR
STARTCHAR LATIN
ENCODING 7819
SWIDTH 360 0
DWIDTH 6 0
BBX 5 7 0 0
BITMAP
20
00
88
50
20
50
88
ENDCHAR
STARTCHAR LATIN
ENCODING 7820
SWIDTH 360 0
DWIDTH 6 0
BBX 5 9 0 0
BITMAP
50
00
88
88
50
20
50
88
88
ENDCHAR
STARTCHAR LATIN
ENCODING 7821
SWIDTH 360 0
DWIDTH 6 0
BBX 5 7 0 0
BITMAP
50
00
88
50
20
50
88
ENDCHAR
STARTCHAR LATIN
ENCODING 7822
SWIDTH 360 0
DWIDTH 6 0
BBX 5 9 0 0
BITMAP
20
00
88
88
88
50
20
20
20
ENDCHAR
STARTCHAR LATIN
ENCODING 7823
SWIDTH 360 0
DWIDTH 6 0
BBX 5 9 0 -2
BITMAP
20
00
88
88
88
88
78
08
70
ENDCHAR
STARTCHAR LATIN
ENCODING 7824
SWIDTH 360 0
DWIDTH 6 0
BBX 5 9 0 0
BITMAP
20
50
F8
08
10
20
40
80
F8
ENDCHAR
STARTCHAR LATIN
ENCODING 7825
SWIDTH 360 0
DWIDTH 6 0
BBX 5 8 0 0
BITMAP
20
50
00
F8
10
20
40
F8
ENDCHAR
STARTCHAR LATIN
ENCODING 7826
SWIDTH 360 0
DWIDTH 6 0
BBX 5 9 0 -2
BITMAP
F8
08
10
20
40
80
F8
00
20
ENDCHAR
STARTCHAR LATIN
ENCODING 7827
SWIDTH 360 0
DWIDTH 6 0
BBX 5 7 0 -2
BITMAP
F8
10
20
40
F8
00
20
ENDCHAR
STARTCHAR LATIN
ENCODING 7828
SWIDTH 360 0
DWIDTH 6 0
BBX 5 9 0 -2
BITMAP
F8
08
10
20
40
80
F8
00
70
ENDCHAR
STARTCHAR LATIN
ENCODING 7829
SWIDTH 360 0
DWIDTH 6 0
BBX 5 7 0 -2
BITMAP
F8
10
20
40
F8
00
70
ENDCHAR
STARTCHAR LATIN
ENCODING 7830
SWIDTH 360 0
DWIDTH 6 0
BBX 5 9 0 -2
BITMAP
80
80
F0
88
88
88
88
00
70
ENDCHAR
STARTCHAR LATIN
ENCODING 7831
SWIDTH 360 0
DWIDTH 6 0
BBX 4 9 1 0
BITMAP
A0
00
40
40
F0
40
40
40
30
ENDCHAR
STARTCHAR LATIN
ENCODING 7832
SWIDTH 360 0
DWIDTH 6 0
BBX 5 8 0 0
BITMAP
20
50
20
88
A8
A8
A8
50
ENDCHAR
STARTCHAR LATIN
ENCODING 7833
SWIDTH 360 0
DWIDTH 6 0
BBX 5 10 0 -2
BITMAP
20
50
20
88
88
88
88
78
08
70
ENDCHAR
STARTCHAR LATIN
ENCODING 7834
SWIDTH 360 0
DWIDTH 6 0
BBX 5 9 0 0
BITMAP
20
10
20
00
78
88
88
98
68
ENDCHAR
STARTCHAR LATIN
ENCODING 7835
SWIDTH 360 0
DWIDTH 6 0
BBX 4 9 1 0
BITMAP
20
00
30
40
C0
40
40
40
40
ENDCHAR
STARTCHAR LATIN
ENCODING 7836
SWIDTH 360 0
DWIDTH 6 0
BBX 4 7 1 0
BITMAP
30
40
C0
60
C0
40
40
ENDCHAR
STARTCHAR LATIN
ENCODING 7837
SWIDTH 360 0
DWIDTH 6 0
BBX 4 7 1 0
BITMAP
30
E0
40
C0
40
40
40
ENDCHAR
STARTCHAR LATIN
ENCODING 7838
SWIDTH 360 0
DWIDTH 6 0
BBX 5 9 0 -1
BITMAP
30
48
88
90
90
88
88
B0
80
ENDCHAR
STARTCHAR LATIN
ENCODING 7839
SWIDTH 360 0
DWIDTH 6 0
BBX 5 8 0 0
BITMAP
70
88
80
70
88
88
88
70
ENDCHAR
STARTCHAR LATIN
ENCODING 7840
SWIDTH 360 0
DWIDTH 6 0
BBX 5 8 0 -1
BITMAP
70
88
88
F8
88
88
88
20
ENDCHAR
STARTCHAR LATIN
ENCODING 7841
SWIDTH 360 0
DWIDTH 6 0
BBX 5 7 0 -2
BITMAP
70
08
78
88
78
00
20
ENDCHAR
STARTCHAR LATIN
ENCODING 7842
SWIDTH 360 0
DWIDTH 6 0
BBX 5 9 0 0
BITMAP
40
20
70
88
88
F8
88
88
88
ENDCHAR
STARTCHAR LATIN
ENCODING 7843
SWIDTH 360 0
DWIDTH 6 0
BBX 5 9 0 0
BITMAP
20
50
10
20
70
08
78
88
78
ENDCHAR
STARTCHAR LATIN
ENCODING 7844
SWIDTH 360 0
DWIDTH 6 0
BBX 5 9 0 0
BITMAP
68
B0
70
88
88
F8
88
88
88
ENDCHAR
STARTCHAR LATIN
ENCODING 7845
SWIDTH 360 0
DWIDTH 6 0
BBX 5 8 0 0
BITMAP
48
B0
00
70
08
78
88
78
ENDCHAR
STARTCHAR LATIN
ENCODING 7846
SWIDTH 360 0
DWIDTH 6 0
BBX 5 9 0 0
BITMAP
B0
68
70
88
88
F8
88
88
88
ENDCHAR
STARTCHAR LATIN
ENCODING 7847
SWIDTH 360 0
DWIDTH 6 0
BBX 5 8 0 0
BITMAP
90
68
00
70
08
78
88
78
ENDCHAR
STARTCHAR LATIN
ENCODING 7848
SWIDTH 360 0
DWIDTH 6 0
BBX 6 9 0 0
BITMAP
48
A4
78
88
88
F8
88
88
88
ENDCHAR
STARTCHAR LATIN
ENCODING 7849
SWIDTH 360 0
DWIDTH 6 0
BBX 6 8 0 0
BITMAP
48
A4
08
78
88
88
98
68
ENDCHAR
STARTCHAR LATIN
ENCODING 7851
SWIDTH 360 0
DWIDTH 6 0
BBX 5 9 0 0
BITMAP
68
B0
20
50
78
88
88
98
68
ENDCHAR
STARTCHAR LATIN
ENCODING 7852
SWIDTH 360 0
DWIDTH 6 0
BBX 5 11 0 -2
BITMAP
20
50
70
88
88
F8
88
88
88
00
20
ENDCHAR
STARTCHAR LATIN
ENCODING 7853
SWIDTH 360 0
DWIDTH 6 0
BBX 5 10 0 -2
BITMAP
20
50
00
78
88
88
98
68
00
20
ENDCHAR
STARTCHAR LATIN
ENCODING 7854
SWIDTH 360 0
DWIDTH 6 0
BBX 5 9 0 0
BITMAP
98
70
70
88
88
F8
88
88
88
ENDCHAR
STARTCHAR LATIN
ENCODING 7855
SWIDTH 360 0
DWIDTH 6 0
BBX 5 9 0 0
BITMAP
10
A8
70
00
78
88
88
98
68
ENDCHAR
STARTCHAR LATIN
ENCODING 7856
SWIDTH 360 0
DWIDTH 6 0
BBX 5 9 0 0
BITMAP
C8
70
70
88
88
F8
88
88
88
ENDCHAR
STARTCHAR LATIN
ENCODING 7857
SWIDTH 360 0
DWIDTH 6 0
BBX 5 9 0 0
BITMAP
40
A8
70
00
78
88
88
98
68
ENDCHAR
STARTCHAR LATIN
ENCODING 7858
SWIDTH 360 0
DWIDTH 6 0
BBX 5 9 0 0
BITMAP
20
98
70
88
88
F8
88
88
88
ENDCHAR
STARTCHAR LATIN
ENCODING 7859
SWIDTH 360 0
DWIDTH 6 0
BBX 5 9 0 0
BITMAP
20
98
70
00
78
88
88
98
68
ENDCHAR
STARTCHAR LATIN
ENCODING 7861
SWIDTH 360 0
DWIDTH 6 0
BBX 5 9 0 0
BITMAP
68
B0
88
70
78
88
88
98
68
ENDCHAR
STARTCHAR LATIN
ENCODING 7862
SWIDTH 360 0
DWIDTH 6 0
BBX 5 11 0 -2
BITMAP
88
70
70
88
88
F8
88
88
88
00
20
ENDCHAR
STARTCHAR LATIN
ENCODING 7863
SWIDTH 360 0
DWIDTH 6 0
BBX 5 10 0 -2
BITMAP
88
70
00
78
88
88
98
68
00
20
ENDCHAR
STARTCHAR LATIN
ENCODING 7864
SWIDTH 360 0
DWIDTH 6 0
BBX 5 9 0 -2
BITMAP
F8
80
80
F0
80
80
F8
00
20
ENDCHAR
STARTCHAR LATIN
ENCODING 7865
SWIDTH 360 0
DWIDTH 6 0
BBX 5 7 0 -2
BITMAP
70
88
F8
80
78
00
20
ENDCHAR
STARTCHAR LATIN
ENCODING 7866
SWIDTH 360 0
DWIDTH 6 0
BBX 5 9 0 0
BITMAP
20
10
F8
80
80
F0
80
80
F8
ENDCHAR
STARTCHAR LATIN
ENCODING 7867
SWIDTH 360 0
DWIDTH 6 0
BBX 5 8 0 0
BITMAP
20
10
20
70
88
F8
80
78
ENDCHAR
STARTCHAR LATIN
ENCODING 7868
SWIDTH 360 0
DWIDTH 6 0
BBX 5 9 0 0
BITMAP
68
B0
F8
80
80
F0
80
80
F8
ENDCHAR
STARTCHAR LATIN
ENCODING 7869
SWIDTH 360 0
DWIDTH 6 0
BBX 5 8 0 0
BITMAP
68
B0
00
70
88
F8
80
78
ENDCHAR
STARTCHAR LATIN
ENCODING 7870
SWIDTH 360 0
DWIDTH 6 0
BBX 6 9 0 0
BITMAP
44
A8
F8
80
80
F0
80
80
F8
ENDCHAR
STARTCHAR LATIN
ENCODING 7871
SWIDTH 360 0
DWIDTH 6 0
BBX 6 8 0 0
BITMAP
44
A8
00
70
88
F8
80
78
ENDCHAR
STARTCHAR LATIN
ENCODING 7872
SWIDTH 360 0
DWIDTH 6 0
BBX 6 9 0 0
BITMAP
88
54
F8
80
80
F0
80
80
F8
ENDCHAR
STARTCHAR LATIN
ENCODING 7873
SWIDTH 360 0
DWIDTH 6 0
BBX 6 8 0 0
BITMAP
88
54
00
70
88
F8
80
78
ENDCHAR
STARTCHAR LATIN
ENCODING 7874
SWIDTH 360 0
DWIDTH 6 0
BBX 6 9 0 0
BITMAP
48
A4
F8
80
80
F0
80
80
F8
ENDCHAR
STARTCHAR LATIN
ENCODING 7875
SWIDTH 360 0
DWIDTH 6 0
BBX 6 8 0 0
BITMAP
48
A4
08
70
88
F8
80
78
ENDCHAR
STARTCHAR LATIN
ENCODING 7877
SWIDTH 360 0
DWIDTH 6 0
BBX 5 9 0 0
BITMAP
68
B0
20
50
70
88
F8
80
78
ENDCHAR
STARTCHAR LATIN
ENCODING 7878
SWIDTH 360 0
DWIDTH 6 0
BBX 5 11 0 -2
BITMAP
20
50
F8
80
80
F0
80
80
F8
00
20
ENDCHAR
STARTCHAR LATIN
ENCODING 7879
SWIDTH 360 0
DWIDTH 6 0
BBX 5 10 0 -2
BITMAP
20
50
00
70
88
F8
80
78
00
20
ENDCHAR
STARTCHAR LATIN
ENCODING 7880
SWIDTH 360 0
DWIDTH 6 0
BBX 3 9 1 0
BITMAP
40
20
E0
40
40
40
40
40
E0
ENDCHAR
STARTCHAR LATIN
ENCODING 7881
SWIDTH 360 0
DWIDTH 6 0
BBX 3 8 1 0
BITMAP
40
20
C0
40
40
40
40
60
ENDCHAR
STARTCHAR LATIN
ENCODING 7882
SWIDTH 360 0
DWIDTH 6 0
BBX 3 9 1 -2
BITMAP
E0
40
40
40
40
40
E0
00
40
ENDCHAR
STARTCHAR LATIN
ENCODING 7883
SWIDTH 360 0
DWIDTH 6 0
BBX 3 9 1 -2
BITMAP
40
00
C0
40
40
40
60
00
40
ENDCHAR
STARTCHAR LATIN
ENCODING 7884
SWIDTH 360 0
DWIDTH 6 0
BBX 5 9 0 -2
BITMAP
70
88
88
88
88
88
70
00
20
ENDCHAR
STARTCHAR LATIN
ENCODING 7885
SWIDTH 360 0
DWIDTH 6 0
BBX 5 7 0 -2
BITMAP
70
88
88
88
70
00
20
ENDCHAR
STARTCHAR LATIN
ENCODING 7886
SWIDTH 360 0
DWIDTH 6 0
BBX 5 9 0 0
BITMAP
20
10
70
88
88
88
88
88
70
ENDCHAR
STARTCHAR LATIN
ENCODING 7887
SWIDTH 360 0
DWIDTH 6 0
BBX 5 8 0 0
BITMAP
20
10
20
70
88
88
88
70
ENDCHAR
STARTCHAR LATIN
ENCODING 7888
SWIDTH 360 0
DWIDTH 6 0
BBX 6 9 0 0
BITMAP
44
A8
70
88
88
88
88
88
70
ENDCHAR
STARTCHAR LATIN
ENCODING 7889
SWIDTH 360 0
DWIDTH 6 0
BBX 6 8 0 0
BITMAP
44
A8
00
70
88
88
88
70
ENDCHAR
STARTCHAR LATIN
ENCODING 7890
SWIDTH 360 0
DWIDTH 6 0
BBX 6 9 0 0
BITMAP
88
54
70
88
88
88
88
88
70
ENDCHAR
STARTCHAR LATIN
ENCODING 7891
SWIDTH 360 0
DWIDTH 6 0
BBX 5 9 0 0
BITMAP
40
20
50
00
70
88
88
88
70
ENDCHAR
STARTCHAR LATIN
ENCODING 7892
SWIDTH 360 0
DWIDTH 6 0
BBX 5 9 0 0
BITMAP
50
A8
70
88
88
88
88
88
70
ENDCHAR
STARTCHAR LATIN
ENCODING 7893
SWIDTH 360 0
DWIDTH 6 0
BBX 5 8 0 0
BITMAP
40
B0
08
70
88
88
88
70
ENDCHAR
STARTCHAR LATIN
ENCODING 7894
SWIDTH 360 0
DWIDTH 6 0
BBX 5 9 0 0
BITMAP
68
B0
50
70
88
88
88
88
70
ENDCHAR
STARTCHAR LATIN
ENCODING 7895
SWIDTH 360 0
DWIDTH 6 0
BBX 5 9 0 0
BITMAP
68
B0
20
50
70
88
88
88
70
ENDCHAR
STARTCHAR LATIN
ENCODING 7896
SWIDTH 360 0
DWIDTH 6 0
BBX 5 11 0 -2
BITMAP
20
50
70
88
88
88
88
88
70
00
20
ENDCHAR
STARTCHAR LATIN
ENCODING 7897
SWIDTH 360 0
DWIDTH 6 0
BBX 5 10 0 -2
BITMAP
20
50
00
70
88
88
88
70
00
20
ENDCHAR
STARTCHAR LATIN
ENCODING 7898
SWIDTH 360 0
DWIDTH 6 0
BBX 6 9 0 0
BITMAP
10
24
74
88
88
88
88
88
70
ENDCHAR
STARTCHAR LATIN
ENCODING 7899
SWIDTH 360 0
DWIDTH 6 0
BBX 6 8 0 0
BITMAP
20
40
04
74
88
88
88
70
ENDCHAR
STARTCHAR LATIN
ENCODING 7900
SWIDTH 360 0
DWIDTH 6 0
BBX 6 9 0 0
BITMAP
40
24
74
88
88
88
88
88
70
ENDCHAR
STARTCHAR LATIN
ENCODING 7901
SWIDTH 360 0
DWIDTH 6 0
BBX 6 8 0 0
BITMAP
40
20
04
74
88
88
88
70
ENDCHAR
STARTCHAR LATIN
ENCODING 7902
SWIDTH 360 0
DWIDTH 6 0
BBX 6 9 0 0
BITMAP
20
14
74
88
88
88
88
88
70
ENDCHAR
STARTCHAR LATIN
ENCODING 7903
SWIDTH 360 0
DWIDTH 6 0
BBX 6 8 0 0
BITMAP
20
10
24
74
88
88
88
70
ENDCHAR
STARTCHAR LATIN
ENCODING 7904
SWIDTH 360 0
DWIDTH 6 0
BBX 6 9 0 0
BITMAP
68
B4
74
88
88
88
88
88
70
ENDCHAR
STARTCHAR LATIN
ENCODING 7905
SWIDTH 360 0
DWIDTH 6 0
BBX 6 8 0 0
BITMAP
68
B0
04
74
88
88
88
70
ENDCHAR
STARTCHAR LATIN
ENCODING 7906
SWIDTH 360 0
DWIDTH 6 0
BBX 6 10 0 -2
BITMAP
04
74
88
88
88
88
88
70
00
20
ENDCHAR
STARTCHAR LATIN
ENCODING 7907
SWIDTH 360 0
DWIDTH 6 0
BBX 6 8 0 -2
BITMAP
04
74
88
88
88
70
00
20
ENDCHAR
STARTCHAR LATIN
ENCODING 7908
SWIDTH 360 0
DWIDTH 6 0
BBX 5 9 0 -2
BITMAP
88
88
88
88
88
88
70
00
20
ENDCHAR
STARTCHAR LATIN
ENCODING 7909
SWIDTH 360 0
DWIDTH 6 0
BBX 5 7 0 -2
BITMAP
88
88
88
98
68
00
20
ENDCHAR
STARTCHAR LATIN
ENCODING 7910
SWIDTH 360 0
DWIDTH 6 0
BBX 5 9 0 0
BITMAP
60
10
A8
88
88
88
88
88
70
ENDCHAR
STARTCHAR LATIN
ENCODING 7911
SWIDTH 360 0
DWIDTH 6 0
BBX 5 8 0 0
BITMAP
60
10
20
88
88
88
98
68
ENDCHAR
STARTCHAR LATIN
ENCODING 7912
SWIDTH 360 0
DWIDTH 6 0
BBX 6 9 0 0
BITMAP
14
24
88
88
88
88
88
88
70
ENDCHAR
STARTCHAR LATIN
ENCODING 7913
SWIDTH 360 0
DWIDTH 6 0
BBX 6 8 0 0
BITMAP
10
24
04
88
88
88
98
68
ENDCHAR
STARTCHAR LATIN
ENCODING 7914
SWIDTH 360 0
DWIDTH 6 0
BBX 6 9 0 0
BITMAP
44
24
88
88
88
88
88
88
70
ENDCHAR
STARTCHAR LATIN
ENCODING 7915
SWIDTH 360 0
DWIDTH 6 0
BBX 6 8 0 0
BITMAP
40
24
04
88
88
88
98
68
ENDCHAR
STARTCHAR LATIN
ENCODING 7916
SWIDTH 360 0
DWIDTH 6 0
BBX 6 9 0 0
BITMAP
64
14
A8
88
88
88
88
88
70
ENDCHAR
STARTCHAR LATIN
ENCODING 7917
SWIDTH 360 0
DWIDTH 6 0
BBX 6 8 0 0
BITMAP
60
14
24
88
88
88
98
68
ENDCHAR
STARTCHAR LATIN
ENCODING 7918
SWIDTH 360 0
DWIDTH 6 0
BBX 6 9 0 0
BITMAP
6C
B4
88
88
88
88
88
88
70
ENDCHAR
STARTCHAR LATIN
ENCODING 7919
SWIDTH 360 0
DWIDTH 6 0
BBX 6 8 0 0
BITMAP
68
B4
04
88
88
88
98
68
ENDCHAR
STARTCHAR LATIN
ENCODING 7920
SWIDTH 360 0
DWIDTH 6 0
BBX 6 11 0 -2
BITMAP
04
04
88
88
88
88
88
88
70
00
20
ENDCHAR
STARTCHAR LATIN
ENCODING 7921
SWIDTH 360 0
DWIDTH 6 0
BBX 6 9 0 -2
BITMAP
04
04
88
88
88
98
68
00
20
ENDCHAR
STARTCHAR LATIN
ENCODING 7922
SWIDTH 360 0
DWIDTH 6 0
BBX 5 9 0 0
BITMAP
40
20
88
88
88
50
20
20
20
ENDCHAR
STARTCHAR LATIN
ENCODING 7923
SWIDTH 360 0
DWIDTH 6 0
BBX 5 10 0 -2
BITMAP
40
20
00
88
88
88
88
78
08
70
ENDCHAR
STARTCHAR LATIN
ENCODING 7924
SWIDTH 360 0
DWIDTH 6 0
BBX 5 9 0 -2
BITMAP
88
88
88
50
20
20
20
00
20
ENDCHAR
STARTCHAR LATIN
ENCODING 7925
SWIDTH 360 0
DWIDTH 6 0
BBX 5 8 0 -3
BITMAP
88
88
88
88
78
08
70
20
ENDCHAR
STARTCHAR LATIN
ENCODING 7926
SWIDTH 360 0
DWIDTH 6 0
BBX 5 9 0 0
BITMAP
60
10
A8
88
88
50
20
20
20
ENDCHAR
STARTCHAR LATIN
ENCODING 7927
SWIDTH 360 0
DWIDTH 6 0
BBX 5 10 0 -2
BITMAP
60
10
20
88
88
88
88
78
08
70
ENDCHAR
STARTCHAR LATIN
ENCODING 7928
SWIDTH 360 0
DWIDTH 6 0
BBX 5 9 0 0
BITMAP
68
B0
88
88
88
50
20
20
20
ENDCHAR
STARTCHAR LATIN
ENCODING 7929
SWIDTH 360 0
DWIDTH 6 0
BBX 5 10 0 -2
BITMAP
68
B0
00
88
88
88
88
78
08
70
ENDCHAR
STARTCHAR LATIN
ENCODING 7930
SWIDTH 360 0
DWIDTH 6 0
BBX 6 7 0 0
BITMAP
F0
50
50
50
50
50
FC
ENDCHAR
STARTCHAR LATIN
ENCODING 7931
SWIDTH 360 0
DWIDTH 6 0
BBX 5 7 0 0
BITMAP
F0
50
F8
50
50
50
78
ENDCHAR
STARTCHAR LATIN
ENCODING 7932
SWIDTH 360 0
DWIDTH 6 0
BBX 5 7 0 0
BITMAP
20
40
90
88
88
88
70
ENDCHAR
STARTCHAR LATIN
ENCODING 7933
SWIDTH 360 0
DWIDTH 6 0
BBX 5 6 0 0
BITMAP
20
40
90
88
88
70
ENDCHAR
STARTCHAR LATIN
ENCODING 7934
SWIDTH 360 0
DWIDTH 6 0
BBX 5 8 0 -1
BITMAP
88
88
88
50
20
60
A0
40
ENDCHAR
STARTCHAR LATIN
ENCODING 7935
SWIDTH 360 0
DWIDTH 6 0
BBX 5 7 0 -2
BITMAP
88
88
88
88
78
48
30
ENDCHAR
STARTCHAR GREEK
ENCODING 7936
SWIDTH 360 0
DWIDTH 6 0
BBX 5 9 0 0
BITMAP
30
10
20
00
68
98
88
98
68
ENDCHAR
STARTCHAR GREEK
ENCODING 7937
SWIDTH 360 0
DWIDTH 6 0
BBX 5 9 0 0
BITMAP
30
20
10
00
68
98
88
98
68
ENDCHAR
STARTCHAR GREEK
ENCODING 7938
SWIDTH 360 0
DWIDTH 6 0
BBX 5 9 0 0
BITMAP
C0
50
88
00
68
98
88
98
68
ENDCHAR
STARTCHAR GREEK
ENCODING 7939
SWIDTH 360 0
DWIDTH 6 0
BBX 5 9 0 0
BITMAP
C0
90
48
00
68
98
88
98
68
ENDCHAR
STARTCHAR GREEK
ENCODING 7940
SWIDTH 360 0
DWIDTH 6 0
BBX 5 9 0 0
BITMAP
C0
48
90
00
68
98
88
98
68
ENDCHAR
STARTCHAR GREEK
ENCODING 7941
SWIDTH 360 0
DWIDTH 6 0
BBX 5 9 0 0
BITMAP
C0
88
50
00
68
98
88
98
68
ENDCHAR
STARTCHAR GREEK
ENCODING 7942
SWIDTH 360 0
DWIDTH 6 0
BBX 5 9 0 0
BITMAP
68
B0
10
20
68
98
88
98
68
ENDCHAR
STARTCHAR GREEK
ENCODING 7943
SWIDTH 360 0
DWIDTH 6 0
BBX 5 9 0 0
BITMAP
68
B0
20
10
68
98
88
98
68
ENDCHAR
STARTCHAR GREEK
ENCODING 7944
SWIDTH 360 0
DWIDTH 6 0
BBX 5 9 0 0
BITMAP
C0
40
B0
48
48
78
48
48
48
ENDCHAR
STARTCHAR GREEK
ENCODING 7945
SWIDTH 360 0
DWIDTH 6 0
BBX 5 9 0 0
BITMAP
C0
80
70
48
48
78
48
48
48
ENDCHAR
STARTCHAR GREEK
ENCODING 7946
SWIDTH 360 0
DWIDTH 6 0
BBX 5 9 0 0
BITMAP
D0
48
B0
48
48
78
48
48
48
ENDCHAR
STARTCHAR GREEK
ENCODING 7947
SWIDTH 360 0
DWIDTH 6 0
BBX 5 9 0 0
BITMAP
D0
88
70
48
48
78
48
48
48
ENDCHAR
STARTCHAR GREEK
ENCODING 7948
SWIDTH 360 0
DWIDTH 6 0
BBX 5 9 0 0
BITMAP
C8
50
B0
48
48
78
48
48
48
ENDCHAR
STARTCHAR GREEK
ENCODING 7949
SWIDTH 360 0
DWIDTH 6 0
BBX 5 9 0 0
BITMAP
C8
90
70
48
48
78
48
48
48
ENDCHAR
STARTCHAR GREEK
ENCODING 7950
SWIDTH 360 0
DWIDTH 6 0
BBX 6 9 0 0
BITMAP
68
B0
18
E4
64
BC
24
24
24
ENDCHAR
STARTCHAR GREEK
ENCODING 7951
SWIDTH 360 0
DWIDTH 6 0
BBX 6 9 0 0
BITMAP
68
B0
18
E4
A4
7C
24
24
24
ENDCHAR
STARTCHAR GREEK
ENCODING 7952
SWIDTH 360 0
DWIDTH 6 0
BBX 5 9 0 0
BITMAP
30
10
20
00
70
88
E0
88
70
ENDCHAR
STARTCHAR GREEK
ENCODING 7953
SWIDTH 360 0
DWIDTH 6 0
BBX 5 9 0 0
BITMAP
30
20
10
00
70
88
E0
88
70
ENDCHAR
STARTCHAR GREEK
ENCODING 7954
SWIDTH 360 0
DWIDTH 6 0
BBX 5 9 0 0
BITMAP
C0
50
88
00
70
88
E0
88
70
ENDCHAR
STARTCHAR GREEK
ENCODING 7955
SWIDTH 360 0
DWIDTH 6 0
BBX 5 9 0 0
BITMAP
C0
50
88
00
70
88
E0
88
70
ENDCHAR
STARTCHAR GREEK
ENCODING 7956
SWIDTH 360 0
DWIDTH 6 0
BBX 5 9 0 0
BITMAP
C0
90
48
00
70
88
E0
88
70
ENDCHAR
STARTCHAR GREEK
ENCODING 7957
SWIDTH 360 0
DWIDTH 6 0
BBX 5 9 0 0
BITMAP
C0
88
50
00
70
88
E0
88
70
ENDCHAR
STARTCHAR GREEK
ENCODING 7960
SWIDTH 360 0
DWIDTH 6 0
BBX 6 8 0 0
BITMAP
C0
7C
A0
20
38
20
20
3C
ENDCHAR
STARTCHAR GREEK
ENCODING 7961
SWIDTH 360 0
DWIDTH 6 0
BBX 6 8 0 0
BITMAP
C0
BC
60
20
38
20
20
3C
ENDCHAR
STARTCHAR GREEK
ENCODING 7962
SWIDTH 360 0
DWIDTH 6 0
BBX 6 8 0 0
BITMAP
C0
7C
A0
A0
78
20
20
3C
ENDCHAR
STARTCHAR GREEK
ENCODING 7963
SWIDTH 360 0
DWIDTH 6 0
BBX 6 8 0 0
BITMAP
C0
BC
60
A0
78
20
20
3C
ENDCHAR
STARTCHAR GREEK
ENCODING 7964
SWIDTH 360 0
DWIDTH 6 0
BBX 6 8 0 0
BITMAP
C0
7C
A0
60
B8
20
20
3C
ENDCHAR
STARTCHAR GREEK
ENCODING 7965
SWIDTH 360 0
DWIDTH 6 0
BBX 6 8 0 0
BITMAP
C0
BC
60
60
B8
20
20
3C
ENDCHAR
STARTCHAR GREEK
ENCODING 7968
SWIDTH 360 0
DWIDTH 6 0
BBX 5 11 0 -2
BITMAP
30
10
20
00
B0
C8
88
88
88
08
08
ENDCHAR
STARTCHAR GREEK
ENCODING 7969
SWIDTH 360 0
DWIDTH 6 0
BBX 5 11 0 -2
BITMAP
30
20
10
00
B0
C8
88
88
88
08
08
ENDCHAR
STARTCHAR GREEK
ENCODING 7970
SWIDTH 360 0
DWIDTH 6 0
BBX 5 11 0 -2
BITMAP
C0
50
88
00
B0
C8
88
88
88
08
08
ENDCHAR
STARTCHAR GREEK
ENCODING 7971
SWIDTH 360 0
DWIDTH 6 0
BBX 5 11 0 -2
BITMAP
C0
90
48
00
B0
C8
88
88
88
08
08
ENDCHAR
STARTCHAR GREEK
ENCODING 7972
SWIDTH 360 0
DWIDTH 6 0
BBX 5 11 0 -2
BITMAP
C0
48
90
00
B0
C8
88
88
88
08
08
ENDCHAR
STARTCHAR GREEK
ENCODING 7973
SWIDTH 360 0
DWIDTH 6 0
BBX 5 11 0 -2
BITMAP
C0
88
50
00
B0
C8
88
88
88
08
08
ENDCHAR
STARTCHAR GREEK
ENCODING 7974
SWIDTH 360 0
DWIDTH 6 0
BBX 5 11 0 -2
BITMAP
68
B0
10
20
B0
C8
88
88
88
08
08
ENDCHAR
STARTCHAR GREEK
ENCODING 7975
SWIDTH 360 0
DWIDTH 6 0
BBX 5 11 0 -2
BITMAP
68
B0
20
10
B0
C8
88
88
88
08
08
ENDCHAR
STARTCHAR GREEK
ENCODING 7976
SWIDTH 360 0
DWIDTH 6 0
BBX 6 8 0 0
BITMAP
C0
64
A4
24
3C
24
24
24
ENDCHAR
STARTCHAR GREEK
ENCODING 7977
SWIDTH 360 0
DWIDTH 6 0
BBX 6 8 0 0
BITMAP
C0
A4
64
24
3C
24
24
24
ENDCHAR
STARTCHAR GREEK
ENCODING 7978
SWIDTH 360 0
DWIDTH 6 0
BBX 6 8 0 0
BITMAP
C0
64
A4
A4
7C
24
24
24
ENDCHAR
STARTCHAR GREEK
ENCODING 7979
SWIDTH 360 0
DWIDTH 6 0
BBX 6 8 0 0
BITMAP
C0
A4
64
A4
7C
24
24
24
ENDCHAR
STARTCHAR GREEK
ENCODING 7980
SWIDTH 360 0
DWIDTH 6 0
BBX 6 8 0 0
BITMAP
C0
64
A4
64
BC
24
24
24
ENDCHAR
STARTCHAR GREEK
ENCODING 7981
SWIDTH 360 0
DWIDTH 6 0
BBX 6 8 0 0
BITMAP
C0
A4
64
64
BC
24
24
24
ENDCHAR
STARTCHAR GREEK
ENCODING 7982
SWIDTH 360 0
DWIDTH 6 0
BBX 6 9 0 0
BITMAP
68
B0
E4
64
A4
3C
24
24
24
ENDCHAR
STARTCHAR GREEK
ENCODING 7983
SWIDTH 360 0
DWIDTH 6 0
BBX 6 9 0 0
BITMAP
68
B0
E4
A4
64
3C
24
24
24
ENDCHAR
STARTCHAR GREEK
ENCODING 7984
SWIDTH 360 0
DWIDTH 6 0
BBX 3 9 2 0
BITMAP
C0
40
80
00
80
80
80
A0
40
ENDCHAR
STARTCHAR GREEK
ENCODING 7985
SWIDTH 360 0
DWIDTH 6 0
BBX 3 9 2 0
BITMAP
C0
80
40
00
80
80
80
A0
40
ENDCHAR
STARTCHAR GREEK
ENCODING 7986
SWIDTH 360 0
DWIDTH 6 0
BBX 5 9 0 0
BITMAP
C0
50
88
00
20
20
20
28
10
ENDCHAR
STARTCHAR GREEK
ENCODING 7987
SWIDTH 360 0
DWIDTH 6 0
BBX 5 9 0 0
BITMAP
C0
90
48
00
20
20
20
28
10
ENDCHAR
STARTCHAR GREEK
ENCODING 7988
SWIDTH 360 0
DWIDTH 6 0
BBX 5 9 0 0
BITMAP
C0
48
90
00
20
20
20
28
10
ENDCHAR
STARTCHAR GREEK
ENCODING 7989
SWIDTH 360 0
DWIDTH 6 0
BBX 5 9 0 0
BITMAP
C0
88
50
00
20
20
20
28
10
ENDCHAR
STARTCHAR GREEK
ENCODING 7990
SWIDTH 360 0
DWIDTH 6 0
BBX 5 9 0 0
BITMAP
68
B0
20
40
20
20
20
28
10
ENDCHAR
STARTCHAR GREEK
ENCODING 7991
SWIDTH 360 0
DWIDTH 6 0
BBX 5 9 0 0
BITMAP
68
B0
20
10
20
20
20
28
10
ENDCHAR
STARTCHAR GREEK
ENCODING 7992
SWIDTH 360 0
DWIDTH 6 0
BBX 5 8 0 0
BITMAP
C0
78
90
10
10
10
10
38
ENDCHAR
STARTCHAR GREEK
ENCODING 7993
SWIDTH 360 0
DWIDTH 6 0
BBX 5 8 0 0
BITMAP
C0
B8
50
10
10
10
10
38
ENDCHAR
STARTCHAR GREEK
ENCODING 7994
SWIDTH 360 0
DWIDTH 6 0
BBX 5 8 0 0
BITMAP
C0
78
90
90
50
10
10
38
ENDCHAR
STARTCHAR GREEK
ENCODING 7995
SWIDTH 360 0
DWIDTH 6 0
BBX 5 8 0 0
BITMAP
C0
B8
50
90
50
10
10
38
ENDCHAR
STARTCHAR GREEK
ENCODING 7996
SWIDTH 360 0
DWIDTH 6 0
BBX 5 8 0 0
BITMAP
C0
78
90
50
90
10
10
38
ENDCHAR
STARTCHAR GREEK
ENCODING 7997
SWIDTH 360 0
DWIDTH 6 0
BBX 5 8 0 0
BITMAP
C0
B8
50
50
90
10
10
38
ENDCHAR
STARTCHAR GREEK
ENCODING 7998
SWIDTH 360 0
DWIDTH 6 0
BBX 5 9 0 0
BITMAP
68
B0
F8
50
90
10
10
10
38
ENDCHAR
STARTCHAR GREEK
ENCODING 7999
SWIDTH 360 0
DWIDTH 6 0
BBX 5 9 0 0
BITMAP
68
B0
F8
90
50
10
10
10
38
ENDCHAR
STARTCHAR GREEK
ENCODING 8000
SWIDTH 360 0
DWIDTH 6 0
BBX 5 9 0 0
BITMAP
30
10
20
00
70
88
88
88
70
ENDCHAR
STARTCHAR GREEK
ENCODING 8001
SWIDTH 360 0
DWIDTH 6 0
BBX 5 9 0 0
BITMAP
30
20
10
00
70
88
88
88
70
ENDCHAR
STARTCHAR GREEK
ENCODING 8002
SWIDTH 360 0
DWIDTH 6 0
BBX 5 9 0 0
BITMAP
C0
50
88
00
70
88
88
88
70
ENDCHAR
STARTCHAR GREEK
ENCODING 8003
SWIDTH 360 0
DWIDTH 6 0
BBX 5 9 0 0
BITMAP
C0
90
48
00
70
88
88
88
70
ENDCHAR
STARTCHAR GREEK
ENCODING 8004
SWIDTH 360 0
DWIDTH 6 0
BBX 5 9 0 0
BITMAP
C0
48
90
00
70
88
88
88
70
ENDCHAR
STARTCHAR GREEK
ENCODING 8005
SWIDTH 360 0
DWIDTH 6 0
BBX 5 9 0 0
BITMAP
C0
88
50
00
70
88
88
88
70
ENDCHAR
STARTCHAR GREEK
ENCODING 8008
SWIDTH 360 0
DWIDTH 6 0
BBX 6 8 0 0
BITMAP
C0
58
A4
24
24
24
24
18
ENDCHAR
STARTCHAR GREEK
ENCODING 8009
SWIDTH 360 0
DWIDTH 6 0
BBX 6 8 0 0
BITMAP
C0
98
64
24
24
24
24
18
ENDCHAR
STARTCHAR GREEK
ENCODING 8010
SWIDTH 360 0
DWIDTH 6 0
BBX 6 8 0 0
BITMAP
C0
58
A4
A4
64
24
24
18
ENDCHAR
STARTCHAR GREEK
ENCODING 8011
SWIDTH 360 0
DWIDTH 6 0
BBX 6 8 0 0
BITMAP
C0
98
64
A4
64
24
24
18
ENDCHAR
STARTCHAR GREEK
ENCODING 8012
SWIDTH 360 0
DWIDTH 6 0
BBX 6 8 0 0
BITMAP
C0
58
A4
64
A4
24
24
18
ENDCHAR
STARTCHAR GREEK
ENCODING 8013
SWIDTH 360 0
DWIDTH 6 0
BBX 6 8 0 0
BITMAP
C0
98
64
64
A4
24
24
18
ENDCHAR
STARTCHAR GREEK
ENCODING 8016
SWIDTH 360 0
DWIDTH 6 0
BBX 5 9 0 0
BITMAP
30
10
20
00
88
88
88
88
70
ENDCHAR
STARTCHAR GREEK
ENCODING 8017
SWIDTH 360 0
DWIDTH 6 0
BBX 5 9 0 0
BITMAP
30
20
10
00
88
88
88
88
70
ENDCHAR
STARTCHAR GREEK
ENCODING 8018
SWIDTH 360 0
DWIDTH 6 0
BBX 5 9 0 0
BITMAP
C0
50
88
00
88
88
88
88
70
ENDCHAR
STARTCHAR GREEK
ENCODING 8019
SWIDTH 360 0
DWIDTH 6 0
BBX 5 9 0 0
BITMAP
C0
90
48
00
88
88
88
88
70
ENDCHAR
STARTCHAR GREEK
ENCODING 8020
SWIDTH 360 0
DWIDTH 6 0
BBX 5 9 0 0
BITMAP
C0
48
90
00
88
88
88
88
70
ENDCHAR
STARTCHAR GREEK
ENCODING 8021
SWIDTH 360 0
DWIDTH 6 0
BBX 5 9 0 0
BITMAP
C0
88
50
00
88
88
88
88
70
ENDCHAR
STARTCHAR GREEK
ENCODING 8022
SWIDTH 360 0
DWIDTH 6 0
BBX 5 9 0 0
BITMAP
68
B0
20
40
88
88
88
88
70
ENDCHAR
STARTCHAR GREEK
ENCODING 8023
SWIDTH 360 0
DWIDTH 6 0
BBX 5 9 0 0
BITMAP
68
B0
20
10
88
88
88
88
70
ENDCHAR
STARTCHAR GREEK
ENCODING 8025
SWIDTH 360 0
DWIDTH 6 0
BBX 5 8 0 0
BITMAP
C0
A8
68
28
10
10
10
10
ENDCHAR
STARTCHAR GREEK
ENCODING 8027
SWIDTH 360 0
DWIDTH 6 0
BBX 5 8 0 0
BITMAP
C0
A8
68
A8
50
10
10
10
ENDCHAR
STARTCHAR GREEK
ENCODING 8029
SWIDTH 360 0
DWIDTH 6 0
BBX 5 8 0 0
BITMAP
C0
A8
68
68
90
10
10
10
ENDCHAR
STARTCHAR GREEK
ENCODING 8031
SWIDTH 360 0
DWIDTH 6 0
BBX 5 9 0 0
BITMAP
68
B0
E8
A8
68
10
10
10
10
ENDCHAR
STARTCHAR GREEK
ENCODING 8032
SWIDTH 360 0
DWIDTH 6 0
BBX 5 9 0 0
BITMAP
30
10
20
00
88
88
A8
A8
50
ENDCHAR
STARTCHAR GREEK
ENCODING 8033
SWIDTH 360 0
DWIDTH 6 0
BBX 5 9 0 0
BITMAP
30
20
10
00
88
88
A8
A8
50
ENDCHAR
STARTCHAR GREEK
ENCODING 8034
SWIDTH 360 0
DWIDTH 6 0
BBX 5 9 0 0
BITMAP
C0
50
88
00
88
88
A8
A8
50
ENDCHAR
STARTCHAR GREEK
ENCODING 8035
SWIDTH 360 0
DWIDTH 6 0
BBX 5 9 0 0
BITMAP
C0
90
48
00
88
88
A8
A8
50
ENDCHAR
STARTCHAR GREEK
ENCODING 8036
SWIDTH 360 0
DWIDTH 6 0
BBX 5 9 0 0
BITMAP
C0
48
90
00
88
88
A8
A8
50
ENDCHAR
STARTCHAR GREEK
ENCODING 8037
SWIDTH 360 0
DWIDTH 6 0
BBX 5 9 0 0
BITMAP
C0
88
50
00
88
88
A8
A8
50
ENDCHAR
STARTCHAR GREEK
ENCODING 8038
SWIDTH 360 0
DWIDTH 6 0
BBX 5 9 0 0
BITMAP
68
B0
20
40
88
88
A8
A8
50
ENDCHAR
STARTCHAR GREEK
ENCODING 8039
SWIDTH 360 0
DWIDTH 6 0
BBX 5 9 0 0
BITMAP
68
B0
20
10
88
88
A8
A8
50
ENDCHAR
STARTCHAR GREEK
ENCODING 8040
SWIDTH 360 0
DWIDTH 6 0
BBX 6 8 0 0
BITMAP
C0
58
A4
24
24
24
18
3C
ENDCHAR
STARTCHAR GREEK
ENCODING 8041
SWIDTH 360 0
DWIDTH 6 0
BBX 6 8 0 0
BITMAP
C0
98
64
24
24
24
18
3C
ENDCHAR
STARTCHAR GREEK
ENCODING 8042
SWIDTH 360 0
DWIDTH 6 0
BBX 6 8 0 0
BITMAP
C0
58
A4
A4
64
24
18
3C
ENDCHAR
STARTCHAR GREEK
ENCODING 8043
SWIDTH 360 0
DWIDTH 6 0
BBX 6 8 0 0
BITMAP
C0
98
64
A4
64
24
18
3C
ENDCHAR
STARTCHAR GREEK
ENCODING 8044
SWIDTH 360 0
DWIDTH 6 0
BBX 6 8 0 0
BITMAP
C0
58
A4
64
A4
24
18
3C
ENDCHAR
STARTCHAR GREEK
ENCODING 8045
SWIDTH 360 0
DWIDTH 6 0
BBX 6 8 0 0
BITMAP
C0
98
64
64
A4
24
18
3C
ENDCHAR
STARTCHAR GREEK
ENCODING 8046
SWIDTH 360 0
DWIDTH 6 0
BBX 6 9 0 0
BITMAP
68
B0
D8
64
A4
24
24
18
3C
ENDCHAR
STARTCHAR GREEK
ENCODING 8047
SWIDTH 360 0
DWIDTH 6 0
BBX 6 9 0 0
BITMAP
68
B0
D8
A4
64
24
24
18
3C
ENDCHAR
STARTCHAR GREEK
ENCODING 8048
SWIDTH 360 0
DWIDTH 6 0
BBX 5 8 0 0
BITMAP
40
20
00
68
98
88
98
68
ENDCHAR
STARTCHAR GREEK
ENCODING 8049
SWIDTH 360 0
DWIDTH 6 0
BBX 5 8 0 0
BITMAP
10
20
00
68
98
88
98
68
ENDCHAR
STARTCHAR GREEK
ENCODING 8050
SWIDTH 360 0
DWIDTH 6 0
BBX 5 8 0 0
BITMAP
40
20
00
70
88
E0
88
70
ENDCHAR
STARTCHAR GREEK
ENCODING 8051
SWIDTH 360 0
DWIDTH 6 0
BBX 5 8 0 0
BITMAP
10
20
00
70
88
E0
88
70
ENDCHAR
STARTCHAR GREEK
ENCODING 8052
SWIDTH 360 0
DWIDTH 6 0
BBX 5 10 0 -2
BITMAP
40
20
00
B0
C8
88
88
88
08
08
ENDCHAR
STARTCHAR GREEK
ENCODING 8053
SWIDTH 360 0
DWIDTH 6 0
BBX 5 10 0 -2
BITMAP
10
20
00
B0
C8
88
88
88
08
08
ENDCHAR
STARTCHAR GREEK
ENCODING 8054
SWIDTH 360 0
DWIDTH 6 0
BBX 4 8 1 0
BITMAP
80
40
00
40
40
40
50
20
ENDCHAR
STARTCHAR GREEK
ENCODING 8055
SWIDTH 360 0
DWIDTH 6 0
BBX 3 8 2 0
BITMAP
40
80
00
80
80
80
A0
40
ENDCHAR
STARTCHAR GREEK
ENCODING 8056
SWIDTH 360 0
DWIDTH 6 0
BBX 5 8 0 0
BITMAP
40
20
00
70
88
88
88
70
ENDCHAR
STARTCHAR GREEK
ENCODING 8057
SWIDTH 360 0
DWIDTH 6 0
BBX 5 8 0 0
BITMAP
10
20
00
70
88
88
88
70
ENDCHAR
STARTCHAR GREEK
ENCODING 8058
SWIDTH 360 0
DWIDTH 6 0
BBX 5 8 0 0
BITMAP
40
20
00
88
88
88
88
70
ENDCHAR
STARTCHAR GREEK
ENCODING 8059
SWIDTH 360 0
DWIDTH 6 0
BBX 5 8 0 0
BITMAP
10
20
00
88
88
88
88
70
ENDCHAR
STARTCHAR GREEK
ENCODING 8060
SWIDTH 360 0
DWIDTH 6 0
BBX 5 8 0 0
BITMAP
40
20
00
88
88
A8
A8
50
ENDCHAR
STARTCHAR GREEK
ENCODING 8061
SWIDTH 360 0
DWIDTH 6 0
BBX 5 8 0 0
BITMAP
10
20
00
88
88
A8
A8
50
ENDCHAR
STARTCHAR GREEK
ENCODING 8064
SWIDTH 360 0
DWIDTH 6 0
BBX 5 11 0 -2
BITMAP
30
10
20
00
68
98
88
98
68
20
10
ENDCHAR
STARTCHAR GREEK
ENCODING 8065
SWIDTH 360 0
DWIDTH 6 0
BBX 5 11 0 -2
BITMAP
30
20
10
00
68
98
88
98
68
20
10
ENDCHAR
STARTCHAR GREEK
ENCODING 8066
SWIDTH 360 0
DWIDTH 6 0
BBX 5 11 0 -2
BITMAP
C0
50
88
00
68
98
88
98
68
20
10
ENDCHAR
STARTCHAR GREEK
ENCODING 8067
SWIDTH 360 0
DWIDTH 6 0
BBX 5 11 0 -2
BITMAP
C0
90
48
00
68
98
88
98
68
20
10
ENDCHAR
STARTCHAR GREEK
ENCODING 8068
SWIDTH 360 0
DWIDTH 6 0
BBX 5 11 0 -2
BITMAP
C0
48
90
00
68
98
88
98
68
20
10
ENDCHAR
STARTCHAR GREEK
ENCODING 8069
SWIDTH 360 0
DWIDTH 6 0
BBX 5 11 0 -2
BITMAP
C0
88
50
00
68
98
88
98
68
20
10
ENDCHAR
STARTCHAR GREEK
ENCODING 8070
SWIDTH 360 0
DWIDTH 6 0
BBX 5 11 0 -2
BITMAP
68
B0
10
20
68
98
88
98
68
20
10
ENDCHAR
STARTCHAR GREEK
ENCODING 8071
SWIDTH 360 0
DWIDTH 6 0
BBX 5 11 0 -2
BITMAP
68
B0
20
10
68
98
88
98
68
20
10
ENDCHAR
STARTCHAR GREEK
ENCODING 8072
SWIDTH 360 0
DWIDTH 6 0
BBX 5 11 0 -2
BITMAP
C0
40
B0
48
48
78
48
48
48
40
20
ENDCHAR
STARTCHAR GREEK
ENCODING 8073
SWIDTH 360 0
DWIDTH 6 0
BBX 5 11 0 -2
BITMAP
C0
80
70
48
48
78
48
48
48
40
20
ENDCHAR
STARTCHAR GREEK
ENCODING 8074
SWIDTH 360 0
DWIDTH 6 0
BBX 5 11 0 -2
BITMAP
D0
48
B0
48
48
78
48
48
48
40
20
ENDCHAR
STARTCHAR GREEK
ENCODING 8075
SWIDTH 360 0
DWIDTH 6 0
BBX 5 11 0 -2
BITMAP
D0
88
70
48
48
78
48
48
48
40
20
ENDCHAR
STARTCHAR GREEK
ENCODING 8076
SWIDTH 360 0
DWIDTH 6 0
BBX 5 11 0 -2
BITMAP
C8
50
B0
48
48
78
48
48
48
40
20
ENDCHAR
STARTCHAR GREEK
ENCODING 8077
SWIDTH 360 0
DWIDTH 6 0
BBX 5 11 0 -2
BITMAP
C8
90
70
48
48
78
48
48
48
40
20
ENDCHAR
STARTCHAR GREEK
ENCODING 8078
SWIDTH 360 0
DWIDTH 6 0
BBX 6 11 0 -2
BITMAP
68
B0
18
E4
64
BC
24
24
24
20
10
ENDCHAR
STARTCHAR GREEK
ENCODING 8079
SWIDTH 360 0
DWIDTH 6 0
BBX 6 11 0 -2
BITMAP
68
B0
18
E4
A4
7C
24
24
24
20
10
ENDCHAR
STARTCHAR GREEK
ENCODING 8080
SWIDTH 360 0
DWIDTH 6 0
BBX 5 11 0 -2
BITMAP
30
10
20
00
B0
C8
88
88
88
88
48
ENDCHAR
STARTCHAR GREEK
ENCODING 8081
SWIDTH 360 0
DWIDTH 6 0
BBX 5 11 0 -2
BITMAP
30
20
10
00
B0
C8
88
88
88
88
48
ENDCHAR
STARTCHAR GREEK
ENCODING 8082
SWIDTH 360 0
DWIDTH 6 0
BBX 5 11 0 -2
BITMAP
C0
50
88
00
B0
C8
88
88
88
88
48
ENDCHAR
STARTCHAR GREEK
ENCODING 8083
SWIDTH 360 0
DWIDTH 6 0
BBX 5 11 0 -2
BITMAP
C0
90
48
00
B0
C8
88
88
88
88
48
ENDCHAR
STARTCHAR GREEK
ENCODING 8084
SWIDTH 360 0
DWIDTH 6 0
BBX 5 11 0 -2
BITMAP
C0
48
90
00
B0
C8
88
88
88
88
48
ENDCHAR
STARTCHAR GREEK
ENCODING 8085
SWIDTH 360 0
DWIDTH 6 0
BBX 5 11 0 -2
BITMAP
C0
88
50
00
B0
C8
88
88
88
88
48
ENDCHAR
STARTCHAR GREEK
ENCODING 8086
SWIDTH 360 0
DWIDTH 6 0
BBX 5 11 0 -2
BITMAP
68
B0
10
20
B0
C8
88
88
88
88
48
ENDCHAR
STARTCHAR GREEK
ENCODING 8087
SWIDTH 360 0
DWIDTH 6 0
BBX 5 11 0 -2
BITMAP
68
B0
20
10
B0
C8
88
88
88
88
48
ENDCHAR
STARTCHAR GREEK
ENCODING 8088
SWIDTH 360 0
DWIDTH 6 0
BBX 6 10 0 -2
BITMAP
C0
64
A4
24
3C
24
24
24
20
10
ENDCHAR
STARTCHAR GREEK
ENCODING 8089
SWIDTH 360 0
DWIDTH 6 0
BBX 6 10 0 -2
BITMAP
C0
A4
64
24
3C
24
24
24
20
10
ENDCHAR
STARTCHAR GREEK
ENCODING 8090
SWIDTH 360 0
DWIDTH 6 0
BBX 6 10 0 -2
BITMAP
C0
64
A4
A4
7C
24
24
24
20
10
ENDCHAR
STARTCHAR GREEK
ENCODING 8091
SWIDTH 360 0
DWIDTH 6 0
BBX 6 10 0 -2
BITMAP
C0
A4
64
A4
7C
24
24
24
20
10
ENDCHAR
STARTCHAR GREEK
ENCODING 8092
SWIDTH 360 0
DWIDTH 6 0
BBX 6 10 0 -2
BITMAP
C0
64
A4
64
BC
24
24
24
20
10
ENDCHAR
STARTCHAR GREEK
ENCODING 8093
SWIDTH 360 0
DWIDTH 6 0
BBX 6 10 0 -2
BITMAP
C0
A4
64
64
BC
24
24
24
20
10
ENDCHAR
STARTCHAR GREEK
ENCODING 8094
SWIDTH 360 0
DWIDTH 6 0
BBX 6 11 0 -2
BITMAP
68
B0
E4
64
A4
3C
24
24
24
20
10
ENDCHAR
STARTCHAR GREEK
ENCODING 8095
SWIDTH 360 0
DWIDTH 6 0
BBX 6 11 0 -2
BITMAP
68
B0
E4
A4
64
3C
24
24
24
20
10
ENDCHAR
STARTCHAR GREEK
ENCODING 8096
SWIDTH 360 0
DWIDTH 6 0
BBX 5 11 0 -2
BITMAP
30
10
20
00
88
88
A8
A8
50
20
10
ENDCHAR
STARTCHAR GREEK
ENCODING 8097
SWIDTH 360 0
DWIDTH 6 0
BBX 5 11 0 -2
BITMAP
30
20
10
00
88
88
A8
A8
50
20
10
ENDCHAR
STARTCHAR GREEK
ENCODING 8098
SWIDTH 360 0
DWIDTH 6 0
BBX 5 11 0 -2
BITMAP
C0
50
88
00
88
88
A8
A8
50
20
10
ENDCHAR
STARTCHAR GREEK
ENCODING 8099
SWIDTH 360 0
DWIDTH 6 0
BBX 5 11 0 -2
BITMAP
C0
90
48
00
88
88
A8
A8
50
20
10
ENDCHAR
STARTCHAR GREEK
ENCODING 8100
SWIDTH 360 0
DWIDTH 6 0
BBX 5 11 0 -2
BITMAP
C0
48
90
00
88
88
A8
A8
50
20
10
ENDCHAR
STARTCHAR GREEK
ENCODING 8101
SWIDTH 360 0
DWIDTH 6 0
BBX 5 11 0 -2
BITMAP
C0
88
50
00
88
88
A8
A8
50
20
10
ENDCHAR
STARTCHAR GREEK
ENCODING 8102
SWIDTH 360 0
DWIDTH 6 0
BBX 5 11 0 -2
BITMAP
68
B0
20
40
88
88
A8
A8
50
20
10
ENDCHAR
STARTCHAR GREEK
ENCODING 8103
SWIDTH 360 0
DWIDTH 6 0
BBX 5 11 0 -2
BITMAP
68
B0
20
10
88
88
A8
A8
50
20
10
ENDCHAR
STARTCHAR GREEK
ENCODING 8104
SWIDTH 360 0
DWIDTH 6 0
BBX 6 10 0 -2
BITMAP
C0
58
A4
24
24
24
18
3C
20
10
ENDCHAR
STARTCHAR GREEK
ENCODING 8105
SWIDTH 360 0
DWIDTH 6 0
BBX 6 10 0 -2
BITMAP
C0
98
64
24
24
24
18
3C
20
10
ENDCHAR
STARTCHAR GREEK
ENCODING 8106
SWIDTH 360 0
DWIDTH 6 0
BBX 6 10 0 -2
BITMAP
C0
58
A4
A4
64
24
18
3C
20
10
ENDCHAR
STARTCHAR GREEK
ENCODING 8107
SWIDTH 360 0
DWIDTH 6 0
BBX 6 10 0 -2
BITMAP
C0
98
64
A4
64
24
18
3C
20
10
ENDCHAR
STARTCHAR GREEK
ENCODING 8108
SWIDTH 360 0
DWIDTH 6 0
BBX 6 10 0 -2
BITMAP
C0
58
A4
64
A4
24
18
3C
20
10
ENDCHAR
STARTCHAR GREEK
ENCODING 8109
SWIDTH 360 0
DWIDTH 6 0
BBX 6 10 0 -2
BITMAP
C0
98
64
64
A4
24
18
3C
20
10
ENDCHAR
STARTCHAR GREEK
ENCODING 8110
SWIDTH 360 0
DWIDTH 6 0
BBX 6 11 0 -2
BITMAP
68
B0
D8
64
A4
24
24
18
3C
20
10
ENDCHAR
STARTCHAR GREEK
ENCODING 8111
SWIDTH 360 0
DWIDTH 6 0
BBX 6 11 0 -2
BITMAP
68
B0
D8
A4
64
24
24
18
3C
20
10
ENDCHAR
STARTCHAR GREEK
ENCODING 8112
SWIDTH 360 0
DWIDTH 6 0
BBX 5 8 0 0
BITMAP
88
70
00
68
98
88
98
68
ENDCHAR
STARTCHAR GREEK
ENCODING 8113
SWIDTH 360 0
DWIDTH 6 0
BBX 5 8 0 0
BITMAP
70
00
00
68
98
88
98
68
ENDCHAR
STARTCHAR GREEK
ENCODING 8114
SWIDTH 360 0
DWIDTH 6 0
BBX 5 10 0 -2
BITMAP
40
20
00
68
98
88
98
68
20
10
ENDCHAR
STARTCHAR GREEK
ENCODING 8115
SWIDTH 360 0
DWIDTH 6 0
BBX 5 7 0 -2
BITMAP
68
98
88
98
68
20
10
ENDCHAR
STARTCHAR GREEK
ENCODING 8116
SWIDTH 360 0
DWIDTH 6 0
BBX 5 10 0 -2
BITMAP
10
20
00
68
98
88
98
68
20
10
ENDCHAR
STARTCHAR GREEK
ENCODING 8118
SWIDTH 360 0
DWIDTH 6 0
BBX 5 8 0 0
BITMAP
68
B0
00
68
98
88
98
68
ENDCHAR
STARTCHAR GREEK
ENCODING 8119
SWIDTH 360 0
DWIDTH 6 0
BBX 5 10 0 -2
BITMAP
68
B0
00
68
98
88
98
68
20
10
ENDCHAR
STARTCHAR GREEK
ENCODING 8120
SWIDTH 360 0
DWIDTH 6 0
BBX 5 9 0 0
BITMAP
88
70
70
88
88
F8
88
88
88
ENDCHAR
STARTCHAR GREEK
ENCODING 8121
SWIDTH 360 0
DWIDTH 6 0
BBX 5 9 0 0
BITMAP
70
00
70
88
88
F8
88
88
88
ENDCHAR
STARTCHAR GREEK
ENCODING 8122
SWIDTH 360 0
DWIDTH 6 0
BBX 5 9 0 0
BITMAP
80
40
30
48
48
78
48
48
48
ENDCHAR
STARTCHAR GREEK
ENCODING 8123
SWIDTH 360 0
DWIDTH 6 0
BBX 5 9 0 0
BITMAP
40
80
30
48
48
78
48
48
48
ENDCHAR
STARTCHAR GREEK
ENCODING 8124
SWIDTH 360 0
DWIDTH 6 0
BBX 5 9 0 -2
BITMAP
70
88
88
F8
88
88
88
80
40
ENDCHAR
STARTCHAR GREEK
ENCODING 8125
SWIDTH 360 0
DWIDTH 6 0
BBX 2 3 2 5
BITMAP
C0
40
80
ENDCHAR
STARTCHAR GREEK
ENCODING 8126
SWIDTH 360 0
DWIDTH 6 0
BBX 2 2 2 -2
BITMAP
80
40
ENDCHAR
STARTCHAR GREEK
ENCODING 8127
SWIDTH 360 0
DWIDTH 6 0
BBX 2 3 2 5
BITMAP
C0
40
80
ENDCHAR
STARTCHAR GREEK
ENCODING 8130
SWIDTH 360 0
DWIDTH 6 0
BBX 5 10 0 -2
BITMAP
40
20
00
B0
C8
88
88
88
88
48
ENDCHAR
STARTCHAR GREEK
ENCODING 8131
SWIDTH 360 0
DWIDTH 6 0
BBX 5 7 0 -2
BITMAP
B0
C8
88
88
88
88
48
ENDCHAR
STARTCHAR GREEK
ENCODING 8132
SWIDTH 360 0
DWIDTH 6 0
BBX 5 10 0 -2
BITMAP
10
20
00
B0
C8
88
88
88
88
48
ENDCHAR
STARTCHAR GREEK
ENCODING 8134
SWIDTH 360 0
DWIDTH 6 0
BBX 5 10 0 -2
BITMAP
68
B0
00
B0
C8
88
88
88
08
08
ENDCHAR
STARTCHAR GREEK
ENCODING 8135
SWIDTH 360 0
DWIDTH 6 0
BBX 5 10 0 -2
BITMAP
68
B0
00
B0
C8
88
88
88
88
48
ENDCHAR
STARTCHAR GREEK
ENCODING 8136
SWIDTH 360 0
DWIDTH 6 0
BBX 6 8 0 0
BITMAP
80
7C
20
20
38
20
20
3C
ENDCHAR
STARTCHAR GREEK
ENCODING 8137
SWIDTH 360 0
DWIDTH 6 0
BBX 6 8 0 0
BITMAP
40
BC
20
20
38
20
20
3C
ENDCHAR
STARTCHAR GREEK
ENCODING 8138
SWIDTH 360 0
DWIDTH 6 0
BBX 6 8 0 0
BITMAP
80
64
24
24
3C
24
24
24
ENDCHAR
STARTCHAR GREEK
ENCODING 8139
SWIDTH 360 0
DWIDTH 6 0
BBX 6 8 0 0
BITMAP
40
A4
24
24
3C
24
24
24
ENDCHAR
STARTCHAR GREEK
ENCODING 8140
SWIDTH 360 0
DWIDTH 6 0
BBX 5 9 0 -2
BITMAP
88
88
88
F8
88
88
88
80
40
ENDCHAR
STARTCHAR GREEK
ENCODING 8141
SWIDTH 360 0
DWIDTH 6 0
BBX 5 3 0 5
BITMAP
C0
50
88
ENDCHAR
STARTCHAR GREEK
ENCODING 8142
SWIDTH 360 0
DWIDTH 6 0
BBX 5 3 0 5
BITMAP
C0
48
90
ENDCHAR
STARTCHAR GREEK
ENCODING 8143
SWIDTH 360 0
DWIDTH 6 0
BBX 5 4 0 5
BITMAP
68
B0
10
20
ENDCHAR
STARTCHAR GREEK
ENCODING 8144
SWIDTH 360 0
DWIDTH 6 0
BBX 5 8 0 0
BITMAP
88
70
00
20
20
20
28
10
ENDCHAR
STARTCHAR GREEK
ENCODING 8145
SWIDTH 360 0
DWIDTH 6 0
BBX 4 7 1 0
BITMAP
E0
00
40
40
40
50
20
ENDCHAR
STARTCHAR GREEK
ENCODING 8146
SWIDTH 360 0
DWIDTH 6 0
BBX 5 9 0 0
BITMAP
40
20
88
00
20
20
20
28
10
ENDCHAR
STARTCHAR GREEK
ENCODING 8147
SWIDTH 360 0
DWIDTH 6 0
BBX 5 9 0 0
BITMAP
10
20
88
00
20
20
20
28
10
ENDCHAR
STARTCHAR GREEK
ENCODING 8150
SWIDTH 360 0
DWIDTH 6 0
BBX 5 8 0 0
BITMAP
68
B0
00
20
20
20
28
10
ENDCHAR
STARTCHAR GREEK
ENCODING 8151
SWIDTH 360 0
DWIDTH 6 0
BBX 5 9 0 0
BITMAP
68
B0
00
88
20
20
20
28
10
ENDCHAR
STARTCHAR GREEK
ENCODING 8152
SWIDTH 360 0
DWIDTH 6 0
BBX 5 9 0 0
BITMAP
68
B0
70
20
20
20
20
20
70
ENDCHAR
STARTCHAR GREEK
ENCODING 8153
SWIDTH 360 0
DWIDTH 6 0
BBX 3 9 1 0
BITMAP
E0
00
E0
40
40
40
40
40
E0
ENDCHAR
STARTCHAR GREEK
ENCODING 8154
SWIDTH 360 0
DWIDTH 6 0
BBX 5 8 0 0
BITMAP
80
78
10
10
10
10
10
38
ENDCHAR
STARTCHAR GREEK
ENCODING 8155
SWIDTH 360 0
DWIDTH 6 0
BBX 5 8 0 0
BITMAP
40
B8
10
10
10
10
10
38
ENDCHAR
STARTCHAR GREEK
ENCODING 8157
SWIDTH 360 0
DWIDTH 6 0
BBX 5 3 0 5
BITMAP
C0
90
48
ENDCHAR
STARTCHAR GREEK
ENCODING 8158
SWIDTH 360 0
DWIDTH 6 0
BBX 5 3 0 5
BITMAP
C0
88
50
ENDCHAR
STARTCHAR GREEK
ENCODING 8159
SWIDTH 360 0
DWIDTH 6 0
BBX 5 4 0 5
BITMAP
68
B0
20
10
ENDCHAR
STARTCHAR GREEK
ENCODING 8160
SWIDTH 360 0
DWIDTH 6 0
BBX 5 8 0 0
BITMAP
88
70
00
88
88
88
88
70
ENDCHAR
STARTCHAR GREEK
ENCODING 8161
SWIDTH 360 0
DWIDTH 6 0
BBX 5 7 0 0
BITMAP
70
00
88
88
88
88
70
ENDCHAR
STARTCHAR GREEK
ENCODING 8162
SWIDTH 360 0
DWIDTH 6 0
BBX 5 9 0 0
BITMAP
40
20
88
00
88
88
88
88
70
ENDCHAR
STARTCHAR GREEK
ENCODING 8163
SWIDTH 360 0
DWIDTH 6 0
BBX 5 9 0 0
BITMAP
10
20
88
00
88
88
88
88
70
ENDCHAR
STARTCHAR GREEK
ENCODING 8164
SWIDTH 360 0
DWIDTH 6 0
BBX 5 11 0 -2
BITMAP
30
10
20
00
70
88
88
88
F0
80
80
ENDCHAR
STARTCHAR GREEK
ENCODING 8165
SWIDTH 360 0
DWIDTH 6 0
BBX 5 11 0 -2
BITMAP
30
20
10
00
70
88
88
88
F0
80
80
ENDCHAR
STARTCHAR GREEK
ENCODING 8166
SWIDTH 360 0
DWIDTH 6 0
BBX 5 8 0 0
BITMAP
68
B0
00
88
88
88
88
70
ENDCHAR
STARTCHAR GREEK
ENCODING 8167
SWIDTH 360 0
DWIDTH 6 0
BBX 5 9 0 0
BITMAP
68
B0
88
00
88
88
88
88
70
ENDCHAR
STARTCHAR GREEK
ENCODING 8168
SWIDTH 360 0
DWIDTH 6 0
BBX 5 9 0 0
BITMAP
88
70
88
88
88
50
20
20
20
ENDCHAR
STARTCHAR GREEK
ENCODING 8169
SWIDTH 360 0
DWIDTH 6 0
BBX 5 9 0 0
BITMAP
70
00
88
88
88
50
20
20
20
ENDCHAR
STARTCHAR GREEK
ENCODING 8170
SWIDTH 360 0
DWIDTH 6 0
BBX 5 8 0 0
BITMAP
80
68
28
28
10
10
10
10
ENDCHAR
STARTCHAR GREEK
ENCODING 8171
SWIDTH 360 0
DWIDTH 6 0
BBX 5 8 0 0
BITMAP
40
A8
28
28
10
10
10
10
ENDCHAR
STARTCHAR GREEK
ENCODING 8172
SWIDTH 360 0
DWIDTH 6 0
BBX 6 8 0 0
BITMAP
C0
B8
64
24
24
38
20
20
ENDCHAR
STARTCHAR GREEK
ENCODING 8173
SWIDTH 360 0
DWIDTH 6 0
BBX 3 4 1 5
BITMAP
80
40
00
A0
ENDCHAR
STARTCHAR GREEK
ENCODING 8174
SWIDTH 360 0
DWIDTH 6 0
BBX 3 4 1 5
BITMAP
20
40
00
A0
ENDCHAR
STARTCHAR GREEK
ENCODING 8175
SWIDTH 360 0
DWIDTH 6 0
BBX 2 2 1 6
BITMAP
80
40
ENDCHAR
STARTCHAR GREEK
ENCODING 8178
SWIDTH 360 0
DWIDTH 6 0
BBX 5 10 0 -2
BITMAP
40
20
00
88
88
A8
A8
50
20
10
ENDCHAR
STARTCHAR GREEK
ENCODING 8179
SWIDTH 360 0
DWIDTH 6 0
BBX 5 7 0 -2
BITMAP
88
88
A8
A8
50
20
10
ENDCHAR
STARTCHAR GREEK
ENCODING 8180
SWIDTH 360 0
DWIDTH 6 0
BBX 5 10 0 -2
BITMAP
10
20
00
88
88
A8
A8
50
20
10
ENDCHAR
STARTCHAR GREEK
ENCODING 8182
SWIDTH 360 0
DWIDTH 6 0
BBX 5 8 0 0
BITMAP
68
B0
00
88
88
A8
A8
50
ENDCHAR
STARTCHAR GREEK
ENCODING 8183
SWIDTH 360 0
DWIDTH 6 0
BBX 5 10 0 -2
BITMAP
68
B0
00
88
88
A8
A8
50
20
10
ENDCHAR
STARTCHAR GREEK
ENCODING 8184
SWIDTH 360 0
DWIDTH 6 0
BBX 5 8 0 0
BITMAP
80
70
48
48
48
48
48
30
ENDCHAR
STARTCHAR GREEK
ENCODING 8185
SWIDTH 360 0
DWIDTH 6 0
BBX 5 8 0 0
BITMAP
40
B0
48
48
48
48
48
30
ENDCHAR
STARTCHAR GREEK
ENCODING 8186
SWIDTH 360 0
DWIDTH 6 0
BBX 5 8 0 0
BITMAP
80
70
48
48
48
48
30
78
ENDCHAR
STARTCHAR GREEK
ENCODING 8187
SWIDTH 360 0
DWIDTH 6 0
BBX 5 8 0 0
BITMAP
40
B0
48
48
48
48
30
78
ENDCHAR
STARTCHAR GREEK
ENCODING 8188
SWIDTH 360 0
DWIDTH 6 0
BBX 5 9 0 -2
BITMAP
70
88
88
88
88
50
D8
20
10
ENDCHAR
STARTCHAR GREEK
ENCODING 8189
SWIDTH 360 0
DWIDTH 6 0
BBX 2 2 2 6
BITMAP
40
80
ENDCHAR
STARTCHAR GREEK
ENCODING 8190
SWIDTH 360 0
DWIDTH 6 0
BBX 2 3 2 5
BITMAP
C0
80
40
ENDCHAR
STARTCHAR HYPHEN
ENCODING 8208
SWIDTH 360 0
DWIDTH 6 0
BBX 3 1 1 3
BITMAP
E0
ENDCHAR
STARTCHAR FIGURE
ENCODING 8210
SWIDTH 360 0
DWIDTH 6 0
BBX 5 1 0 3
BITMAP
F8
ENDCHAR
STARTCHAR EN
ENCODING 8211
SWIDTH 360 0
DWIDTH 6 0
BBX 5 1 0 3
BITMAP
F8
ENDCHAR
STARTCHAR EM
ENCODING 8212
SWIDTH 360 0
DWIDTH 6 0
BBX 6 1 0 3
BITMAP
FC
ENDCHAR
STARTCHAR HORIZONTAL
ENCODING 8213
SWIDTH 360 0
DWIDTH 6 0
BBX 6 1 0 3
BITMAP
FC
ENDCHAR
STARTCHAR DOUBLE
ENCODING 8214
SWIDTH 360 0
DWIDTH 6 0
BBX 3 10 1 -2
BITMAP
A0
A0
A0
A0
A0
A0
A0
A0
A0
A0
ENDCHAR
STARTCHAR DOUBLE
ENCODING 8215
SWIDTH 360 0
DWIDTH 6 0
BBX 6 3 0 -3
BITMAP
FC
00
FC
ENDCHAR
STARTCHAR LEFT
ENCODING 8216
SWIDTH 360 0
DWIDTH 6 0
BBX 2 3 2 5
BITMAP
40
80
C0
ENDCHAR
STARTCHAR RIGHT
ENCODING 8217
SWIDTH 360 0
DWIDTH 6 0
BBX 2 3 2 5
BITMAP
C0
40
80
ENDCHAR
STARTCHAR SINGLE
ENCODING 8218
SWIDTH 360 0
DWIDTH 6 0
BBX 2 3 2 -2
BITMAP
C0
40
80
ENDCHAR
STARTCHAR SINGLE
ENCODING 8219
SWIDTH 360 0
DWIDTH 6 0
BBX 2 3 2 5
BITMAP
C0
80
40
ENDCHAR
STARTCHAR LEFT
ENCODING 8220
SWIDTH 360 0
DWIDTH 6 0
BBX 4 3 1 5
BITMAP
50
A0
F0
ENDCHAR
STARTCHAR RIGHT
ENCODING 8221
SWIDTH 360 0
DWIDTH 6 0
BBX 4 3 1 5
BITMAP
F0
50
A0
ENDCHAR
STARTCHAR DOUBLE
ENCODING 8222
SWIDTH 360 0
DWIDTH 6 0
BBX 4 3 1 -2
BITMAP
F0
50
A0
ENDCHAR
STARTCHAR DOUBLE
ENCODING 8223
SWIDTH 360 0
DWIDTH 6 0
BBX 4 3 1 5
BITMAP
F0
A0
50
ENDCHAR
STARTCHAR DAGGER
ENCODING 8224
SWIDTH 360 0
DWIDTH 6 0
BBX 5 9 0 -2
BITMAP
20
20
F8
20
20
20
20
20
20
ENDCHAR
STARTCHAR DOUBLE
ENCODING 8225
SWIDTH 360 0
DWIDTH 6 0
BBX 5 9 0 -2
BITMAP
20
20
F8
20
20
20
F8
20
20
ENDCHAR
STARTCHAR BULLET
ENCODING 8226
SWIDTH 360 0
DWIDTH 6 0
BBX 5 5 0 1
BITMAP
70
F8
F8
F8
70
ENDCHAR
STARTCHAR TRIANGULAR
ENCODING 8227
SWIDTH 360 0
DWIDTH 6 0
BBX 5 5 0 1
BITMAP
C0
F0
F8
F0
C0
ENDCHAR
STARTCHAR ONE
ENCODING 8228
SWIDTH 360 0
DWIDTH 6 0
BBX 2 2 2 0
BITMAP
C0
C0
ENDCHAR
STARTCHAR TWO
ENCODING 8229
SWIDTH 360 0
DWIDTH 6 0
BBX 5 2 0 0
BITMAP
D8
D8
ENDCHAR
STARTCHAR HORIZONTAL
ENCODING 8230
SWIDTH 360 0
DWIDTH 6 0
BBX 5 1 0 0
BITMAP
A8
ENDCHAR
STARTCHAR HYPHENATION
ENCODING 8231
SWIDTH 360 0
DWIDTH 6 0
BBX 2 2 2 2
BITMAP
C0
C0
ENDCHAR
STARTCHAR PER
ENCODING 8240
SWIDTH 360 0
DWIDTH 6 0
BBX 5 7 0 0
BITMAP
48
A8
50
20
50
A8
D0
ENDCHAR
STARTCHAR PRIME
ENCODING 8242
SWIDTH 360 0
DWIDTH 6 0
BBX 2 3 1 5
BITMAP
40
40
80
ENDCHAR
STARTCHAR DOUBLE
ENCODING 8243
SWIDTH 360 0
DWIDTH 6 0
BBX 4 3 1 5
BITMAP
50
50
A0
ENDCHAR
STARTCHAR TRIPLE
ENCODING 8244
SWIDTH 360 0
DWIDTH 6 0
BBX 6 3 0 5
BITMAP
54
54
A8
ENDCHAR
STARTCHAR REVERSED
ENCODING 8245
SWIDTH 360 0
DWIDTH 6 0
BBX 2 3 1 5
BITMAP
80
80
40
ENDCHAR
STARTCHAR REVERSED
ENCODING 8246
SWIDTH 360 0
DWIDTH 6 0
BBX 4 3 1 5
BITMAP
A0
A0
50
ENDCHAR
STARTCHAR REVERSED
ENCODING 8247
SWIDTH 360 0
DWIDTH 6 0
BBX 6 3 0 5
BITMAP
A8
A8
54
ENDCHAR
STARTCHAR CARET
ENCODING 8248
SWIDTH 360 0
DWIDTH 6 0
BBX 5 3 0 -1
BITMAP
20
50
88
ENDCHAR
STARTCHAR SINGLE
ENCODING 8249
SWIDTH 360 0
DWIDTH 6 0
BBX 2 6 1 0
BITMAP
40
40
80
80
40
40
ENDCHAR
STARTCHAR SINGLE
ENCODING 8250
SWIDTH 360 0
DWIDTH 6 0
BBX 2 6 2 0
BITMAP
80
80
40
40
80
80
ENDCHAR
STARTCHAR DOUBLE
ENCODING 8252
SWIDTH 360 0
DWIDTH 6 0
BBX 3 7 1 0
BITMAP
A0
A0
A0
A0
A0
00
A0
ENDCHAR
STARTCHAR INTERROBANG
ENCODING 8253
SWIDTH 360 0
DWIDTH 6 0
BBX 5 7 0 0
BITMAP
70
A8
28
30
20
00
20
ENDCHAR
STARTCHAR OVERLINE
ENCODING 8254
SWIDTH 360 0
DWIDTH 6 0
BBX 5 1 0 7
BITMAP
F8
ENDCHAR
STARTCHAR UNDERTIE
ENCODING 8255
SWIDTH 360 0
DWIDTH 6 0
BBX 5 2 0 -2
BITMAP
88
70
ENDCHAR
STARTCHAR CHARACTER
ENCODING 8256
SWIDTH 360 0
DWIDTH 6 0
BBX 5 2 0 6
BITMAP
70
88
ENDCHAR
STARTCHAR CARET
ENCODING 8257
SWIDTH 360 0
DWIDTH 6 0
BBX 5 5 0 -2
BITMAP
08
10
20
50
88
ENDCHAR
STARTCHAR ASTERISM
ENCODING 8258
SWIDTH 360 0
DWIDTH 6 0
BBX 5 6 0 0
BITMAP
20
70
20
50
F8
50
ENDCHAR
STARTCHAR HYPHEN
ENCODING 8259
SWIDTH 360 0
DWIDTH 6 0
BBX 5 2 0 2
BITMAP
F8
F8
ENDCHAR
STARTCHAR FRACTION
ENCODING 8260
SWIDTH 360 0
DWIDTH 6 0
BBX 5 10 0 -2
BITMAP
08
08
10
10
20
20
40
40
80
80
ENDCHAR
STARTCHAR LEFT
ENCODING 8261
SWIDTH 360 0
DWIDTH 6 0
BBX 3 9 1 -1
BITMAP
E0
80
80
80
E0
80
80
80
E0
ENDCHAR
STARTCHAR RIGHT
ENCODING 8262
SWIDTH 360 0
DWIDTH 6 0
BBX 3 9 1 -1
BITMAP
E0
20
20
20
E0
20
20
20
E0
ENDCHAR
STARTCHAR DOUBLE
ENCODING 8263
SWIDTH 360 0
DWIDTH 6 0
BBX 5 7 0 0
BITMAP
50
A8
28
50
50
00
50
ENDCHAR
STARTCHAR QUESTION
ENCODING 8264
SWIDTH 360 0
DWIDTH 6 0
BBX 5 7 0 0
BITMAP
48
A8
28
48
48
00
48
ENDCHAR
STARTCHAR EXCLAMATION
ENCODING 8265
SWIDTH 360 0
DWIDTH 6 0
BBX 5 7 0 0
BITMAP
90
A8
88
90
90
00
90
ENDCHAR
STARTCHAR TIRONIAN
ENCODING 8266
SWIDTH 360 0
DWIDTH 6 0
BBX 4 5 0 -1
BITMAP
F0
10
20
40
80
ENDCHAR
STARTCHAR REVERSED
ENCODING 8267
SWIDTH 360 0
DWIDTH 6 0
BBX 6 9 0 -1
BITMAP
F8
5C
5C
5C
78
50
50
50
D0
ENDCHAR
STARTCHAR BLACK
ENCODING 8268
SWIDTH 360 0
DWIDTH 6 0
BBX 5 4 0 1
BITMAP
58
D8
D8
58
ENDCHAR
STARTCHAR BLACK
ENCODING 8269
SWIDTH 360 0
DWIDTH 6 0
BBX 5 4 0 1
BITMAP
D0
D8
D8
D0
ENDCHAR
STARTCHAR LOW
ENCODING 8270
SWIDTH 360 0
DWIDTH 6 0
BBX 5 5 0 -1
BITMAP
20
A8
70
A8
20
ENDCHAR
STARTCHAR REVERSED
ENCODING 8271
SWIDTH 360 0
DWIDTH 6 0
BBX 2 8 2 -2
BITMAP
C0
C0
00
00
C0
C0
80
40
ENDCHAR
STARTCHAR CLOSE
ENCODING 8272
SWIDTH 360 0
DWIDTH 6 0
BBX 5 8 0 0
BITMAP
70
88
00
00
00
00
88
70
ENDCHAR
STARTCHAR TWO
ENCODING 8273
SWIDTH 360 0
DWIDTH 6 0
BBX 5 7 0 -1
BITMAP
20
A8
70
A8
70
A8
20
ENDCHAR
STARTCHAR COMMERCIAL
ENCODING 8274
SWIDTH 360 0
DWIDTH 6 0
BBX 4 8 0 -1
BITMAP
90
10
20
20
40
40
80
90
ENDCHAR
STARTCHAR SWUNG
ENCODING 8275
SWIDTH 360 0
DWIDTH 6 0
BBX 6 2 0 3
BITMAP
64
98
ENDCHAR
STARTCHAR INVERTED
ENCODING 8276
SWIDTH 360 0
DWIDTH 6 0
BBX 5 2 0 -2
BITMAP
70
88
ENDCHAR
STARTCHAR FLOWER
ENCODING 8277
SWIDTH 360 0
DWIDTH 6 0
BBX 5 5 0 1
BITMAP
A8
70
F8
70
A8
ENDCHAR
STARTCHAR THREE
ENCODING 8278
SWIDTH 360 0
DWIDTH 6 0
BBX 3 5 0 0
BITMAP
20
00
80
00
20
ENDCHAR
STARTCHAR FOUR
ENCODING 8280
SWIDTH 360 0
DWIDTH 6 0
BBX 5 5 0 0
BITMAP
20
00
88
00
20
ENDCHAR
STARTCHAR FIVE
ENCODING 8281
SWIDTH 360 0
DWIDTH 6 0
BBX 5 5 0 0
BITMAP
88
00
20
00
88
ENDCHAR
STARTCHAR TWO
ENCODING 8282
SWIDTH 360 0
DWIDTH 6 0
BBX 1 5 0 0
BITMAP
80
00
00
00
80
ENDCHAR
STARTCHAR FOUR
ENCODING 8283
SWIDTH 360 0
DWIDTH 6 0
BBX 5 7 0 0
BITMAP
20
00
00
88
00
00
20
ENDCHAR
STARTCHAR DOTTED
ENCODING 8284
SWIDTH 360 0
DWIDTH 6 0
BBX 5 5 0 0
BITMAP
A8
20
F8
20
A8
ENDCHAR
STARTCHAR TRICOLON
ENCODING 8285
SWIDTH 360 0
DWIDTH 6 0
BBX 2 8 2 -1
BITMAP
C0
C0
00
C0
C0
00
C0
C0
ENDCHAR
STARTCHAR VERTICAL
ENCODING 8286
SWIDTH 360 0
DWIDTH 6 0
BBX 1 7 0 0
BITMAP
80
00
80
00
80
00
80
ENDCHAR
STARTCHAR SUPERSCRIPT
ENCODING 8304
SWIDTH 360 0
DWIDTH 6 0
BBX 3 5 1 3
BITMAP
40
A0
E0
A0
40
ENDCHAR
STARTCHAR SUPERSCRIPT
ENCODING 8305
SWIDTH 360 0
DWIDTH 6 0
BBX 3 6 1 3
BITMAP
40
00
C0
40
40
60
ENDCHAR
STARTCHAR SUPERSCRIPT
ENCODING 8308
SWIDTH 360 0
DWIDTH 6 0
BBX 3 5 1 3
BITMAP
80
A0
E0
20
20
ENDCHAR
STARTCHAR SUPERSCRIPT
ENCODING 8309
SWIDTH 360 0
DWIDTH 6 0
BBX 3 5 1 3
BITMAP
E0
80
C0
20
C0
ENDCHAR
STARTCHAR SUPERSCRIPT
ENCODING 8310
SWIDTH 360 0
DWIDTH 6 0
BBX 3 5 1 3
BITMAP
40
80
C0
A0
40
ENDCHAR
STARTCHAR SUPERSCRIPT
ENCODING 8311
SWIDTH 360 0
DWIDTH 6 0
BBX 3 5 1 3
BITMAP
E0
20
20
40
40
ENDCHAR
STARTCHAR SUPERSCRIPT
ENCODING 8312
SWIDTH 360 0
DWIDTH 6 0
BBX 3 5 1 3
BITMAP
40
A0
40
A0
40
ENDCHAR
STARTCHAR SUPERSCRIPT
ENCODING 8313
SWIDTH 360 0
DWIDTH 6 0
BBX 3 5 1 3
BITMAP
40
A0
60
20
40
ENDCHAR
STARTCHAR SUPERSCRIPT
ENCODING 8314
SWIDTH 360 0
DWIDTH 6 0
BBX 3 3 1 4
BITMAP
40
E0
40
ENDCHAR
STARTCHAR SUPERSCRIPT
ENCODING 8315
SWIDTH 360 0
DWIDTH 6 0
BBX 3 1 1 5
BITMAP
E0
ENDCHAR
STARTCHAR SUPERSCRIPT
ENCODING 8316
SWIDTH 360 0
DWIDTH 6 0
BBX 3 3 1 4
BITMAP
E0
00
E0
ENDCHAR
STARTCHAR SUPERSCRIPT
ENCODING 8317
SWIDTH 360 0
DWIDTH 6 0
BBX 2 5 1 3
BITMAP
40
80
80
80
40
ENDCHAR
STARTCHAR SUPERSCRIPT
ENCODING 8318
SWIDTH 360 0
DWIDTH 6 0
BBX 2 5 2 3
BITMAP
80
40
40
40
80
ENDCHAR
STARTCHAR SUPERSCRIPT
ENCODING 8319
SWIDTH 360 0
DWIDTH 6 0
BBX 3 3 1 3
BITMAP
C0
A0
A0
ENDCHAR
STARTCHAR SUBSCRIPT
ENCODING 8320
SWIDTH 360 0
DWIDTH 6 0
BBX 3 5 1 -2
BITMAP
40
A0
E0
A0
40
ENDCHAR
STARTCHAR SUBSCRIPT
ENCODING 8321
SWIDTH 360 0
DWIDTH 6 0
BBX 3 5 1 -2
BITMAP
40
C0
40
40
E0
ENDCHAR
STARTCHAR SUBSCRIPT
ENCODING 8322
SWIDTH 360 0
DWIDTH 6 0
BBX 3 5 1 -2
BITMAP
C0
20
40
80
E0
ENDCHAR
STARTCHAR SUBSCRIPT
ENCODING 8323
SWIDTH 360 0
DWIDTH 6 0
BBX 3 5 1 -2
BITMAP
C0
20
40
20
C0
ENDCHAR
STARTCHAR SUBSCRIPT
ENCODING 8324
SWIDTH 360 0
DWIDTH 6 0
BBX 3 5 1 -2
BITMAP
80
A0
E0
20
20
ENDCHAR
STARTCHAR SUBSCRIPT
ENCODING 8325
SWIDTH 360 0
DWIDTH 6 0
BBX 3 5 1 -2
BITMAP
E0
80
C0
20
C0
ENDCHAR
STARTCHAR SUBSCRIPT
ENCODING 8326
SWIDTH 360 0
DWIDTH 6 0
BBX 3 5 1 -2
BITMAP
40
80
C0
A0
40
ENDCHAR
STARTCHAR SUBSCRIPT
ENCODING 8327
SWIDTH 360 0
DWIDTH 6 0
BBX 3 5 1 -2
BITMAP
E0
20
20
40
40
ENDCHAR
STARTCHAR SUBSCRIPT
ENCODING 8328
SWIDTH 360 0
DWIDTH 6 0
BBX 3 5 1 -2
BITMAP
40
A0
40
A0
40
ENDCHAR
STARTCHAR SUBSCRIPT
ENCODING 8329
SWIDTH 360 0
DWIDTH 6 0
BBX 3 5 1 -2
BITMAP
40
A0
60
20
40
ENDCHAR
STARTCHAR SUBSCRIPT
ENCODING 8330
SWIDTH 360 0
DWIDTH 6 0
BBX 3 3 1 -1
BITMAP
40
E0
40
ENDCHAR
STARTCHAR SUBSCRIPT
ENCODING 8331
SWIDTH 360 0
DWIDTH 6 0
BBX 3 1 1 0
BITMAP
E0
ENDCHAR
STARTCHAR SUBSCRIPT
ENCODING 8332
SWIDTH 360 0
DWIDTH 6 0
BBX 3 3 1 -1
BITMAP
E0
00
E0
ENDCHAR
STARTCHAR SUBSCRIPT
ENCODING 8333
SWIDTH 360 0
DWIDTH 6 0
BBX 2 5 1 -2
BITMAP
40
80
80
80
40
ENDCHAR
STARTCHAR SUBSCRIPT
ENCODING 8334
SWIDTH 360 0
DWIDTH 6 0
BBX 2 5 2 -2
BITMAP
80
40
40
40
80
ENDCHAR
STARTCHAR LATIN
ENCODING 8336
SWIDTH 360 0
DWIDTH 6 0
BBX 3 5 1 -1
BITMAP
40
20
60
A0
60
ENDCHAR
STARTCHAR LATIN
ENCODING 8337
SWIDTH 360 0
DWIDTH 6 0
BBX 3 5 1 -1
BITMAP
40
A0
E0
80
60
ENDCHAR
STARTCHAR LATIN
ENCODING 8338
SWIDTH 360 0
DWIDTH 6 0
BBX 3 5 1 -1
BITMAP
40
A0
A0
A0
40
ENDCHAR
STARTCHAR LATIN
ENCODING 8339
SWIDTH 360 0
DWIDTH 6 0
BBX 3 5 1 -1
BITMAP
A0
40
40
40
A0
ENDCHAR
STARTCHAR LATIN
ENCODING 8340
SWIDTH 360 0
DWIDTH 6 0
BBX 3 5 1 -1
BITMAP
C0
20
E0
A0
40
ENDCHAR
STARTCHAR LATIN
ENCODING 8341
SWIDTH 360 0
DWIDTH 6 0
BBX 3 5 1 -1
BITMAP
80
80
C0
A0
A0
ENDCHAR
STARTCHAR LATIN
ENCODING 8342
SWIDTH 360 0
DWIDTH 6 0
BBX 3 5 1 -1
BITMAP
80
80
A0
C0
A0
ENDCHAR
STARTCHAR LATIN
ENCODING 8343
SWIDTH 360 0
DWIDTH 6 0
BBX 3 5 1 -1
BITMAP
C0
40
40
40
60
ENDCHAR
STARTCHAR LATIN
ENCODING 8344
SWIDTH 360 0
DWIDTH 6 0
BBX 5 4 0 -1
BITMAP
D0
A8
A8
A8
ENDCHAR
STARTCHAR LATIN
ENCODING 8345
SWIDTH 360 0
DWIDTH 6 0
BBX 3 4 1 -1
BITMAP
C0
A0
A0
A0
ENDCHAR
STARTCHAR LATIN
ENCODING 8346
SWIDTH 360 0
DWIDTH 6 0
BBX 3 6 1 -3
BITMAP
C0
A0
A0
C0
80
80
ENDCHAR
STARTCHAR LATIN
ENCODING 8347
SWIDTH 360 0
DWIDTH 6 0
BBX 3 4 1 -1
BITMAP
60
C0
20
C0
ENDCHAR
STARTCHAR LATIN
ENCODING 8348
SWIDTH 360 0
DWIDTH 6 0
BBX 3 5 1 -1
BITMAP
40
E0
40
40
20
ENDCHAR
STARTCHAR EURO-CURRENCY
ENCODING 8352
SWIDTH 360 0
DWIDTH 6 0
BBX 5 7 0 0
BITMAP
70
80
B8
A0
78
20
38
ENDCHAR
STARTCHAR COLON
ENCODING 8353
SWIDTH 360 0
DWIDTH 6 0
BBX 6 10 0 -2
BITMAP
14
74
A8
A8
A8
D0
D8
70
A0
A0
ENDCHAR
STARTCHAR CRUZEIRO
ENCODING 8354
SWIDTH 360 0
DWIDTH 6 0
BBX 5 7 0 0
BITMAP
70
88
80
A8
B0
A0
78
ENDCHAR
STARTCHAR FRENCH
ENCODING 8355
SWIDTH 360 0
DWIDTH 6 0
BBX 5 7 0 0
BITMAP
78
40
F0
40
F0
40
40
ENDCHAR
STARTCHAR LIRA
ENCODING 8356
SWIDTH 360 0
DWIDTH 6 0
BBX 5 8 0 0
BITMAP
30
48
E0
40
E0
40
48
B0
ENDCHAR
STARTCHAR MILL
ENCODING 8357
SWIDTH 360 0
DWIDTH 6 0
BBX 5 7 0 -1
BITMAP
10
D0
A8
A8
A8
E8
40
ENDCHAR
STARTCHAR NAIRA
ENCODING 8358
SWIDTH 360 0
DWIDTH 6 0
BBX 5 7 0 0
BITMAP
C8
C8
F8
A8
F8
98
98
ENDCHAR
STARTCHAR RUPEE
ENCODING 8360
SWIDTH 360 0
DWIDTH 6 0
BBX 5 7 0 0
BITMAP
C0
A8
B0
D0
A8
A8
B0
ENDCHAR
STARTCHAR WON
ENCODING 8361
SWIDTH 360 0
DWIDTH 6 0
BBX 5 7 0 0
BITMAP
88
88
F8
A8
F8
50
50
ENDCHAR
STARTCHAR NEW
ENCODING 8362
SWIDTH 360 0
DWIDTH 6 0
BBX 6 5 0 0
BITMAP
F4
94
B4
A4
BC
ENDCHAR
STARTCHAR DONG
ENCODING 8363
SWIDTH 360 0
DWIDTH 6 0
BBX 5 10 0 -2
BITMAP
10
38
10
70
90
90
90
70
00
70
ENDCHAR
STARTCHAR EURO
ENCODING 8364
SWIDTH 360 0
DWIDTH 6 0
BBX 5 7 0 0
BITMAP
30
48
E0
40
E0
48
30
ENDCHAR
STARTCHAR KIP
ENCODING 8365
SWIDTH 360 0
DWIDTH 6 0
BBX 5 7 0 0
BITMAP
48
48
50
F8
50
48
48
ENDCHAR
STARTCHAR TUGRIK
ENCODING 8366
SWIDTH 360 0
DWIDTH 6 0
BBX 5 7 0 0
BITMAP
F8
20
30
60
30
60
20
ENDCHAR
STARTCHAR DRACHMA
ENCODING 8367
SWIDTH 360 0
DWIDTH 6 0
BBX 5 10 0 -3
BITMAP
C0
A0
A0
B0
A8
A8
F0
20
20
20
ENDCHAR
STARTCHAR PESO
ENCODING 8369
SWIDTH 360 0
DWIDTH 6 0
BBX 6 8 0 0
BITMAP
70
FC
48
FC
70
40
40
40
ENDCHAR
STARTCHAR GUARANI
ENCODING 8370
SWIDTH 360 0
DWIDTH 6 0
BBX 5 9 0 -1
BITMAP
20
70
A8
A0
B8
A8
A8
70
20
ENDCHAR
STARTCHAR AUSTRAL
ENCODING 8371
SWIDTH 360 0
DWIDTH 6 0
BBX 5 7 0 0
BITMAP
70
88
F8
88
F8
88
88
ENDCHAR
STARTCHAR CEDI
ENCODING 8373
SWIDTH 360 0
DWIDTH 6 0
BBX 5 9 0 -1
BITMAP
20
70
A8
A0
A0
A0
A8
70
20
ENDCHAR
STARTCHAR LIVRE
ENCODING 8374
SWIDTH 360 0
DWIDTH 6 0
BBX 5 7 0 0
BITMAP
50
50
F8
50
50
50
48
ENDCHAR
STARTCHAR TENGE
ENCODING 8376
SWIDTH 360 0
DWIDTH 6 0
BBX 5 7 0 0
BITMAP
F8
00
F8
20
20
20
20
ENDCHAR
STARTCHAR INDIAN
ENCODING 8377
SWIDTH 360 0
DWIDTH 6 0
BBX 5 8 0 -1
BITMAP
F8
10
F8
10
E0
40
20
10
ENDCHAR
STARTCHAR TURKISH
ENCODING 8378
SWIDTH 360 0
DWIDTH 6 0
BBX 5 7 0 0
BITMAP
40
60
C0
68
C8
50
60
ENDCHAR
STARTCHAR MANAT
ENCODING 8380
SWIDTH 360 0
DWIDTH 6 0
BBX 5 5 0 0
BITMAP
20
70
A8
A8
A8
ENDCHAR
STARTCHAR RUBLE
ENCODING 8381
SWIDTH 360 0
DWIDTH 6 0
BBX 5 7 0 0
BITMAP
70
48
48
F0
40
E0
40
ENDCHAR
STARTCHAR ACCOUNT
ENCODING 8448
SWIDTH 360 0
DWIDTH 6 0
BBX 5 9 0 -2
BITMAP
70
90
B8
D0
20
58
A0
20
18
ENDCHAR
STARTCHAR ADDRESSED
ENCODING 8449
SWIDTH 360 0
DWIDTH 6 0
BBX 5 10 0 -3
BITMAP
70
90
B8
D0
20
58
A0
10
08
30
ENDCHAR
STARTCHAR DOUBLE-STRUCK
ENCODING 8450
SWIDTH 360 0
DWIDTH 6 0
BBX 5 7 0 0
BITMAP
70
A8
A0
A0
A0
A8
70
ENDCHAR
STARTCHAR DEGREE
ENCODING 8451
SWIDTH 360 0
DWIDTH 6 0
BBX 6 9 0 0
BITMAP
40
A0
58
24
20
20
20
24
18
ENDCHAR
STARTCHAR CENTRE
ENCODING 8452
SWIDTH 360 0
DWIDTH 6 0
BBX 5 8 0 0
BITMAP
20
70
A8
A0
A0
78
20
38
ENDCHAR
STARTCHAR CARE
ENCODING 8453
SWIDTH 360 0
DWIDTH 6 0
BBX 5 9 0 -2
BITMAP
60
80
88
70
20
50
A8
28
10
ENDCHAR
STARTCHAR CADA
ENCODING 8454
SWIDTH 360 0
DWIDTH 6 0
BBX 5 10 0 -3
BITMAP
60
80
88
70
20
40
A8
28
28
10
ENDCHAR
STARTCHAR EULER
ENCODING 8455
SWIDTH 360 0
DWIDTH 6 0
BBX 5 7 0 0
BITMAP
70
88
80
60
88
88
70
ENDCHAR
STARTCHAR SCRUPLE
ENCODING 8456
SWIDTH 360 0
DWIDTH 6 0
BBX 5 7 0 0
BITMAP
70
88
08
38
88
88
70
ENDCHAR
STARTCHAR DEGREE
ENCODING 8457
SWIDTH 360 0
DWIDTH 6 0
BBX 6 9 0 0
BITMAP
40
A0
7C
20
20
38
20
20
20
ENDCHAR
STARTCHAR SCRIPT
ENCODING 8458
SWIDTH 360 0
DWIDTH 6 0
BBX 5 8 0 -3
BITMAP
68
98
88
88
78
88
88
70
ENDCHAR
STARTCHAR SCRIPT
ENCODING 8459
SWIDTH 360 0
DWIDTH 6 0
BBX 5 7 0 0
BITMAP
D0
58
58
70
D0
D0
48
ENDCHAR
STARTCHAR NUMERO
ENCODING 8470
SWIDTH 360 0
DWIDTH 6 0
BBX 6 7 0 0
BITMAP
90
90
D8
F4
B8
90
9C
ENDCHAR
STARTCHAR SOUND
ENCODING 8471
SWIDTH 360 0
DWIDTH 6 0
BBX 5 8 0 -1
BITMAP
F0
08
C8
A8
C8
88
08
F0
ENDCHAR
STARTCHAR TRADE
ENCODING 8482
SWIDTH 360 0
DWIDTH 6 0
BBX 6 3 0 4
BITMAP
F4
5C
5C
ENDCHAR
STARTCHAR OUNCE
ENCODING 8485
SWIDTH 360 0
DWIDTH 6 0
BBX 5 11 0 -3
BITMAP
F8
10
20
F8
10
20
70
08
08
88
70
ENDCHAR
STARTCHAR OHM
ENCODING 8486
SWIDTH 360 0
DWIDTH 6 0
BBX 5 7 0 0
BITMAP
70
88
88
88
88
50
D8
ENDCHAR
STARTCHAR INVERTED
ENCODING 8487
SWIDTH 360 0
DWIDTH 6 0
BBX 5 7 0 0
BITMAP
D8
50
88
88
88
88
70
ENDCHAR
STARTCHAR KELVIN
ENCODING 8490
SWIDTH 360 0
DWIDTH 6 0
BBX 5 7 0 0
BITMAP
88
90
A0
C0
A0
90
88
ENDCHAR
STARTCHAR ANGSTROM
ENCODING 8491
SWIDTH 360 0
DWIDTH 6 0
BBX 5 9 0 0
BITMAP
20
50
70
88
88
F8
88
88
88
ENDCHAR
STARTCHAR SCRIPT
ENCODING 8495
SWIDTH 360 0
DWIDTH 6 0
BBX 5 5 0 0
BITMAP
60
90
E0
88
70
ENDCHAR
STARTCHAR SCRIPT
ENCODING 8499
SWIDTH 360 0
DWIDTH 6 0
BBX 6 7 0 0
BITMAP
28
28
78
78
68
A8
8C
ENDCHAR
STARTCHAR SCRIPT
ENCODING 8500
SWIDTH 360 0
DWIDTH 6 0
BBX 6 5 0 0
BITMAP
60
94
98
90
60
ENDCHAR
STARTCHAR ROMAN
ENCODING 8544
SWIDTH 360 0
DWIDTH 6 0
BBX 1 7 2 0
BITMAP
80
80
80
80
80
80
80
ENDCHAR
STARTCHAR ROMAN
ENCODING 8545
SWIDTH 360 0
DWIDTH 6 0
BBX 3 7 1 0
BITMAP
A0
A0
A0
A0
A0
A0
A0
ENDCHAR
STARTCHAR ROMAN
ENCODING 8546
SWIDTH 360 0
DWIDTH 6 0
BBX 5 7 0 0
BITMAP
A8
A8
A8
A8
A8
A8
A8
ENDCHAR
STARTCHAR ROMAN
ENCODING 8547
SWIDTH 360 0
DWIDTH 6 0
BBX 5 7 0 0
BITMAP
A8
A8
A8
A8
A8
90
90
ENDCHAR
STARTCHAR ROMAN
ENCODING 8548
SWIDTH 360 0
DWIDTH 6 0
BBX 3 7 1 0
BITMAP
A0
A0
A0
A0
A0
40
40
ENDCHAR
STARTCHAR ROMAN
ENCODING 8549
SWIDTH 360 0
DWIDTH 6 0
BBX 5 7 0 0
BITMAP
A8
A8
A8
A8
A8
48
48
ENDCHAR
STARTCHAR ROMAN
ENCODING 8550
SWIDTH 360 0
DWIDTH 6 0
BBX 6 7 0 0
BITMAP
B4
B4
B4
B4
B4
54
54
ENDCHAR
STARTCHAR ROMAN
ENCODING 8552
SWIDTH 360 0
DWIDTH 6 0
BBX 5 7 0 0
BITMAP
A8
A8
A8
90
A8
A8
A8
ENDCHAR
STARTCHAR ROMAN
ENCODING 8553
SWIDTH 360 0
DWIDTH 6 0
BBX 3 7 1 0
BITMAP
A0
A0
A0
40
A0
A0
A0
ENDCHAR
STARTCHAR ROMAN
ENCODING 8554
SWIDTH 360 0
DWIDTH 6 0
BBX 5 7 0 0
BITMAP
A8
A8
A8
48
A8
A8
A8
ENDCHAR
STARTCHAR ROMAN
ENCODING 8555
SWIDTH 360 0
DWIDTH 6 0
BBX 6 7 0 0
BITMAP
B4
B4
B4
54
B4
B4
B4
ENDCHAR
STARTCHAR ROMAN
ENCODING 8556
SWIDTH 360 0
DWIDTH 6 0
BBX 5 7 0 0
BITMAP
80
80
80
80
80
80
F8
ENDCHAR
STARTCHAR ROMAN
ENCODING 8557
SWIDTH 360 0
DWIDTH 6 0
BBX 5 7 0 0
BITMAP
70
88
80
80
80
88
70
ENDCHAR
STARTCHAR ROMAN
ENCODING 8558
SWIDTH 360 0
DWIDTH 6 0
BBX 5 7 0 0
BITMAP
F0
88
88
88
88
88
F0
ENDCHAR
STARTCHAR ROMAN
ENCODING 8559
SWIDTH 360 0
DWIDTH 6 0
BBX 5 7 0 0
BITMAP
88
D8
A8
88
88
88
88
ENDCHAR
STARTCHAR SMALL
ENCODING 8560
SWIDTH 360 0
DWIDTH 6 0
BBX 1 6 2 0
BITMAP
80
00
80
80
80
80
ENDCHAR
STARTCHAR SMALL
ENCODING 8561
SWIDTH 360 0
DWIDTH 6 0
BBX 3 6 1 0
BITMAP
A0
00
A0
A0
A0
A0
ENDCHAR
STARTCHAR SMALL
ENCODING 8562
SWIDTH 360 0
DWIDTH 6 0
BBX 5 6 0 0
BITMAP
A8
00
A8
A8
A8
A8
ENDCHAR
STARTCHAR SMALL
ENCODING 8563
SWIDTH 360 0
DWIDTH 6 0
BBX 5 6 0 0
BITMAP
A8
28
A8
A8
90
90
ENDCHAR
STARTCHAR SMALL
ENCODING 8564
SWIDTH 360 0
DWIDTH 6 0
BBX 3 6 1 0
BITMAP
A0
A0
A0
A0
40
40
ENDCHAR
STARTCHAR SMALL
ENCODING 8565
SWIDTH 360 0
DWIDTH 6 0
BBX 5 6 0 0
BITMAP
A8
A0
A8
A8
48
48
ENDCHAR
STARTCHAR SMALL
ENCODING 8566
SWIDTH 360 0
DWIDTH 6 0
BBX 6 6 0 0
BITMAP
B4
A0
B4
B4
54
54
ENDCHAR
STARTCHAR SMALL
ENCODING 8568
SWIDTH 360 0
DWIDTH 6 0
BBX 5 6 0 0
BITMAP
80
28
A8
90
A8
A8
ENDCHAR
STARTCHAR SMALL
ENCODING 8569
SWIDTH 360 0
DWIDTH 6 0
BBX 3 5 1 0
BITMAP
A0
A0
40
A0
A0
ENDCHAR
STARTCHAR SMALL
ENCODING 8570
SWIDTH 360 0
DWIDTH 6 0
BBX 5 6 0 0
BITMAP
08
A0
A8
48
A8
A8
ENDCHAR
STARTCHAR SMALL
ENCODING 8571
SWIDTH 360 0
DWIDTH 6 0
BBX 6 6 0 0
BITMAP
14
A0
B4
54
B4
B4
ENDCHAR
STARTCHAR SMALL
ENCODING 8572
SWIDTH 360 0
DWIDTH 6 0
BBX 2 7 2 0
BITMAP
80
80
80
80
80
80
C0
ENDCHAR
STARTCHAR SMALL
ENCODING 8573
SWIDTH 360 0
DWIDTH 6 0
BBX 5 5 0 0
BITMAP
78
80
80
80
78
ENDCHAR
STARTCHAR SMALL
ENCODING 8574
SWIDTH 360 0
DWIDTH 6 0
BBX 5 7 0 0
BITMAP
08
08
78
88
88
88
78
ENDCHAR
STARTCHAR SMALL
ENCODING 8575
SWIDTH 360 0
DWIDTH 6 0
BBX 5 5 0 0
BITMAP
D0
A8
A8
A8
A8
ENDCHAR
STARTCHAR ROMAN
ENCODING 8576
SWIDTH 360 0
DWIDTH 6 0
BBX 5 5 0 0
BITMAP
70
A8
A8
A8
70
ENDCHAR
STARTCHAR ROMAN
ENCODING 8579
SWIDTH 360 0
DWIDTH 6 0
BBX 5 5 0 0
BITMAP
F0
08
08
08
F0
ENDCHAR
STARTCHAR LEFTWARDS
ENCODING 8592
SWIDTH 360 0
DWIDTH 6 0
BBX 5 5 0 1
BITMAP
20
40
F8
40
20
ENDCHAR
STARTCHAR UPWARDS
ENCODING 8593
SWIDTH 360 0
DWIDTH 6 0
BBX 5 5 0 1
BITMAP
20
70
A8
20
20
ENDCHAR
STARTCHAR RIGHTWARDS
ENCODING 8594
SWIDTH 360 0
DWIDTH 6 0
BBX 5 5 0 1
BITMAP
20
10
F8
10
20
ENDCHAR
STARTCHAR DOWNWARDS
ENCODING 8595
SWIDTH 360 0
DWIDTH 6 0
BBX 5 5 0 1
BITMAP
20
20
A8
70
20
ENDCHAR
STARTCHAR UP
ENCODING 8597
SWIDTH 360 0
DWIDTH 6 0
BBX 5 7 0 0
BITMAP
20
70
A8
20
A8
70
20
ENDCHAR
STARTCHAR NORTH
ENCODING 8598
SWIDTH 360 0
DWIDTH 6 0
BBX 5 5 0 1
BITMAP
E0
C0
A0
10
08
ENDCHAR
STARTCHAR NORTH
ENCODING 8599
SWIDTH 360 0
DWIDTH 6 0
BBX 5 5 0 1
BITMAP
38
18
28
40
80
ENDCHAR
STARTCHAR SOUTH
ENCODING 8600
SWIDTH 360 0
DWIDTH 6 0
BBX 5 5 0 1
BITMAP
80
40
28
18
38
ENDCHAR
STARTCHAR SOUTH
ENCODING 8601
SWIDTH 360 0
DWIDTH 6 0
BBX 5 5 0 1
BITMAP
08
10
A0
C0
E0
ENDCHAR
STARTCHAR LEFTWARDS
ENCODING 8602
SWIDTH 360 0
DWIDTH 6 0
BBX 6 5 0 1
BITMAP
20
44
FC
48
20
ENDCHAR
STARTCHAR RIGHTWARDS
ENCODING 8603
SWIDTH 360 0
DWIDTH 6 0
BBX 6 5 0 1
BITMAP
10
48
FC
88
10
ENDCHAR
STARTCHAR LEFTWARDS
ENCODING 8604
SWIDTH 360 0
DWIDTH 6 0
BBX 6 3 0 2
BITMAP
E0
C8
B4
ENDCHAR
STARTCHAR RIGHTWARDS
ENCODING 8605
SWIDTH 360 0
DWIDTH 6 0
BBX 6 3 0 2
BITMAP
1C
4C
B4
ENDCHAR
STARTCHAR LEFTWARDS
ENCODING 8606
SWIDTH 360 0
DWIDTH 6 0
BBX 6 5 0 1
BITMAP
28
50
FC
50
28
ENDCHAR
STARTCHAR UPWARDS
ENCODING 8607
SWIDTH 360 0
DWIDTH 6 0
BBX 5 7 0 1
BITMAP
20
70
A8
70
A8
20
20
ENDCHAR
STARTCHAR RIGHTWARDS
ENCODING 8608
SWIDTH 360 0
DWIDTH 6 0
BBX 6 5 0 1
BITMAP
50
28
FC
28
50
ENDCHAR
STARTCHAR DOWNWARDS
ENCODING 8609
SWIDTH 360 0
DWIDTH 6 0
BBX 5 7 0 0
BITMAP
20
20
A8
70
A8
70
20
ENDCHAR
STARTCHAR LEFTWARDS
ENCODING 8610
SWIDTH 360 0
DWIDTH 6 0
BBX 6 5 0 1
BITMAP
24
48
F0
48
24
ENDCHAR
STARTCHAR RIGHTWARDS
ENCODING 8611
SWIDTH 360 0
DWIDTH 6 0
BBX 6 5 0 1
BITMAP
90
48
3C
48
90
ENDCHAR
STARTCHAR LEFTWARDS
ENCODING 8612
SWIDTH 360 0
DWIDTH 6 0
BBX 5 5 0 1
BITMAP
28
48
F8
48
28
ENDCHAR
STARTCHAR UPWARDS
ENCODING 8613
SWIDTH 360 0
DWIDTH 6 0
BBX 5 5 0 1
BITMAP
20
70
A8
20
F8
ENDCHAR
STARTCHAR RIGHTWARDS
ENCODING 8614
SWIDTH 360 0
DWIDTH 6 0
BBX 5 5 0 1
BITMAP
A0
90
F8
90
A0
ENDCHAR
STARTCHAR DOWNWARDS
ENCODING 8615
SWIDTH 360 0
DWIDTH 6 0
BBX 5 5 0 1
BITMAP
F8
20
A8
70
20
ENDCHAR
STARTCHAR UP
ENCODING 8616
SWIDTH 360 0
DWIDTH 6 0
BBX 5 7 0 0
BITMAP
20
70
A8
20
A8
70
F8
ENDCHAR
STARTCHAR LEFTWARDS
ENCODING 8617
SWIDTH 360 0
DWIDTH 6 0
BBX 6 5 0 1
BITMAP
28
44
F8
40
20
ENDCHAR
STARTCHAR RIGHTWARDS
ENCODING 8618
SWIDTH 360 0
DWIDTH 6 0
BBX 6 5 0 1
BITMAP
50
88
7C
08
10
ENDCHAR
STARTCHAR LEFTWARDS
ENCODING 8619
SWIDTH 360 0
DWIDTH 6 0
BBX 6 5 0 1
BITMAP
28
54
F8
50
20
ENDCHAR
STARTCHAR RIGHTWARDS
ENCODING 8620
SWIDTH 360 0
DWIDTH 6 0
BBX 6 5 0 1
BITMAP
50
A8
7C
28
10
ENDCHAR
STARTCHAR DOWNWARDS
ENCODING 8623
SWIDTH 360 0
DWIDTH 6 0
BBX 5 8 0 0
BITMAP
08
10
20
78
10
A0
C0
E0
ENDCHAR
STARTCHAR UPWARDS
ENCODING 8624
SWIDTH 360 0
DWIDTH 6 0
BBX 5 7 0 0
BITMAP
20
40
F8
48
28
08
08
ENDCHAR
STARTCHAR UPWARDS
ENCODING 8625
SWIDTH 360 0
DWIDTH 6 0
BBX 5 7 0 0
BITMAP
20
10
F8
90
A0
80
80
ENDCHAR
STARTCHAR DOWNWARDS
ENCODING 8626
SWIDTH 360 0
DWIDTH 6 0
BBX 5 7 0 0
BITMAP
08
08
28
48
F8
40
20
ENDCHAR
STARTCHAR DOWNWARDS
ENCODING 8627
SWIDTH 360 0
DWIDTH 6 0
BBX 5 7 0 0
BITMAP
80
80
A0
90
F8
10
20
ENDCHAR
STARTCHAR RIGHTWARDS
ENCODING 8628
SWIDTH 360 0
DWIDTH 6 0
BBX 6 5 0 1
BITMAP
F0
10
54
38
10
ENDCHAR
STARTCHAR DOWNWARDS
ENCODING 8629
SWIDTH 360 0
DWIDTH 6 0
BBX 5 5 0 1
BITMAP
28
48
F8
40
20
ENDCHAR
STARTCHAR ANTICLOCKWISE
ENCODING 8630
SWIDTH 360 0
DWIDTH 6 0
BBX 6 6 0 1
BITMAP
18
24
20
A8
70
20
ENDCHAR
STARTCHAR CLOCKWISE
ENCODING 8631
SWIDTH 360 0
DWIDTH 6 0
BBX 6 6 0 1
BITMAP
60
90
10
54
38
10
ENDCHAR
STARTCHAR NORTH
ENCODING 8632
SWIDTH 360 0
DWIDTH 6 0
BBX 5 7 0 1
BITMAP
F8
00
E0
C0
A0
10
08
ENDCHAR
STARTCHAR LEFTWARDS
ENCODING 8633
SWIDTH 360 0
DWIDTH 6 0
BBX 5 9 0 -1
BITMAP
28
18
F8
18
A8
C0
F8
C0
A0
ENDCHAR
STARTCHAR ANTICLOCKWISE
ENCODING 8634
SWIDTH 360 0
DWIDTH 6 0
BBX 5 6 0 1
BITMAP
38
30
A8
88
88
70
ENDCHAR
STARTCHAR CLOCKWISE
ENCODING 8635
SWIDTH 360 0
DWIDTH 6 0
BBX 5 6 0 1
BITMAP
E0
60
A8
88
88
70
ENDCHAR
STARTCHAR LEFTWARDS
ENCODING 8636
SWIDTH 360 0
DWIDTH 6 0
BBX 5 3 0 3
BITMAP
20
40
F8
ENDCHAR
STARTCHAR LEFTWARDS
ENCODING 8637
SWIDTH 360 0
DWIDTH 6 0
BBX 5 3 0 1
BITMAP
F8
40
20
ENDCHAR
STARTCHAR UPWARDS
ENCODING 8638
SWIDTH 360 0
DWIDTH 6 0
BBX 3 5 2 1
BITMAP
80
C0
A0
80
80
ENDCHAR
STARTCHAR UPWARDS
ENCODING 8639
SWIDTH 360 0
DWIDTH 6 0
BBX 3 5 0 1
BITMAP
20
60
A0
20
20
ENDCHAR
STARTCHAR RIGHTWARDS
ENCODING 8640
SWIDTH 360 0
DWIDTH 6 0
BBX 5 3 0 3
BITMAP
20
10
F8
ENDCHAR
STARTCHAR RIGHTWARDS
ENCODING 8641
SWIDTH 360 0
DWIDTH 6 0
BBX 5 3 0 1
BITMAP
F8
10
20
ENDCHAR
STARTCHAR DOWNWARDS
ENCODING 8642
SWIDTH 360 0
DWIDTH 6 0
BBX 3 5 2 1
BITMAP
80
80
A0
C0
80
ENDCHAR
STARTCHAR DOWNWARDS
ENCODING 8643
SWIDTH 360 0
DWIDTH 6 0
BBX 3 5 0 1
BITMAP
20
20
A0
60
20
ENDCHAR
STARTCHAR RIGHTWARDS
ENCODING 8644
SWIDTH 360 0
DWIDTH 6 0
BBX 5 9 0 -1
BITMAP
20
10
F8
10
20
40
F8
40
20
ENDCHAR
STARTCHAR UPWARDS
ENCODING 8645
SWIDTH 360 0
DWIDTH 6 0
BBX 6 5 0 1
BITMAP
48
E8
48
5C
48
ENDCHAR
STARTCHAR LEFTWARDS
ENCODING 8646
SWIDTH 360 0
DWIDTH 6 0
BBX 5 9 0 -1
BITMAP
20
40
F8
40
20
10
F8
10
20
ENDCHAR
STARTCHAR LEFTWARDS
ENCODING 8647
SWIDTH 360 0
DWIDTH 6 0
BBX 5 9 0 -1
BITMAP
20
40
F8
40
20
40
F8
40
20
ENDCHAR
STARTCHAR UPWARDS
ENCODING 8648
SWIDTH 360 0
DWIDTH 6 0
BBX 6 5 0 1
BITMAP
48
FC
48
48
48
ENDCHAR
STARTCHAR RIGHTWARDS
ENCODING 8649
SWIDTH 360 0
DWIDTH 6 0
BBX 5 9 0 -1
BITMAP
20
10
F8
10
20
10
F8
10
20
ENDCHAR
STARTCHAR DOWNWARDS
ENCODING 8650
SWIDTH 360 0
DWIDTH 6 0
BBX 6 5 0 1
BITMAP
48
48
48
FC
48
ENDCHAR
STARTCHAR LEFTWARDS
ENCODING 8651
SWIDTH 360 0
DWIDTH 6 0
BBX 5 8 0 -1
BITMAP
20
40
F8
00
00
F8
10
20
ENDCHAR
STARTCHAR RIGHTWARDS
ENCODING 8652
SWIDTH 360 0
DWIDTH 6 0
BBX 5 8 0 -1
BITMAP
20
10
F8
00
00
F8
40
20
ENDCHAR
STARTCHAR LEFTWARDS
ENCODING 8653
SWIDTH 360 0
DWIDTH 6 0
BBX 5 5 0 1
BITMAP
28
78
90
78
20
ENDCHAR
STARTCHAR RIGHTWARDS
ENCODING 8655
SWIDTH 360 0
DWIDTH 6 0
BBX 5 5 0 1
BITMAP
20
F0
48
F0
A0
ENDCHAR
STARTCHAR LEFTWARDS
ENCODING 8656
SWIDTH 360 0
DWIDTH 6 0
BBX 5 5 0 1
BITMAP
20
78
80
78
20
ENDCHAR
STARTCHAR UPWARDS
ENCODING 8657
SWIDTH 360 0
DWIDTH 6 0
BBX 5 5 0 1
BITMAP
20
50
D8
50
50
ENDCHAR
STARTCHAR RIGHTWARDS
ENCODING 8658
SWIDTH 360 0
DWIDTH 6 0
BBX 5 5 0 1
BITMAP
20
F0
08
F0
20
ENDCHAR
STARTCHAR DOWNWARDS
ENCODING 8659
SWIDTH 360 0
DWIDTH 6 0
BBX 5 5 0 1
BITMAP
50
50
D8
50
20
ENDCHAR
STARTCHAR UP
ENCODING 8661
SWIDTH 360 0
DWIDTH 6 0
BBX 5 7 0 0
BITMAP
20
50
D8
50
D8
50
20
ENDCHAR
STARTCHAR NORTH
ENCODING 8662
SWIDTH 360 0
DWIDTH 6 0
BBX 5 6 0 1
BITMAP
E0
A0
D0
28
10
08
ENDCHAR
STARTCHAR NORTH
ENCODING 8663
SWIDTH 360 0
DWIDTH 6 0
BBX 5 6 0 1
BITMAP
38
28
58
A0
40
80
ENDCHAR
STARTCHAR SOUTH
ENCODING 8664
SWIDTH 360 0
DWIDTH 6 0
BBX 5 6 0 1
BITMAP
80
40
A0
58
28
38
ENDCHAR
STARTCHAR SOUTH
ENCODING 8665
SWIDTH 360 0
DWIDTH 6 0
BBX 5 6 0 1
BITMAP
08
10
28
D0
A0
E0
ENDCHAR
STARTCHAR LEFTWARDS
ENCODING 8666
SWIDTH 360 0
DWIDTH 6 0
BBX 5 7 0 -1
BITMAP
10
38
40
F8
40
38
10
ENDCHAR
STARTCHAR RIGHTWARDS
ENCODING 8667
SWIDTH 360 0
DWIDTH 6 0
BBX 5 7 1 -1
BITMAP
40
E0
10
F8
10
E0
40
ENDCHAR
STARTCHAR LEFTWARDS
ENCODING 8668
SWIDTH 360 0
DWIDTH 6 0
BBX 6 5 0 1
BITMAP
20
48
F4
40
20
ENDCHAR
STARTCHAR RIGHTWARDS
ENCODING 8669
SWIDTH 360 0
DWIDTH 6 0
BBX 6 5 0 1
BITMAP
10
48
BC
08
10
ENDCHAR
STARTCHAR UPWARDS
ENCODING 8670
SWIDTH 360 0
DWIDTH 6 0
BBX 5 9 0 -1
BITMAP
20
70
A8
20
F8
20
F8
20
20
ENDCHAR
STARTCHAR DOWNWARDS
ENCODING 8671
SWIDTH 360 0
DWIDTH 6 0
BBX 5 9 0 -1
BITMAP
20
20
F8
20
F8
20
A8
70
20
ENDCHAR
STARTCHAR LEFTWARDS
ENCODING 8672
SWIDTH 360 0
DWIDTH 6 0
BBX 6 5 0 1
BITMAP
20
40
D4
40
20
ENDCHAR
STARTCHAR UPWARDS
ENCODING 8673
SWIDTH 360 0
DWIDTH 6 0
BBX 5 6 0 1
BITMAP
20
70
88
20
00
20
ENDCHAR
STARTCHAR RIGHTWARDS
ENCODING 8674
SWIDTH 360 0
DWIDTH 6 0
BBX 6 5 0 1
BITMAP
10
08
AC
08
10
ENDCHAR
STARTCHAR DOWNWARDS
ENCODING 8675
SWIDTH 360 0
DWIDTH 6 0
BBX 5 6 0 1
BITMAP
20
00
20
88
70
20
ENDCHAR
STARTCHAR LEFTWARDS
ENCODING 8676
SWIDTH 360 0
DWIDTH 6 0
BBX 5 5 0 1
BITMAP
A0
C0
F8
C0
A0
ENDCHAR
STARTCHAR RIGHTWARDS
ENCODING 8677
SWIDTH 360 0
DWIDTH 6 0
BBX 5 5 0 1
BITMAP
28
18
F8
18
28
ENDCHAR
STARTCHAR LEFTWARDS
ENCODING 8678
SWIDTH 360 0
DWIDTH 6 0
BBX 5 5 0 1
BITMAP
20
78
88
78
20
ENDCHAR
STARTCHAR UPWARDS
ENCODING 8679
SWIDTH 360 0
DWIDTH 6 0
BBX 5 5 0 1
BITMAP
20
50
D8
50
70
ENDCHAR
STARTCHAR RIGHTWARDS
ENCODING 8680
SWIDTH 360 0
DWIDTH 6 0
BBX 5 5 0 1
BITMAP
20
F0
88
F0
20
ENDCHAR
STARTCHAR DOWNWARDS
ENCODING 8681
SWIDTH 360 0
DWIDTH 6 0
BBX 5 5 0 1
BITMAP
70
50
D8
50
20
ENDCHAR
STARTCHAR UPWARDS
ENCODING 8682
SWIDTH 360 0
DWIDTH 6 0
BBX 5 8 0 -1
BITMAP
20
50
D8
70
00
70
50
70
ENDCHAR
STARTCHAR UPWARDS
ENCODING 8683
SWIDTH 360 0
DWIDTH 6 0
BBX 5 7 0 0
BITMAP
20
50
D8
50
D8
88
F8
ENDCHAR
STARTCHAR UPWARDS
ENCODING 8684
SWIDTH 360 0
DWIDTH 6 0
BBX 5 7 0 0
BITMAP
20
50
F8
50
D8
88
F8
ENDCHAR
STARTCHAR UPWARDS
ENCODING 8685
SWIDTH 360 0
DWIDTH 6 0
BBX 5 7 0 0
BITMAP
20
70
A8
70
F8
A8
F8
ENDCHAR
STARTCHAR UPWARDS
ENCODING 8686
SWIDTH 360 0
DWIDTH 6 0
BBX 5 7 0 0
BITMAP
20
50
F8
50
D8
50
70
ENDCHAR
STARTCHAR UPWARDS
ENCODING 8687
SWIDTH 360 0
DWIDTH 6 0
BBX 5 7 0 0
BITMAP
20
50
F8
50
D8
88
F8
ENDCHAR
STARTCHAR NORTH
ENCODING 8689
SWIDTH 360 0
DWIDTH 6 0
BBX 6 6 0 1
BITMAP
F8
80
B8
B0
A8
04
ENDCHAR
STARTCHAR SOUTH
ENCODING 8690
SWIDTH 360 0
DWIDTH 6 0
BBX 6 6 0 1
BITMAP
80
54
34
74
04
7C
ENDCHAR
STARTCHAR UP
ENCODING 8691
SWIDTH 360 0
DWIDTH 6 0
BBX 5 7 0 0
BITMAP
20
50
D8
50
D8
70
20
ENDCHAR
STARTCHAR RIGHT
ENCODING 8692
SWIDTH 360 0
DWIDTH 6 0
BBX 6 5 0 1
BITMAP
10
48
BC
48
10
ENDCHAR
STARTCHAR DOWNWARDS
ENCODING 8693
SWIDTH 360 0
DWIDTH 6 0
BBX 6 6 0 1
BITMAP
48
5C
48
48
E8
48
ENDCHAR
STARTCHAR THREE
ENCODING 8694
SWIDTH 360 0
DWIDTH 6 0
BBX 5 9 0 -1
BITMAP
20
10
F8
10
F8
10
F8
10
20
ENDCHAR
STARTCHAR LEFTWARDS
ENCODING 8695
SWIDTH 360 0
DWIDTH 6 0
BBX 6 5 0 1
BITMAP
28
48
FC
48
28
ENDCHAR
STARTCHAR RIGHTWARDS
ENCODING 8696
SWIDTH 360 0
DWIDTH 6 0
BBX 6 5 0 1
BITMAP
50
48
FC
48
50
ENDCHAR
STARTCHAR LEFTWARDS
ENCODING 8698
SWIDTH 360 0
DWIDTH 6 0
BBX 6 5 0 0
BITMAP
20
54
FC
54
20
ENDCHAR
STARTCHAR LEFTWARDS
ENCODING 8701
SWIDTH 360 0
DWIDTH 6 0
BBX 5 5 0 1
BITMAP
20
60
B8
60
20
ENDCHAR
STARTCHAR RIGHTWARDS
ENCODING 8702
SWIDTH 360 0
DWIDTH 6 0
BBX 5 5 0 1
BITMAP
20
30
E8
30
20
ENDCHAR
STARTCHAR FOR
ENCODING 8704
SWIDTH 360 0
DWIDTH 6 0
BBX 5 7 0 0
BITMAP
88
88
F8
50
50
20
20
ENDCHAR
STARTCHAR COMPLEMENT
ENCODING 8705
SWIDTH 360 0
DWIDTH 6 0
BBX 4 7 0 0
BITMAP
60
90
90
80
90
90
60
ENDCHAR
STARTCHAR PARTIAL
ENCODING 8706
SWIDTH 360 0
DWIDTH 6 0
BBX 5 7 0 0
BITMAP
30
48
08
68
98
88
70
ENDCHAR
STARTCHAR THERE
ENCODING 8707
SWIDTH 360 0
DWIDTH 6 0
BBX 5 7 0 0
BITMAP
F8
08
08
F8
08
08
F8
ENDCHAR
STARTCHAR THERE
ENCODING 8708
SWIDTH 360 0
DWIDTH 6 0
BBX 5 11 0 -2
BITMAP
08
08
F8
18
18
F8
28
28
F8
40
40
ENDCHAR
STARTCHAR EMPTY
ENCODING 8709
SWIDTH 360 0
DWIDTH 6 0
BBX 5 7 0 0
BITMAP
68
90
98
A8
C8
48
B0
ENDCHAR
STARTCHAR INCREMENT
ENCODING 8710
SWIDTH 360 0
DWIDTH 6 0
BBX 5 7 0 0
BITMAP
20
20
50
50
88
88
F8
ENDCHAR
STARTCHAR NABLA
ENCODING 8711
SWIDTH 360 0
DWIDTH 6 0
BBX 5 7 0 0
BITMAP
F8
88
88
50
50
20
20
ENDCHAR
STARTCHAR ELEMENT
ENCODING 8712
SWIDTH 360 0
DWIDTH 6 0
BBX 5 7 0 0
BITMAP
38
40
80
F8
80
40
38
ENDCHAR
STARTCHAR NOT
ENCODING 8713
SWIDTH 360 0
DWIDTH 6 0
BBX 5 11 0 -2
BITMAP
08
08
38
50
90
F8
A0
60
78
40
40
ENDCHAR
STARTCHAR SMALL
ENCODING 8714
SWIDTH 360 0
DWIDTH 6 0
BBX 5 5 0 0
BITMAP
78
80
F8
80
78
ENDCHAR
STARTCHAR CONTAINS
ENCODING 8715
SWIDTH 360 0
DWIDTH 6 0
BBX 5 7 0 0
BITMAP
E0
10
08
F8
08
10
E0
ENDCHAR
STARTCHAR DOES
ENCODING 8716
SWIDTH 360 0
DWIDTH 6 0
BBX 5 11 0 -2
BITMAP
08
08
E8
10
18
F8
28
30
E0
40
40
ENDCHAR
STARTCHAR SMALL
ENCODING 8717
SWIDTH 360 0
DWIDTH 6 0
BBX 5 5 0 0
BITMAP
F0
08
78
08
F0
ENDCHAR
ENDFONT
